<svg width="27" height="24" viewBox="0 0 27 24" fill="none" xmlns="http://www.w3.org/2000/svg">
<path d="M13.3926 1.05047C14.0654 0.377853 14.9778 0 15.9292 0C16.8805 0 17.793 0.377853 18.4658 1.05047L25.4244 8.00906C26.097 8.68187 26.4748 9.59429 26.4748 10.5457C26.4748 11.497 26.097 12.4094 25.4244 13.0822L15.5578 22.9488C14.8852 23.6217 13.9727 23.9998 13.0213 24H8.07184C7.12037 23.9998 6.20794 23.6217 5.53525 22.9488L1.05047 18.464C0.377853 17.7912 0 16.8788 0 15.9274C0 14.976 0.377853 14.0636 1.05047 13.3908L13.3926 1.05047ZM14.5766 21.3934L5.08139 11.8983L2.32056 14.6591C1.98425 14.9955 1.79532 15.4517 1.79532 15.9274C1.79532 16.4031 1.98425 16.8593 2.32056 17.1957L6.80534 21.6805C7.14169 22.0169 7.5979 22.206 8.07364 22.2061H13.023C13.4988 22.206 13.955 22.0169 14.2913 21.6805L14.5766 21.3934Z" fill="#616161"/>
</svg>
