<svg width="353" height="79" viewBox="0 0 353 79" fill="none" xmlns="http://www.w3.org/2000/svg">
<rect x="0.5" y="0.5" width="352" height="78" rx="11.5" fill="#FCFCFC"/>
<rect x="0.5" y="0.5" width="352" height="78" rx="11.5" stroke="#1F79FF"/>
<path d="M24.832 26.1445C24.832 26.9492 24.7109 27.7246 24.4688 28.4707C24.2266 29.2129 23.8828 29.873 23.4375 30.4512C22.9922 31.0293 22.4785 31.4668 21.8965 31.7637L21.2168 30.8789C21.7441 30.6211 22.2129 30.2422 22.623 29.7422C23.0371 29.2422 23.3574 28.6777 23.584 28.0488C23.8105 27.4199 23.9238 26.7852 23.9238 26.1445V24.375H24.832V26.1445ZM25.0371 26.1445C25.0371 26.7656 25.1465 27.377 25.3652 27.9785C25.584 28.5762 25.8926 29.1133 26.291 29.5898C26.6895 30.0625 27.1426 30.4277 27.6504 30.6855L26.9707 31.582C26.4121 31.2812 25.916 30.8535 25.4824 30.2988C25.0488 29.7441 24.7148 29.1094 24.4805 28.3945C24.25 27.6758 24.1348 26.9258 24.1348 26.1445V24.375H25.0371V26.1445ZM29.5664 33.9902H28.4414V23.502H29.5664V33.9902ZM31.248 28.623H29.3145V27.6797H31.248V28.623ZM35.4375 25.6758C35.4375 26.3125 35.3164 26.9141 35.0742 27.4805C34.832 28.0469 34.4863 28.541 34.0371 28.9629C33.5879 29.3809 33.0566 29.6973 32.4434 29.9121L31.875 29.0332C32.4141 28.8457 32.8809 28.5801 33.2754 28.2363C33.6738 27.8926 33.9785 27.5 34.1895 27.0586C34.4004 26.6133 34.5059 26.1523 34.5059 25.6758V24.6504H35.4375V25.6758ZM35.6484 25.6758C35.6484 26.1289 35.7559 26.5664 35.9707 26.9883C36.1855 27.4062 36.4902 27.7773 36.8848 28.1016C37.2793 28.4219 37.7422 28.668 38.2734 28.8398L37.6934 29.707C37.0957 29.5078 36.5723 29.2109 36.123 28.8164C35.6738 28.418 35.3281 27.9492 35.0859 27.4102C34.8477 26.8672 34.7285 26.2891 34.7285 25.6758V24.6504H35.6484V25.6758ZM37.9629 25.2305H32.1621V24.3223H37.9629V25.2305ZM40.4707 31.1543H39.3457V23.5078H40.4707V31.1543ZM40.7812 33.7734H33.6035V32.8594H40.7812V33.7734ZM34.7168 33.2812H33.6035V30.4453H34.7168V33.2812ZM53.3555 31.3594H52.2305V23.5078H53.3555V31.3594ZM54.873 27.8086H53.0156V26.877H54.873V27.8086ZM51.3691 25.623H45.1289V24.7266H51.3691V25.623ZM48.2461 26.1445C48.7461 26.1445 49.1875 26.2266 49.5703 26.3906C49.957 26.5547 50.2578 26.7871 50.4727 27.0879C50.6914 27.3848 50.8008 27.7266 50.8008 28.1133C50.8008 28.5039 50.6914 28.8496 50.4727 29.1504C50.2578 29.4473 49.957 29.6777 49.5703 29.8418C49.1875 30.0059 48.7461 30.0879 48.2461 30.0879C47.7461 30.0879 47.3027 30.0059 46.916 29.8418C46.5332 29.6777 46.2324 29.4473 46.0137 29.1504C45.7988 28.8496 45.6914 28.5039 45.6914 28.1133C45.6914 27.7266 45.7988 27.3848 46.0137 27.0879C46.2324 26.7871 46.5352 26.5547 46.9219 26.3906C47.3086 26.2266 47.75 26.1445 48.2461 26.1445ZM48.2461 27C47.9531 27 47.6953 27.0469 47.4727 27.1406C47.25 27.2305 47.0742 27.3594 46.9453 27.5273C46.8164 27.6953 46.752 27.8906 46.752 28.1133C46.752 28.332 46.8164 28.5254 46.9453 28.6934C47.0742 28.8613 47.25 28.9922 47.4727 29.0859C47.6953 29.1758 47.9531 29.2207 48.2461 29.2207C48.5391 29.2207 48.7969 29.1758 49.0195 29.0859C49.2422 28.9922 49.416 28.8613 49.541 28.6934C49.666 28.5254 49.7285 28.332 49.7285 28.1133C49.7285 27.8906 49.666 27.6953 49.541 27.5273C49.416 27.3594 49.2422 27.2305 49.0195 27.1406C48.7969 27.0469 48.5391 27 48.2461 27ZM48.8145 25.1777H47.6895V23.4961H48.8145V25.1777ZM53.8066 33.7734H46.6934V32.8594H53.8066V33.7734ZM47.8184 33.2461H46.6934V30.7441H47.8184V33.2461ZM61.9102 25.4238C61.9102 26.0723 61.791 26.6816 61.5527 27.252C61.3184 27.8184 60.9785 28.3125 60.5332 28.7344C60.0879 29.1562 59.5586 29.4727 58.9453 29.6836L58.377 28.793C58.9199 28.6094 59.3867 28.3457 59.7773 28.002C60.1719 27.6582 60.4727 27.2637 60.6797 26.8184C60.8906 26.373 60.9961 25.9082 60.9961 25.4238V24.6387H61.9102V25.4238ZM62.1152 25.4238C62.1152 25.8652 62.2148 26.2871 62.4141 26.6895C62.6133 27.0918 62.9023 27.4492 63.2812 27.7617C63.6641 28.0703 64.1172 28.3105 64.6406 28.4824L64.1016 29.3496C63.4961 29.1543 62.9766 28.8633 62.543 28.4766C62.1094 28.0898 61.7773 27.6348 61.5469 27.1113C61.3164 26.5879 61.2012 26.0254 61.2012 25.4238V24.6387H62.1152V25.4238ZM64.377 25.1543H58.6992V24.2402H64.377V25.1543ZM66.7031 29.7949H65.5781V23.502H66.7031V29.7949ZM68.2207 27.0117H66.3926V26.0859H68.2207V27.0117ZM63.3047 30.0469C64.0273 30.0469 64.6504 30.125 65.1738 30.2812C65.7012 30.4336 66.1035 30.6562 66.3809 30.9492C66.6621 31.2422 66.8027 31.5938 66.8027 32.0039C66.8027 32.4141 66.6621 32.7656 66.3809 33.0586C66.1035 33.3555 65.7012 33.582 65.1738 33.7383C64.6504 33.8984 64.0273 33.9785 63.3047 33.9785C62.5859 33.9785 61.9629 33.8984 61.4355 33.7383C60.9082 33.582 60.502 33.3555 60.2168 33.0586C59.9355 32.7656 59.7949 32.4141 59.7949 32.0039C59.7949 31.5938 59.9355 31.2422 60.2168 30.9492C60.502 30.6562 60.9082 30.4336 61.4355 30.2812C61.9629 30.125 62.5859 30.0469 63.3047 30.0469ZM63.3047 30.9375C62.8008 30.9375 62.3672 30.9785 62.0039 31.0605C61.6445 31.1387 61.3691 31.2578 61.1777 31.418C60.9902 31.5781 60.8965 31.7734 60.8965 32.0039C60.8965 32.2305 60.9902 32.4277 61.1777 32.5957C61.3691 32.7598 61.6445 32.8848 62.0039 32.9707C62.3672 33.0527 62.8008 33.0938 63.3047 33.0938C63.8125 33.0938 64.2441 33.0527 64.5996 32.9707C64.959 32.8848 65.2324 32.7598 65.4199 32.5957C65.6113 32.4277 65.707 32.2305 65.707 32.0039C65.707 31.7734 65.6113 31.5781 65.4199 31.418C65.2324 31.2578 64.959 31.1387 64.5996 31.0605C64.2441 30.9785 63.8125 30.9375 63.3047 30.9375ZM77.5137 34.0078H76.4004V23.4844H77.5137V34.0078ZM71.8945 24.2754C72.4219 24.2754 72.8906 24.4277 73.3008 24.7324C73.7109 25.0371 74.0312 25.4688 74.2617 26.0273C74.4961 26.582 74.6133 27.2246 74.6133 27.9551C74.6133 28.6973 74.4961 29.3477 74.2617 29.9062C74.0312 30.4609 73.7109 30.8906 73.3008 31.1953C72.8906 31.5 72.4219 31.6523 71.8945 31.6523C71.3789 31.6523 70.9141 31.5 70.5 31.1953C70.0859 30.8906 69.7617 30.4609 69.5273 29.9062C69.2969 29.3477 69.1816 28.6973 69.1816 27.9551C69.1816 27.2246 69.2969 26.582 69.5273 26.0273C69.7617 25.4688 70.0859 25.0371 70.5 24.7324C70.9141 24.4277 71.3789 24.2754 71.8945 24.2754ZM71.8945 25.2891C71.5781 25.2891 71.2949 25.3984 71.0449 25.6172C70.7949 25.832 70.6016 26.1406 70.4648 26.543C70.3281 26.9453 70.2598 27.416 70.2598 27.9551C70.2598 28.5059 70.3281 28.9824 70.4648 29.3848C70.6016 29.7871 70.7949 30.0996 71.0449 30.3223C71.2949 30.541 71.5781 30.6504 71.8945 30.6504C72.2227 30.6504 72.5098 30.541 72.7559 30.3223C73.0059 30.0996 73.1992 29.7871 73.3359 29.3848C73.4727 28.9824 73.541 28.5059 73.541 27.9551C73.541 27.416 73.4707 26.9453 73.3301 26.543C73.1895 26.1406 72.9961 25.832 72.75 25.6172C72.5078 25.3984 72.2227 25.2891 71.8945 25.2891ZM87.1582 26.1973H84.2871V25.2832H87.1582V26.1973ZM87.1934 28.4414H84.2871V27.5332H87.1934V28.4414ZM84.5391 29.3672H79.6699V24.3867H84.5391V29.3672ZM80.7598 28.4648H83.4551V25.2832H80.7598V28.4648ZM87.9551 31.1484H86.8184V23.5078H87.9551V31.1484ZM88.1953 33.7734H81.0762V32.8594H88.1953V33.7734ZM82.2012 33.2988H81.0762V30.4629H82.2012V33.2988ZM97.8691 30.7734H96.7676V29.2148H97.8691V30.7734ZM102.111 29.5254H92.543V28.6289H102.111V29.5254ZM97.8809 24.9082H96.7676V23.4727H97.8809V24.9082ZM97.6875 25.2012C97.6875 25.748 97.5059 26.2285 97.1426 26.6426C96.7793 27.0566 96.2734 27.3906 95.625 27.6445C94.9766 27.8984 94.2324 28.0664 93.3926 28.1484L93.0527 27.2812C93.7715 27.2227 94.4082 27.0996 94.9629 26.9121C95.5215 26.7207 95.9512 26.4766 96.252 26.1797C96.5566 25.8828 96.709 25.5566 96.709 25.2012V25.0254H97.6875V25.2012ZM97.9336 25.2012C97.9336 25.5566 98.0859 25.8828 98.3906 26.1797C98.6953 26.4766 99.125 26.7207 99.6797 26.9121C100.238 27.0996 100.877 27.2227 101.596 27.2812L101.256 28.1484C100.416 28.0664 99.6719 27.8984 99.0234 27.6445C98.375 27.3906 97.8691 27.0566 97.5059 26.6426C97.1426 26.2285 96.9609 25.748 96.9609 25.2012V25.0254H97.9336V25.2012ZM101.15 25.3711H93.498V24.4922H101.15V25.3711ZM97.3125 30.4629C98.0781 30.4629 98.7324 30.5312 99.2754 30.668C99.8184 30.8008 100.234 31 100.523 31.2656C100.812 31.5273 100.957 31.8477 100.957 32.2266C100.957 32.5977 100.812 32.9141 100.523 33.1758C100.234 33.4414 99.8184 33.6406 99.2754 33.7734C98.7324 33.9102 98.0781 33.9785 97.3125 33.9785C96.5469 33.9785 95.8926 33.9102 95.3496 33.7734C94.8066 33.6406 94.3906 33.4414 94.1016 33.1758C93.8125 32.9141 93.668 32.5977 93.668 32.2266C93.668 31.8477 93.8125 31.5273 94.1016 31.2656C94.3906 31 94.8066 30.8008 95.3496 30.668C95.8965 30.5312 96.5508 30.4629 97.3125 30.4629ZM97.3125 31.3125C96.7734 31.3125 96.3164 31.3477 95.9414 31.418C95.5703 31.4844 95.2871 31.5859 95.0918 31.7227C94.9004 31.8594 94.8047 32.0273 94.8047 32.2266C94.8047 32.418 94.9023 32.582 95.0977 32.7188C95.293 32.8516 95.5762 32.9512 95.9473 33.0176C96.3223 33.0879 96.7773 33.123 97.3125 33.123C97.8555 33.123 98.3125 33.0879 98.6836 33.0176C99.0586 32.9512 99.3418 32.8516 99.5332 32.7188C99.7246 32.582 99.8203 32.418 99.8203 32.2266C99.8203 32.0273 99.7246 31.8594 99.5332 31.7227C99.3418 31.5859 99.0605 31.4844 98.6895 31.418C98.3184 31.3477 97.8594 31.3125 97.3125 31.3125ZM112.5 29.8828H102.902V28.9805H112.5V29.8828ZM108.346 31.8047H107.232V29.4551H108.346V31.8047ZM111.434 33.7734H104.092V32.8594H111.434V33.7734ZM105.205 33.2168H104.092V30.9141H105.205V33.2168ZM105.27 25.084H110.121V23.8184H111.246V28.0547H104.168V23.8184H105.27V25.084ZM110.121 27.1699V25.9395H105.27V27.1699H110.121ZM118.471 26.1328H113.262V25.2246H118.471V26.1328ZM115.869 26.7598C116.314 26.7598 116.709 26.8652 117.053 27.0762C117.4 27.2832 117.672 27.5703 117.867 27.9375C118.066 28.3047 118.166 28.7207 118.166 29.1855C118.166 29.6543 118.066 30.0742 117.867 30.4453C117.672 30.8125 117.4 31.0977 117.053 31.3008C116.709 31.5039 116.314 31.6055 115.869 31.6055C115.436 31.6055 115.045 31.5039 114.697 31.3008C114.354 31.0977 114.084 30.8125 113.889 30.4453C113.693 30.0742 113.596 29.6543 113.596 29.1855C113.596 28.7207 113.693 28.3047 113.889 27.9375C114.084 27.5703 114.354 27.2832 114.697 27.0762C115.045 26.8652 115.436 26.7598 115.869 26.7598ZM115.869 27.7031C115.623 27.7031 115.402 27.7656 115.207 27.8906C115.012 28.0117 114.859 28.1855 114.75 28.4121C114.641 28.6348 114.586 28.8926 114.586 29.1855C114.586 29.4746 114.641 29.7324 114.75 29.959C114.859 30.1855 115.012 30.3613 115.207 30.4863C115.402 30.6113 115.623 30.6738 115.869 30.6738C116.119 30.6738 116.342 30.6113 116.537 30.4863C116.736 30.3613 116.893 30.1855 117.006 29.959C117.119 29.7324 117.176 29.4746 117.176 29.1855C117.176 28.8926 117.119 28.6348 117.006 28.4121C116.893 28.1855 116.736 28.0117 116.537 27.8906C116.342 27.7656 116.119 27.7031 115.869 27.7031ZM122.285 33.9902H121.219V23.4961H122.285V33.9902ZM121.564 28.7812H119.643V27.8672H121.564V28.7812ZM120.006 33.498H118.957V23.707H120.006V33.498ZM116.438 25.7871H115.33V23.7891H116.438V25.7871ZM127.049 31.957H125.936V28.875H127.049V31.957ZM130.945 31.957H129.832V28.875H130.945V31.957ZM133.254 32.6895H123.656V31.7578H133.254V32.6895ZM128.432 24.1113C129.186 24.1113 129.855 24.2246 130.441 24.4512C131.031 24.6777 131.49 24.998 131.818 25.4121C132.15 25.8262 132.316 26.3047 132.316 26.8477C132.316 27.3906 132.15 27.8691 131.818 28.2832C131.49 28.6934 131.031 29.0117 130.441 29.2383C129.855 29.4648 129.186 29.5781 128.432 29.5781C127.686 29.5781 127.02 29.4648 126.434 29.2383C125.848 29.0117 125.387 28.6934 125.051 28.2832C124.719 27.8691 124.553 27.3906 124.553 26.8477C124.553 26.3047 124.719 25.8262 125.051 25.4121C125.387 24.998 125.848 24.6777 126.434 24.4512C127.02 24.2246 127.686 24.1113 128.432 24.1113ZM128.432 24.9961C127.889 24.9961 127.406 25.0723 126.984 25.2246C126.566 25.377 126.238 25.5938 126 25.875C125.762 26.1523 125.643 26.4766 125.643 26.8477C125.643 27.2188 125.762 27.5449 126 27.8262C126.238 28.1035 126.566 28.3184 126.984 28.4707C127.406 28.6191 127.889 28.6934 128.432 28.6934C128.982 28.6934 129.467 28.6191 129.885 28.4707C130.307 28.3184 130.635 28.1035 130.869 27.8262C131.107 27.5449 131.227 27.2188 131.227 26.8477C131.227 26.4766 131.107 26.1523 130.869 25.875C130.635 25.5938 130.307 25.377 129.885 25.2246C129.467 25.0723 128.982 24.9961 128.432 24.9961ZM134.848 30.2402V24.5156H136.125V30.2402H134.848ZM135.486 33.1055C135.326 33.1055 135.182 33.0703 135.053 33C134.928 32.9297 134.828 32.832 134.754 32.707C134.684 32.582 134.648 32.4414 134.648 32.2852C134.648 32.1289 134.684 31.9883 134.754 31.8633C134.828 31.7383 134.928 31.6406 135.053 31.5703C135.182 31.5 135.326 31.4648 135.486 31.4648C135.646 31.4648 135.789 31.5 135.914 31.5703C136.043 31.6406 136.143 31.7383 136.213 31.8633C136.287 31.9883 136.324 32.1289 136.324 32.2852C136.324 32.4414 136.287 32.582 136.213 32.707C136.143 32.832 136.043 32.9297 135.914 33C135.789 33.0703 135.646 33.1055 135.486 33.1055Z" fill="#1F79FF"/>
<path d="M33.4254 47.4972V48.884H28.3149V47.4972H33.4254ZM34.3812 52.2707V53.674H21.4696V52.2707H34.3812ZM28.7293 49.5249V52.9227H27.011V49.5249H28.7293ZM33.2983 42.5028V43.895H30.0552V48.2265H28.3149V42.5028H33.2983ZM27.442 42.5083V43.9061H24.2431V48.1271H22.5028V42.5083H27.442ZM23.3702 47.4641C24.1878 47.4715 24.9208 47.4512 25.5691 47.4033C26.2173 47.3517 26.8766 47.256 27.547 47.116L27.674 48.547C27.2099 48.6464 26.7514 48.7219 26.2983 48.7735C25.8453 48.8214 25.3978 48.8527 24.9558 48.8674C24.5175 48.8785 23.989 48.884 23.3702 48.884H22.5028V47.4641H23.3702ZM46.4414 41.2707V49.768H44.6955V41.2707H46.4414ZM48.4138 44.8011V46.2155H45.9552V44.8011H48.4138ZM46.4414 50.4254V55.3812H44.6955V51.8177H37.027V50.4254H46.4414ZM37.4966 42.1547V44.1492H40.7895V42.1547H42.5243V48.9448H35.7784V42.1547H37.4966ZM37.4966 47.5635H40.7895V45.5083H37.4966V47.5635ZM60.8772 41.2707V55.4144H59.1259V41.2707H60.8772ZM53.2695 42.2928C53.973 42.2965 54.6028 42.5046 55.159 42.9171C55.7189 43.326 56.1553 43.9061 56.4684 44.6575C56.7852 45.4088 56.9435 46.2836 56.9435 47.2818C56.9435 48.2873 56.7852 49.1676 56.4684 49.9227C56.1553 50.6777 55.7189 51.2615 55.159 51.674C54.6028 52.0829 53.973 52.2855 53.2695 52.2818C52.555 52.2855 51.9178 52.0829 51.3579 51.674C50.7981 51.2615 50.3597 50.6777 50.043 49.9227C49.7299 49.1676 49.5752 48.2873 49.5789 47.2818C49.5752 46.2836 49.7299 45.407 50.043 44.6519C50.3597 43.8969 50.7981 43.3168 51.3579 42.9116C51.9214 42.5028 52.5586 42.2965 53.2695 42.2928ZM53.2695 43.8619C52.868 43.8619 52.5144 43.9982 52.2087 44.2707C51.9067 44.5433 51.671 44.9374 51.5016 45.453C51.3358 45.965 51.2529 46.5746 51.2529 47.2818C51.2529 47.9926 51.3358 48.6077 51.5016 49.1271C51.671 49.6427 51.9067 50.0368 52.2087 50.3094C52.5144 50.5783 52.868 50.7127 53.2695 50.7127C53.6636 50.7127 54.0098 50.5783 54.3082 50.3094C54.6102 50.0368 54.8441 49.6427 55.0098 49.1271C55.1793 48.6077 55.264 47.9926 55.264 47.2818C55.264 46.5746 55.1793 45.965 55.0098 45.453C54.8441 44.9374 54.6102 44.5433 54.3082 44.2707C54.0098 43.9982 53.6636 43.8619 53.2695 43.8619ZM78.5022 41.2707V55.4144H76.7509V41.2707H78.5022ZM70.8945 42.2928C71.598 42.2965 72.2278 42.5046 72.784 42.9171C73.3439 43.326 73.7803 43.9061 74.0934 44.6575C74.4102 45.4088 74.5685 46.2836 74.5685 47.2818C74.5685 48.2873 74.4102 49.1676 74.0934 49.9227C73.7803 50.6777 73.3439 51.2615 72.784 51.674C72.2278 52.0829 71.598 52.2855 70.8945 52.2818C70.18 52.2855 69.5428 52.0829 68.9829 51.674C68.4231 51.2615 67.9847 50.6777 67.668 49.9227C67.3549 49.1676 67.2002 48.2873 67.2039 47.2818C67.2002 46.2836 67.3549 45.407 67.668 44.6519C67.9847 43.8969 68.4231 43.3168 68.9829 42.9116C69.5464 42.5028 70.1836 42.2965 70.8945 42.2928ZM70.8945 43.8619C70.493 43.8619 70.1394 43.9982 69.8337 44.2707C69.5317 44.5433 69.296 44.9374 69.1266 45.453C68.9608 45.965 68.8779 46.5746 68.8779 47.2818C68.8779 47.9926 68.9608 48.6077 69.1266 49.1271C69.296 49.6427 69.5317 50.0368 69.8337 50.3094C70.1394 50.5783 70.493 50.7127 70.8945 50.7127C71.2886 50.7127 71.6348 50.5783 71.9332 50.3094C72.2352 50.0368 72.4691 49.6427 72.6348 49.1271C72.8043 48.6077 72.889 47.9926 72.889 47.2818C72.889 46.5746 72.8043 45.965 72.6348 45.453C72.4691 44.9374 72.2352 44.5433 71.9332 44.2707C71.6348 43.9982 71.2886 43.8619 70.8945 43.8619ZM85.3248 46.0221V48.6354H83.5735V46.0221H85.3248ZM90.4022 46.0221V48.6354H88.6729V46.0221H90.4022ZM93.4464 48.0608V49.453H80.579V48.0608H93.4464ZM86.9934 50.3039C88.0099 50.3039 88.8829 50.4015 89.6121 50.5967C90.3451 50.7919 90.9068 51.0773 91.2972 51.453C91.6913 51.8287 91.8884 52.2855 91.8884 52.8232C91.8884 53.3683 91.6913 53.8287 91.2972 54.2044C90.9068 54.5838 90.3451 54.8711 89.6121 55.0663C88.8829 55.2615 88.0099 55.3591 86.9934 55.3591C85.9694 55.3591 85.0873 55.2615 84.3469 55.0663C83.6103 54.8711 83.0468 54.5838 82.6563 54.2044C82.2696 53.8287 82.0762 53.3683 82.0762 52.8232C82.0762 52.2855 82.2714 51.8287 82.6619 51.453C83.0523 51.0773 83.6158 50.7919 84.3525 50.5967C85.0891 50.4015 85.9694 50.3039 86.9934 50.3039ZM86.9934 51.6188C86.3083 51.6225 85.73 51.6703 85.2585 51.7624C84.7908 51.8545 84.4372 51.9908 84.1978 52.1713C83.9584 52.3481 83.8405 52.5654 83.8442 52.8232C83.8405 53.0884 83.9584 53.3131 84.1978 53.4972C84.4372 53.6777 84.7908 53.8158 85.2585 53.9116C85.73 54.0037 86.3083 54.0479 86.9934 54.0442C87.6711 54.0479 88.2438 54.0037 88.7116 53.9116C89.1794 53.8158 89.5348 53.6777 89.7779 53.4972C90.0247 53.3131 90.1499 53.0884 90.1536 52.8232C90.1499 52.5654 90.0247 52.3481 89.7779 52.1713C89.5348 51.9908 89.1794 51.8545 88.7116 51.7624C88.2475 51.6703 87.6748 51.6225 86.9934 51.6188ZM87.0044 41.4972C88.0357 41.4972 88.9326 41.6059 89.695 41.8232C90.4611 42.0368 91.0504 42.3444 91.463 42.7459C91.8792 43.1473 92.0873 43.6262 92.0873 44.1823C92.0873 44.7348 91.881 45.2099 91.4685 45.6077C91.056 46.0055 90.4666 46.3076 89.7005 46.5138C88.9381 46.7201 88.0394 46.8232 87.0044 46.8232C85.9657 46.8232 85.0633 46.7201 84.2972 46.5138C83.5311 46.3076 82.9418 46.0055 82.5293 45.6077C82.1167 45.2099 81.9123 44.7348 81.916 44.1823C81.9123 43.6262 82.1167 43.1473 82.5293 42.7459C82.9418 42.3444 83.5311 42.0368 84.2972 41.8232C85.067 41.6059 85.9694 41.4972 87.0044 41.4972ZM87.0044 42.8398C86.3083 42.8398 85.7134 42.8932 85.2199 43C84.73 43.1031 84.3562 43.256 84.0983 43.4586C83.8405 43.6575 83.7134 43.8987 83.7171 44.1823C83.7134 44.4696 83.8405 44.7127 84.0983 44.9116C84.3562 45.1068 84.73 45.256 85.2199 45.3591C85.7097 45.4586 86.3046 45.5083 87.0044 45.5083C87.7005 45.5083 88.2935 45.4586 88.7834 45.3591C89.277 45.256 89.6527 45.1068 89.9105 44.9116C90.172 44.7127 90.3027 44.4696 90.3027 44.1823C90.3027 43.8987 90.172 43.6575 89.9105 43.4586C89.649 43.256 89.2714 43.1031 88.7779 43C88.288 42.8932 87.6969 42.8398 87.0044 42.8398ZM109.265 41.2707V55.3591H107.524V41.2707H109.265ZM111.359 46.7845V48.2265H108.817V46.7845H111.359ZM105.535 42.7348C105.532 44.175 105.314 45.5157 104.884 46.7569C104.456 47.9982 103.766 49.1363 102.812 50.1713C101.861 51.2026 100.628 52.0921 99.1101 52.8398L98.1322 51.5028C99.4102 50.8619 100.469 50.1271 101.309 49.2983C102.149 48.4696 102.779 47.5359 103.198 46.4972C103.618 45.4586 103.828 44.3076 103.828 43.0442V42.7348H105.535ZM104.712 42.7348V44.1657H98.8835V42.7348H104.712ZM123.783 41.2707V55.4144H122.032V41.2707H123.783ZM116.176 42.2928C116.879 42.2965 117.509 42.5046 118.065 42.9171C118.625 43.326 119.062 43.9061 119.375 44.6575C119.691 45.4088 119.85 46.2836 119.85 47.2818C119.85 48.2873 119.691 49.1676 119.375 49.9227C119.062 50.6777 118.625 51.2615 118.065 51.674C117.509 52.0829 116.879 52.2855 116.176 52.2818C115.461 52.2855 114.824 52.0829 114.264 51.674C113.704 51.2615 113.266 50.6777 112.949 49.9227C112.636 49.1676 112.481 48.2873 112.485 47.2818C112.481 46.2836 112.636 45.407 112.949 44.6519C113.266 43.8969 113.704 43.3168 114.264 42.9116C114.828 42.5028 115.465 42.2965 116.176 42.2928ZM116.176 43.8619C115.774 43.8619 115.421 43.9982 115.115 44.2707C114.813 44.5433 114.577 44.9374 114.408 45.453C114.242 45.965 114.159 46.5746 114.159 47.2818C114.159 47.9926 114.242 48.6077 114.408 49.1271C114.577 49.6427 114.813 50.0368 115.115 50.3094C115.421 50.5783 115.774 50.7127 116.176 50.7127C116.57 50.7127 116.916 50.5783 117.214 50.3094C117.516 50.0368 117.75 49.6427 117.916 49.1271C118.086 48.6077 118.17 47.9926 118.17 47.2818C118.17 46.5746 118.086 45.965 117.916 45.453C117.75 44.9374 117.516 44.5433 117.214 44.2707C116.916 43.9982 116.57 43.8619 116.176 43.8619ZM137.324 47.884V49.2873H127.424V47.884H137.324ZM138.772 52.1602V53.5967H125.86V52.1602H138.772ZM137.214 42.4972V43.9061H129.142V48.4917H127.424V42.4972H137.214ZM148.192 42.7348C148.189 43.6409 148.034 44.4788 147.728 45.2486C147.423 46.0184 146.97 46.6832 146.369 47.2431C145.769 47.8029 145.043 48.2247 144.192 48.5083L143.336 47.1215C144.073 46.8858 144.699 46.5488 145.215 46.1105C145.73 45.6722 146.119 45.1657 146.38 44.5912C146.642 44.0129 146.774 43.3941 146.778 42.7348V41.7624H148.192V42.7348ZM148.518 42.7293C148.515 43.3333 148.638 43.9042 148.889 44.442C149.139 44.9761 149.515 45.4457 150.016 45.8508C150.52 46.256 151.13 46.5635 151.844 46.7735L150.949 48.1215C150.124 47.86 149.424 47.4678 148.85 46.9448C148.275 46.418 147.841 45.7956 147.546 45.0773C147.255 44.3591 147.111 43.5764 147.115 42.7293V41.7624H148.518V42.7293ZM154.629 41.2707V48.5691H152.883V41.2707H154.629ZM156.601 44.1381V45.5691H153.889V44.1381H156.601ZM154.629 49.1381V52.779H147.121V54.663H145.408V51.5138H152.894V50.4917H145.386V49.1381H154.629ZM155.071 53.884V55.2652H145.408V53.884H155.071ZM165.402 42.5635V43.9669H157.617V42.5635H165.402ZM157.236 50.7459C158.901 50.7422 160.435 50.7164 161.838 50.6685C163.242 50.6206 164.56 50.5249 165.794 50.3812L165.899 51.6575C164.636 51.8637 163.304 52.0018 161.905 52.0718C160.509 52.1381 159.008 52.1731 157.402 52.1768L157.236 50.7459ZM160.606 43.7238V51.0055H158.905V43.7238H160.606ZM164.037 43.7238V51.0055H162.347V43.7238H164.037ZM169.153 41.2707V55.3812H167.429V41.2707H169.153ZM168.706 44.8177V46.232H165.208V44.8177H168.706ZM168.706 48.0276V49.4254H165.208V48.0276H168.706ZM184.053 52.2652V53.6851H171.141V52.2652H184.053ZM178.429 49.0939V52.6409H176.705V49.0939H178.429ZM174.302 42.2044V44.5138H180.843V42.2044H182.572V49.5138H172.561V42.2044H174.302ZM174.302 48.116H180.843V45.9061H174.302V48.116ZM196.76 41.2707V55.3812H195.008V41.2707H196.76ZM192.55 42.768C192.55 44.2413 192.338 45.593 191.914 46.8232C191.491 48.0497 190.793 49.1768 189.82 50.2044C188.852 51.232 187.57 52.1271 185.975 52.8895L185.064 51.4972C186.415 50.8527 187.515 50.1179 188.362 49.2928C189.213 48.4678 189.835 47.5433 190.229 46.5193C190.627 45.4954 190.828 44.3425 190.831 43.0608V42.768H192.55ZM191.616 42.768V44.1436H185.782V42.768H191.616Z" fill="#1A1A1A"/>
</svg>
