<svg width="16" height="16" viewBox="0 0 16 16" fill="none" xmlns="http://www.w3.org/2000/svg">
<path d="M15.9518 5.94965C15.9382 6.19369 15.8659 6.43086 15.741 6.64095C15.6231 6.84953 15.4622 7.03059 15.2689 7.17208C15.1847 7.23325 15.0858 7.27106 14.9822 7.28168L13.4985 7.47558C13.3339 7.50362 13.1813 7.57991 13.0601 7.69478C12.6133 8.12474 12.158 8.53784 11.5341 9.19543L10.8175 9.90359C10.7244 10.0003 10.6576 10.1193 10.6236 10.2492L9.83116 13.436C9.83454 13.4696 9.83454 13.5035 9.83116 13.5372C9.72137 13.7843 9.55376 14.0014 9.34247 14.1701C9.13119 14.3388 8.88242 14.4543 8.61715 14.5067H8.31365C8.14845 14.5051 7.98413 14.4825 7.82468 14.4393C7.56643 14.3601 7.33182 14.2181 7.1418 14.0262L5.00043 11.8932L1.06334 15.8303C0.943482 15.942 0.784947 16.0028 0.62114 15.9999C0.457333 15.997 0.301042 15.9307 0.185195 15.8148C0.0693476 15.699 0.0029887 15.5427 9.85089e-05 15.3789C-0.00279168 15.2151 0.0580124 15.0565 0.169701 14.9367L4.10679 10.9996L1.99914 8.89192C1.81068 8.69734 1.67187 8.46021 1.59447 8.20061C1.50885 7.94226 1.49429 7.66563 1.55232 7.39971C1.60184 7.1376 1.71472 6.89159 1.88111 6.68311C2.04964 6.47179 2.26649 6.30409 2.5134 6.19413H2.61457L5.76761 5.35107C5.90729 5.31379 6.03503 5.24121 6.13856 5.14031C7.31041 3.98532 7.71508 3.58065 8.3558 2.88934C8.46487 2.77387 8.53299 2.62577 8.54971 2.46781L8.75204 0.975598C8.76119 0.869132 8.79907 0.767148 8.86164 0.680527C9.0773 0.390266 9.38057 0.177027 9.72668 0.0722836C10.0728 -0.0324597 10.4434 -0.0231578 10.7838 0.0988163C11.0117 0.182853 11.2188 0.31514 11.3908 0.486624L15.5049 4.61761C15.6735 4.78865 15.8035 4.99371 15.8864 5.21907C15.9693 5.44443 16.0031 5.68489 15.9855 5.92436L15.9518 5.94965Z" fill="#1F79FF"/>
</svg>
