<svg width="20" height="20" viewBox="0 0 20 20" fill="none" xmlns="http://www.w3.org/2000/svg">
<circle cx="10" cy="10" r="10" fill="#9E9E9E"/>
<g clip-path="url(#clip0_1393_211)">
<path d="M10.0004 10.6999L6.50039 14.1999C6.40039 14.2999 6.28372 14.3499 6.15039 14.3499C6.01706 14.3499 5.90039 14.2999 5.80039 14.1999C5.70039 14.0999 5.65039 13.9832 5.65039 13.8499C5.65039 13.7166 5.70039 13.5999 5.80039 13.4999L9.30039 9.9999L5.80039 6.4999C5.70039 6.3999 5.65039 6.28324 5.65039 6.1499C5.65039 6.01657 5.70039 5.8999 5.80039 5.7999C5.90039 5.6999 6.01706 5.6499 6.15039 5.6499C6.28372 5.6499 6.40039 5.6999 6.50039 5.7999L10.0004 9.2999L13.5004 5.7999C13.6004 5.6999 13.7171 5.6499 13.8504 5.6499C13.9837 5.6499 14.1004 5.6999 14.2004 5.7999C14.3004 5.8999 14.3504 6.01657 14.3504 6.1499C14.3504 6.28324 14.3004 6.3999 14.2004 6.4999L10.7004 9.9999L14.2004 13.4999C14.3004 13.5999 14.3504 13.7166 14.3504 13.8499C14.3504 13.9832 14.3004 14.0999 14.2004 14.1999C14.1004 14.2999 13.9837 14.3499 13.8504 14.3499C13.7171 14.3499 13.6004 14.2999 13.5004 14.1999L10.0004 10.6999Z" fill="#F8F8F8" stroke="#F8F8F8" stroke-width="0.5"/>
</g>
<defs>
<clipPath id="clip0_1393_211">
<rect width="10" height="10" fill="white" transform="translate(5 5)"/>
</clipPath>
</defs>
</svg>
