<svg width="353" height="130" viewBox="0 0 353 130" fill="none" xmlns="http://www.w3.org/2000/svg">
<g clip-path="url(#clip0_764_1999)">
<rect width="353" height="130" rx="10" fill="#EFEFEF"/>
<path d="M128.837 43C151.929 43 172.325 54.5385 184.577 72.1641C196.876 59.7151 213.955 52 232.837 52C257.39 52 278.896 65.0445 290.804 84.5811H298.412V94.7441C303.115 93.7127 308 93.1689 313.012 93.1689C350.477 93.169 380.849 123.541 380.849 161.006C380.849 198.471 350.477 228.843 313.012 228.843C308 228.843 303.115 228.298 298.412 227.267V237H81.1621V229.375C74.1707 231.811 66.6585 233.136 58.8369 233.136C21.3717 233.136 -8.99985 202.764 -9 165.299C-9 127.834 21.3716 97.462 58.8369 97.4619C59.9988 97.4619 61.1542 97.4901 62.3018 97.5479C68.4792 66.4453 95.9198 43 128.837 43Z" fill="url(#paint0_linear_764_1999)"/>
<path d="M39.2831 22.1022V32.1022H37.1077V22.1022H39.2831ZM39.2831 32.9586V39.5193H27.5773V32.9586H39.2831ZM29.7182 34.6851V37.7652H37.1561V34.6851H29.7182ZM29.663 22.9517C30.5654 22.9517 31.378 23.1289 32.1008 23.4834C32.8237 23.8379 33.39 24.3352 33.7997 24.9751C34.2095 25.6151 34.4144 26.3448 34.4144 27.1644C34.4144 27.9609 34.2072 28.6791 33.7928 29.3191C33.3785 29.9544 32.8099 30.4517 32.087 30.8108C31.3688 31.1653 30.5608 31.3425 29.663 31.3425C28.7652 31.3425 27.9526 31.1653 27.2251 30.8108C26.5023 30.4517 25.9337 29.9544 25.5193 29.3191C25.1096 28.6791 24.9047 27.9609 24.9047 27.1644C24.9047 26.3448 25.1096 25.6151 25.5193 24.9751C25.9337 24.3352 26.5023 23.8379 27.2251 23.4834C27.948 23.1289 28.7606 22.9517 29.663 22.9517ZM29.663 24.7818C29.1473 24.7772 28.6892 24.8715 28.2887 25.0649C27.8927 25.2583 27.582 25.5368 27.3564 25.9006C27.1354 26.2643 27.0249 26.6855 27.0249 27.1644C27.0249 27.6294 27.1354 28.0391 27.3564 28.3936C27.582 28.7482 27.895 29.0244 28.2956 29.2224C28.6961 29.4157 29.1519 29.5101 29.663 29.5055C30.1648 29.5101 30.6137 29.4157 31.0097 29.2224C31.4056 29.0244 31.7164 28.7482 31.942 28.3936C32.1676 28.0391 32.2804 27.6294 32.2804 27.1644C32.2804 26.6855 32.1676 26.2643 31.942 25.9006C31.7164 25.5368 31.4056 25.2583 31.0097 25.0649C30.6183 24.8715 30.1694 24.7772 29.663 24.7818ZM57.0586 22.0884V39.7265H55.0006V22.0884H57.0586ZM55.5186 28.9876V30.7417H52.3763V28.9876H55.5186ZM53.0117 22.4199V38.8494H51.0158V22.4199H53.0117ZM43.6194 33.7873C44.9546 33.7873 46.0895 33.7574 47.0241 33.6975C47.9587 33.6377 48.9141 33.5134 49.8901 33.3246L50.0628 35.1064C49.0683 35.3043 48.0922 35.4355 47.1346 35.5C46.1816 35.5645 45.0098 35.6013 43.6194 35.6105H42.4178V33.7873H43.6194ZM49.0131 24.174V25.9213H44.5932V34.6575H42.4178V24.174H49.0131ZM64.9377 27.6892C64.9331 28.9369 64.7374 30.1409 64.3507 31.3011C63.964 32.4567 63.4046 33.4834 62.6725 34.3812C61.9451 35.279 61.0818 35.9512 60.0827 36.3978L58.8742 34.7196C59.7766 34.3191 60.5547 33.7436 61.2084 32.9931C61.8668 32.2426 62.3664 31.4093 62.7071 30.4931C63.0478 29.5723 63.2204 28.6377 63.225 27.6892V26.4945H64.9377V27.6892ZM65.3728 27.6892C65.3682 28.5778 65.5293 29.4618 65.8562 30.3412C66.1831 31.2159 66.6619 32.0147 67.2927 32.7376C67.928 33.4558 68.6854 34.0244 69.5648 34.4434L68.3493 36.0939C67.3779 35.6427 66.5376 34.982 65.8286 34.1119C65.1242 33.2417 64.5878 32.2495 64.2195 31.1354C63.8558 30.0212 63.6762 28.8725 63.6808 27.6892V26.4945H65.3728V27.6892ZM69.1021 25.0304V26.7638H59.4543V25.0304H69.1021ZM65.3935 22.4613V25.9627H63.2112V22.4613H65.3935ZM72.9833 22.0884V39.7265H70.8079V22.0884H72.9833ZM75.7043 29.0635V30.8936H72.5068V29.0635H75.7043ZM87.0571 26.826V28.5939H83.3209V26.826H87.0571ZM87.0019 31.232V32.9931H83.2035V31.232H87.0019ZM91.6635 22.0884V39.7265H89.6124V22.0884H91.6635ZM88.024 22.5166V38.9047H85.9591V22.5166H88.024ZM84.0875 24.2362C84.0829 25.9167 83.8665 27.4636 83.4383 28.8771C83.0102 30.2905 82.3127 31.6004 81.3458 32.8066C80.3789 34.0083 79.1105 35.0764 77.5406 36.011L76.256 34.471C77.6096 33.6699 78.7054 32.779 79.5433 31.7983C80.3859 30.8177 81.0028 29.7426 81.3941 28.5732C81.7855 27.3992 81.9835 26.0962 81.9881 24.6644V24.2362H84.0875ZM82.7477 24.2362V25.9972H77.2022V24.2362H82.7477ZM110.047 24.547V26.308H106.987V24.547H110.047ZM110.047 28.3384V30.1478H106.987V28.3384H110.047ZM107.657 22.0884V32.5166H105.475V22.0884H107.657ZM107.657 33.2624V39.7265H105.475V35.0304H95.8892V33.2624H107.657ZM98.6862 23.0898C99.584 23.0852 100.392 23.2647 101.11 23.6285C101.833 23.9922 102.402 24.4986 102.816 25.1478C103.23 25.7924 103.44 26.5221 103.444 27.337C103.44 28.1611 103.23 28.8978 102.816 29.547C102.406 30.1961 101.84 30.7026 101.117 31.0663C100.394 31.4254 99.584 31.605 98.6862 31.605C97.7838 31.605 96.9689 31.4254 96.2415 31.0663C95.5186 30.7026 94.95 30.1961 94.5357 29.547C94.1213 28.8978 93.9164 28.1611 93.921 27.337C93.9164 26.5221 94.1213 25.7924 94.5357 25.1478C94.95 24.4986 95.5209 23.9922 96.2484 23.6285C96.9758 23.2647 97.7884 23.0852 98.6862 23.0898ZM98.6862 24.9406C98.1798 24.9452 97.724 25.0465 97.3188 25.2445C96.9182 25.4378 96.6052 25.7164 96.3796 26.0801C96.1586 26.4392 96.0504 26.8582 96.055 27.337C96.0504 27.8296 96.1586 28.2601 96.3796 28.6285C96.6052 28.9922 96.9182 29.273 97.3188 29.471C97.724 29.669 98.1798 29.7657 98.6862 29.761C99.188 29.7657 99.6369 29.669 100.033 29.471C100.433 29.273 100.749 28.9922 100.979 28.6285C101.209 28.2601 101.324 27.8296 101.324 27.337C101.324 26.8582 101.209 26.4392 100.979 26.0801C100.749 25.7164 100.433 25.4378 100.033 25.2445C99.6369 25.0465 99.188 24.9452 98.6862 24.9406ZM124.742 27.7928V29.547H119.963V27.7928H124.742ZM117.09 26.3287C117.09 27.7606 116.899 29.1211 116.517 30.4102C116.139 31.6994 115.582 32.8458 114.846 33.8494C114.114 34.8485 113.234 35.6059 112.208 36.1215L110.84 34.3605C111.77 33.9277 112.571 33.2924 113.243 32.4544C113.92 31.6119 114.436 30.6611 114.79 29.6022C115.145 28.5433 115.324 27.4521 115.329 26.3287V23.5041H117.09V26.3287ZM117.532 26.3287C117.532 27.4429 117.702 28.511 118.043 29.5331C118.388 30.5552 118.89 31.4669 119.549 32.268C120.212 33.0645 121.001 33.663 121.917 34.0635L120.598 35.797C119.576 35.2951 118.702 34.57 117.974 33.6215C117.251 32.6685 116.706 31.5704 116.337 30.3273C115.969 29.0843 115.787 27.7514 115.792 26.3287V23.5041H117.532V26.3287ZM125.813 22.0884V39.768H123.658V22.0884H125.813Z" fill="#1A1A1A"/>
<path opacity="0.7" d="M34.6367 52.9258V60.0762H33.3242V59.5156H30.9453V58.6953H33.3242V52.9258H34.6367ZM24.4238 57.4375C26.7139 57.4307 29.79 57.417 32.4219 57.1367L32.5039 57.9707C31.3623 58.1348 30.1729 58.2373 28.9766 58.2852V60.1172H27.6641V58.3398C26.625 58.374 25.5859 58.374 24.5742 58.3672L24.4238 57.4375ZM34.6367 60.5137V63.1523H27.582V64.0957H35.0195V65.0391H26.2832V62.291H33.3516V61.4297H26.2559V60.5137H34.6367ZM28.3887 53.1309C30.2275 53.1377 31.4443 53.835 31.4512 54.9766C31.4443 56.0977 30.2275 56.8018 28.3887 56.7949C26.543 56.8018 25.3262 56.0977 25.3262 54.9766C25.3262 53.835 26.543 53.1377 28.3887 53.1309ZM28.3887 54.0195C27.2676 54.0195 26.5498 54.3818 26.543 54.9766C26.5498 55.5576 27.2676 55.9199 28.3887 55.9199C29.5029 55.9199 30.2139 55.5576 30.2207 54.9766C30.2139 54.3818 29.5029 54.0195 28.3887 54.0195ZM40.2832 56.2344C40.2832 58.2031 41.0967 60.2812 42.7441 61.293L42.0059 62.3047C40.8711 61.6143 40.0986 60.3906 39.6816 58.9688C39.2168 60.5889 38.3418 61.874 37.1797 62.5781L36.373 61.5938C38.1094 60.5752 39.0254 58.3877 39.0254 56.3027V54.0332H40.2832V56.2344ZM47.0781 52.9121V65.1484H45.8203V52.9121H47.0781ZM44.5488 53.1445V64.5605H43.3184V58.2988H41.418V57.2188H43.3184V53.1445H44.5488ZM50.9062 62.5098L49.7031 65.9688H48.5L49.4434 62.5098H50.9062ZM66.0137 52.9258V61.8809H64.6875V57.3008H62.377V56.2344H64.6875V52.9258H66.0137ZM66.3281 63.8359V64.9023H58.043V61.1016H59.3555V63.8359H66.3281ZM60.1758 55.373C60.1826 56.9316 61.29 58.4561 63.1289 59.0918L62.4727 60.1035C61.0918 59.625 60.0801 58.6406 59.5469 57.4238C59.0137 58.7773 57.9336 59.8574 56.4707 60.377L55.8008 59.3379C57.6943 58.6885 58.8701 57.0752 58.8633 55.3867V54.9219H56.1973V53.8691H62.8008V54.9219H60.1758V55.373ZM71.6328 56.2344C71.6328 58.2031 72.4463 60.2812 74.0938 61.293L73.3555 62.3047C72.2207 61.6143 71.4482 60.3906 71.0312 58.9688C70.5664 60.5889 69.6914 61.874 68.5293 62.5781L67.7227 61.5938C69.459 60.5752 70.375 58.3877 70.375 56.3027V54.0332H71.6328V56.2344ZM78.4277 52.9121V65.1484H77.1699V52.9121H78.4277ZM75.8984 53.1445V64.5605H74.668V58.2988H72.7676V57.2188H74.668V53.1445H75.8984ZM82.2559 62.5098L81.0527 65.9688H79.8496L80.793 62.5098H82.2559ZM96.7617 52.9258V56.5488H98.5391V57.6289H96.7617V61.9082H95.4629V52.9258H96.7617ZM97.2949 63.8359V64.9023H89.0098V61.0469H90.3086V63.8359H97.2949ZM88.9004 53.7871V55.7559H92.0996V53.7871H93.3848V59.9121H87.6152V53.7871H88.9004ZM88.9004 58.8594H92.0996V56.7676H88.9004V58.8594ZM109.463 52.9258V61.8809H108.137V57.3008H105.826V56.2344H108.137V52.9258H109.463ZM109.777 63.8359V64.9023H101.492V61.1016H102.805V63.8359H109.777ZM103.625 55.373C103.632 56.9316 104.739 58.4561 106.578 59.0918L105.922 60.1035C104.541 59.625 103.529 58.6406 102.996 57.4238C102.463 58.7773 101.383 59.8574 99.9199 60.377L99.25 59.3379C101.144 58.6885 102.319 57.0752 102.312 55.3867V54.9219H99.6465V53.8691H106.25V54.9219H103.625V55.373ZM115.082 56.2344C115.082 58.2031 115.896 60.2812 117.543 61.293L116.805 62.3047C115.67 61.6143 114.897 60.3906 114.48 58.9688C114.016 60.5889 113.141 61.874 111.979 62.5781L111.172 61.5938C112.908 60.5752 113.824 58.3877 113.824 56.3027V54.0332H115.082V56.2344ZM121.877 52.9121V65.1484H120.619V52.9121H121.877ZM119.348 53.1445V64.5605H118.117V58.2988H116.217V57.2188H118.117V53.1445H119.348ZM138.092 58.668V59.748H126.922V58.668H138.092ZM136.793 56.5625V57.6016H128.316V53.3496H136.725V54.416H129.615V56.5625H136.793ZM132.486 60.6914C135.132 60.6982 136.731 61.5117 136.725 62.9199C136.731 64.3418 135.132 65.1416 132.486 65.1348C129.841 65.1416 128.234 64.3418 128.234 62.9199C128.234 61.5117 129.841 60.6982 132.486 60.6914ZM132.486 61.7031C130.627 61.71 129.554 62.1475 129.561 62.9199C129.554 63.7061 130.627 64.1299 132.486 64.1367C134.346 64.1299 135.412 63.7061 135.412 62.9199C135.412 62.1475 134.346 61.71 132.486 61.7031Z" fill="#1A1A1A"/>
<g clip-path="url(#clip1_764_1999)">
<path d="M296.274 67.8758C283.377 68.9186 275.63 83.3533 281.692 95.0948C287.999 107.309 304.847 108.495 312.648 97.1557C321.533 84.2405 311.617 66.6332 296.274 67.8758ZM302.932 93.8618C301.906 95.0755 300.643 95.4144 299.334 96.099C299.128 98.576 299.855 99.3888 296.931 99.1353C295.12 98.9783 296.609 96.989 295.811 96.2409C295.34 95.8015 291.924 95.7491 291.433 94.6553C291.227 94.1952 291.913 91.4813 292.303 91.3545C292.61 91.2553 294.477 92.1398 295.03 92.2789C296.32 92.604 298.573 92.852 299.468 91.619C301.367 89.0043 295.976 87.6873 294.464 86.7987C290.563 84.5105 290.37 79.4946 294.371 77.3235C294.805 77.0879 296.301 76.7476 296.301 76.1222V73.9593C296.417 73.575 298.676 73.7486 299.129 73.8092C299.678 74.3878 299.133 75.9486 299.607 76.3495C300.115 76.7807 302.68 76.7366 303.288 77.6362C303.558 78.0522 302.687 80.7717 302.518 80.8915C302.223 81.0995 300.437 80.2385 299.864 80.1256C298.569 79.8707 295.792 79.7412 295.868 81.7443C295.929 83.3285 299.508 84.2901 300.684 84.9142C303.989 86.6706 305.587 90.7208 302.932 93.859V93.8618Z" fill="#616161"/>
<path d="M260.472 66.5947C259.42 67.2422 257.742 69.3981 256.605 69.5869C254.583 69.9216 253.23 67.7202 254.481 66.0423L282.204 41.9877C283.076 41.1845 284.016 40.6528 285.187 41.2686L313.999 66.2723C314.759 67.6913 314.005 69.2728 312.491 69.591C309.727 66.9708 306.682 64.9402 303.015 63.8849C287.123 59.3057 272.262 73.8162 276.144 90.2456C276.456 91.5626 277.602 93.8219 277.699 94.8441C278.011 98.1105 277.712 102.247 273.72 102.617C271.938 102.782 266.924 102.826 265.313 102.414C263.181 101.869 260.47 99.2525 260.47 96.9133V66.5961L260.472 66.5947Z" fill="url(#paint1_linear_764_1999)"/>
</g>
</g>
<defs>
<linearGradient id="paint0_linear_764_1999" x1="185.924" y1="8.73792e-07" x2="185.924" y2="237" gradientUnits="userSpaceOnUse">
<stop stop-color="#EFEFEF"/>
<stop offset="1" stop-color="#D9D9D9"/>
</linearGradient>
<linearGradient id="paint1_linear_764_1999" x1="284.149" y1="41.0005" x2="284.149" y2="119.19" gradientUnits="userSpaceOnUse">
<stop stop-color="#535353"/>
<stop offset="1" stop-color="#EFEFEF"/>
</linearGradient>
<clipPath id="clip0_764_1999">
<rect width="353" height="130" rx="10" fill="white"/>
</clipPath>
<clipPath id="clip1_764_1999">
<rect width="62" height="64" fill="white" transform="translate(254 41)"/>
</clipPath>
</defs>
</svg>
