<svg width="12" height="13" viewBox="0 0 12 13" fill="none" xmlns="http://www.w3.org/2000/svg">
<g clip-path="url(#clip0_432_1946)">
<path d="M7.86856 6.49593L2.93718 1.56455C2.82237 1.44975 2.76498 1.30624 2.76498 1.13403C2.76498 0.961827 2.82237 0.813103 2.93718 0.687862C3.06243 0.562621 3.21115 0.5 3.38336 0.5C3.55556 0.5 3.70429 0.562621 3.82953 0.687862L8.98008 5.83841C9.07401 5.93234 9.14186 6.0367 9.1836 6.15152C9.22533 6.26633 9.24622 6.38111 9.24622 6.49593C9.24622 6.61074 9.22533 6.72553 9.1836 6.84034C9.14186 6.95516 9.07401 7.05951 8.98008 7.15345L3.81387 12.3197C3.68863 12.4449 3.54251 12.5049 3.37553 12.4997C3.20855 12.4945 3.06243 12.4292 2.93718 12.304C2.82237 12.1788 2.76238 12.0326 2.75715 11.8657C2.75192 11.6987 2.81194 11.5525 2.93718 11.4273L7.86856 6.49593Z" fill="#595F72"/>
</g>
<defs>
<clipPath id="clip0_432_1946">
<rect width="11.9986" height="12" fill="white" transform="translate(0.000976562 0.5)"/>
</clipPath>
</defs>
</svg>
