<svg width="353" height="99" viewBox="0 0 353 99" fill="none" xmlns="http://www.w3.org/2000/svg">
<rect width="353" height="99" rx="10" fill="#F8F8F8"/>
<path d="M65.8672 36.6562C65.8672 39.2812 67.1172 41.8594 69.3672 42.8438L68.3203 44.2344C66.7188 43.4531 65.5938 41.9531 64.9922 40.1094C64.375 42.0547 63.2266 43.6719 61.6016 44.5L60.5078 43.0938C62.8047 42.0156 64.0859 39.2969 64.1016 36.6562V34.4062H65.8672V36.6562ZM72.4922 33.2656V47.4062H70.7734V39.2344H67.8047V37.8281H70.7734V33.2656H72.4922ZM86.2266 33.2656V47.4062H84.4766V33.2656H86.2266ZM76.9609 34.4219V37.9531H80.3828V34.4219H82.1016V44.0781H75.2266V34.4219H76.9609ZM76.9609 42.6562H80.3828V39.3125H76.9609V42.6562ZM95.6016 35.2031C95.6016 37.3906 97.7422 39.5781 100.695 40.0938L99.9141 41.5469C97.5469 41.0469 95.6094 39.6172 94.6953 37.7188C93.7578 39.6016 91.8203 41.0391 89.4609 41.5469L88.6953 40.0938C91.6172 39.5625 93.7422 37.375 93.7578 35.2031V34.1562H95.6016V35.2031ZM101.211 44.1562V45.5938H88.3047V44.1562H101.211ZM114.32 33.2656V47.3906H112.648V33.2656H114.32ZM111.414 33.5156V46.7031H109.758V39.9844H108.414C108.25 42.7344 107.07 44.4375 105.32 44.4219C103.477 44.4375 102.273 42.4844 102.273 39.375C102.273 36.2656 103.477 34.3438 105.32 34.3438C107.031 34.3438 108.195 35.9375 108.398 38.5781H109.758V33.5156H111.414ZM105.32 35.9844C104.43 35.9688 103.867 37.1719 103.883 39.375C103.867 41.5781 104.43 42.7812 105.32 42.7656C106.258 42.7812 106.82 41.5781 106.82 39.375C106.82 37.1719 106.258 35.9688 105.32 35.9844ZM123.758 33.7188C125.898 33.7188 127.492 35.0469 127.508 36.9062C127.492 38.7812 125.898 40.0938 123.758 40.0938C121.602 40.0938 120.008 38.7812 120.008 36.9062C120.008 35.0469 121.602 33.7188 123.758 33.7188ZM123.758 35.1562C122.57 35.1562 121.695 35.8281 121.695 36.9062C121.695 38 122.57 38.6875 123.758 38.6875C124.945 38.6875 125.82 38 125.82 36.9062C125.82 35.8281 124.945 35.1562 123.758 35.1562ZM131.523 33.2656V40.4062H129.773V33.2656H131.523ZM131.523 41.0156V44.7031H123.883V45.8438H131.945V47.2188H122.18V43.4219H129.789V42.375H122.148V41.0156H131.523ZM138.93 36.6562C138.914 39.25 140.273 41.8438 142.57 42.8281L141.539 44.2188C139.914 43.4688 138.719 41.9688 138.07 40.125C137.422 42.1172 136.211 43.7422 134.492 44.5469L133.43 43.0938C135.789 42.0781 137.164 39.375 137.164 36.6562V34.4062H138.93V36.6562ZM145.336 33.2656V47.4062H143.586V33.2656H145.336ZM152.602 35.6875C152.602 37.4062 153.742 39.1406 155.93 39.875L155.055 41.2188C153.477 40.7031 152.359 39.6328 151.742 38.3125C151.125 39.7891 149.945 40.9766 148.273 41.5312L147.383 40.1562C149.633 39.4219 150.836 37.5469 150.836 35.7031V35.5156H147.898V34.125H155.523V35.5156H152.602V35.6875ZM159.242 42.3594V47.3906H157.508V43.75H149.617V42.3594H159.242ZM159.242 33.2656V41.6875H157.508V38.1875H155.102V36.7656H157.508V33.2656H159.242ZM173.008 33.2812V43.4844H171.258V33.2812H173.008ZM173.398 45.7031V47.1094H163.664V42.4531H165.414V45.7031H173.398ZM165.305 34.2031C167.445 34.2031 169.102 35.6875 169.102 37.7344C169.102 39.8281 167.445 41.2812 165.305 41.2812C163.148 41.2812 161.492 39.8281 161.492 37.7344C161.492 35.6875 163.148 34.2031 165.305 34.2031ZM165.305 35.7188C164.102 35.7188 163.18 36.5156 163.195 37.7344C163.18 38.9844 164.102 39.7656 165.305 39.7656C166.477 39.7656 167.398 38.9844 167.398 37.7344C167.398 36.5156 166.477 35.7188 165.305 35.7188ZM191.758 40.3281V41.7188H186.305V44.3125H184.586V41.7188H178.852V40.3281H191.758ZM190.102 33.9062V39.0156H180.492V33.9062H190.102ZM182.18 35.2656V37.6562H188.383V35.2656H182.18ZM190.336 45.7031V47.1094H180.414V43.0156H182.148V45.7031H190.336ZM204.852 33.2656V47.3906H203.195V33.2656H204.852ZM201.977 33.5312V46.7031H200.336V39.5938H198.305V38.1875H200.336V33.5312H201.977ZM197.055 37.125C197.055 39.5156 197.914 41.9062 199.93 43.0625L198.898 44.3438C197.594 43.5625 196.727 42.2188 196.242 40.6094C195.742 42.3516 194.844 43.8359 193.508 44.6719L192.445 43.375C194.492 42.1406 195.383 39.5781 195.383 37.125V36.1875H192.93V34.7812H199.336V36.1875H197.055V37.125ZM217.586 33.2656V38.7812H219.68V40.2344H217.586V47.3594H215.852V33.2656H217.586ZM213.852 34.7344C213.852 38.8906 212.133 42.5312 207.43 44.8438L206.445 43.5C209.883 41.7891 211.742 39.3828 212.102 36.1719H207.211V34.7344H213.852ZM226.352 33.8906V35.6875H229.648V33.8906H231.367V40.0469H224.633V33.8906H226.352ZM226.352 38.6719H229.648V37H226.352V38.6719ZM235.289 33.2656V36.125H237.258V37.5312H235.289V40.5H233.555V33.2656H235.289ZM235.289 41.0625V44.7656H227.789V45.8906H235.727V47.2656H226.07V43.5H233.555V42.4219H226.055V41.0625H235.289ZM242.383 35.8906C242.383 37.4219 243.273 38.9531 245.133 39.6562L244.211 40.9844C242.953 40.5 242.078 39.6016 241.57 38.5C241.055 39.7656 240.133 40.8438 238.789 41.4062L237.852 40.0781C239.789 39.2188 240.695 37.4531 240.711 35.8906V34.1406H242.383V35.8906ZM250.055 33.2812V41.9375H248.398V38.2656H246.992V41.5H245.367V33.5469H246.992V36.8438H248.398V33.2812H250.055ZM245.289 42.1719C248.242 42.1719 250.117 43.1406 250.133 44.7656C250.117 46.3906 248.242 47.375 245.289 47.375C242.305 47.375 240.445 46.3906 240.445 44.7656C240.445 43.1406 242.305 42.1719 245.289 42.1719ZM245.289 43.4844C243.336 43.4844 242.18 43.9375 242.18 44.7656C242.18 45.6094 243.336 46.0469 245.289 46.0469C247.227 46.0469 248.383 45.6094 248.383 44.7656C248.383 43.9375 247.227 43.4844 245.289 43.4844ZM263.883 33.2812V41.9844H262.227V38.4062H260.883V41.8125H259.258V33.4844H260.883V36.9844H262.227V33.2812H263.883ZM258.758 34.7188V36.0938H251.727V34.7188H254.398V33.3438H256.117V34.7188H258.758ZM255.258 36.625C257.055 36.6406 258.32 37.6094 258.336 39.0781C258.32 40.5312 257.055 41.5312 255.258 41.5312C253.492 41.5312 252.211 40.5312 252.227 39.0781C252.211 37.6094 253.492 36.6406 255.258 36.625ZM255.258 37.8906C254.383 37.8906 253.773 38.3125 253.773 39.0781C253.773 39.8125 254.367 40.2656 255.258 40.2656C256.148 40.2656 256.758 39.8125 256.758 39.0781C256.758 38.3125 256.148 37.8906 255.258 37.8906ZM257.07 42.7656C257.07 43.8594 257.594 44.9844 258.773 45.6875C259.969 44.9375 260.523 43.75 260.539 42.7656V42.4219H262.258V42.7656C262.258 44.1094 263.148 45.4062 264.992 45.9062L264.18 47.2188C262.797 46.7812 261.875 45.9062 261.383 44.8125C260.938 45.8906 260.109 46.8516 258.805 47.3438C257.477 46.875 256.641 45.9688 256.195 44.8906C255.68 45.9219 254.758 46.7734 253.445 47.2188L252.633 45.9062C254.445 45.3594 255.352 44.0312 255.352 42.7656V42.4219H257.07V42.7656ZM269.492 34.2969C271.406 34.2969 272.82 35.8906 273.07 38.4688H275.758V33.2656H277.477V47.4062H275.758V39.875H273.086C272.898 42.6016 271.461 44.2812 269.492 44.2812C267.367 44.2812 265.867 42.3594 265.867 39.2812C265.867 36.2344 267.367 34.2969 269.492 34.2969ZM269.492 35.8594C268.32 35.8594 267.523 37.125 267.539 39.2812C267.523 41.4531 268.32 42.7188 269.492 42.7188C270.664 42.7188 271.445 41.4531 271.461 39.2812C271.445 37.125 270.664 35.8594 269.492 35.8594ZM292.367 44.25V45.6719H279.461V44.25H282.445V40.6719C281.32 40.0312 280.641 39.0234 280.648 37.7656C280.633 35.5156 282.852 34.0312 285.883 34.0312C288.93 34.0312 291.148 35.5156 291.148 37.7656C291.148 39 290.492 39.9922 289.398 40.6406V44.25H292.367ZM285.883 35.4062C283.773 35.4062 282.336 36.2969 282.352 37.7656C282.336 39.2188 283.773 40.125 285.883 40.125C287.992 40.125 289.445 39.2188 289.445 37.7656C289.445 36.2969 287.992 35.4062 285.883 35.4062ZM284.164 44.25H287.633V41.2969C287.094 41.4219 286.508 41.4844 285.883 41.4844C285.273 41.4844 284.695 41.4219 284.164 41.3125V44.25ZM100.266 54.6719C100.25 56.4062 101.375 58.0625 103.625 58.7656L102.75 60.1562C101.164 59.6484 100.039 58.6094 99.4062 57.3125C98.7812 58.7578 97.5938 59.9141 95.9375 60.4688L95.0312 59.0781C97.3281 58.3438 98.5 56.5469 98.5156 54.6875V54.5469H95.5156V53.1562H103.188V54.5469H100.266V54.6719ZM106.359 52.2656V55.5781H108.328V57H106.359V60.5H104.625V52.2656H106.359ZM106.359 61.0781V66.2188H97.2344V61.0781H106.359ZM98.9531 62.4531V64.8125H104.641V62.4531H98.9531ZM114.391 55.6562C114.375 58.25 115.734 60.8438 118.031 61.8281L117 63.2188C115.375 62.4688 114.18 60.9688 113.531 59.125C112.883 61.1172 111.672 62.7422 109.953 63.5469L108.891 62.0938C111.25 61.0781 112.625 58.375 112.625 55.6562V53.4062H114.391V55.6562ZM120.797 52.2656V66.4062H119.047V52.2656H120.797ZM138.844 53.7812V55.1875H127.312V53.7812H132.234V52.2344H133.953V53.7812H138.844ZM139.578 61.3906V62.8125H133.953V66.4062H132.234V62.8125H126.672V61.3906H139.578ZM133.094 55.8281C136.078 55.8281 137.875 56.6719 137.875 58.2188C137.875 59.7656 136.078 60.6094 133.094 60.6094C130.109 60.6094 128.312 59.7656 128.312 58.2188C128.312 56.6719 130.109 55.8281 133.094 55.8281ZM133.094 57.125C131.141 57.125 130.109 57.5 130.125 58.2188C130.109 58.9375 131.141 59.3125 133.094 59.3125C135.047 59.3125 136.078 58.9375 136.078 58.2188C136.078 57.5 135.047 57.125 133.094 57.125ZM155.359 52.2656V57.625H157.531V59.0469H155.359V66.4062H153.625V52.2656H155.359ZM151.484 53.6094V55.0156H146.609V61.5C148.805 61.5 150.539 61.3906 152.484 61.0469L152.688 62.5156C150.5 62.8906 148.594 62.9531 146.047 62.9531H144.875V53.6094H151.484ZM163.469 55.6562C163.453 58.25 164.812 60.8438 167.109 61.8281L166.078 63.2188C164.453 62.4688 163.258 60.9688 162.609 59.125C161.961 61.1172 160.75 62.7422 159.031 63.5469L157.969 62.0938C160.328 61.0781 161.703 58.375 161.703 55.6562V53.4062H163.469V55.6562ZM169.875 52.2656V66.4062H168.125V52.2656H169.875ZM181.094 55.6562C181.078 58.25 182.438 60.8438 184.734 61.8281L183.703 63.2188C182.078 62.4688 180.883 60.9688 180.234 59.125C179.586 61.1172 178.375 62.7422 176.656 63.5469L175.594 62.0938C177.953 61.0781 179.328 58.375 179.328 55.6562V53.4062H181.094V55.6562ZM187.5 52.2656V66.4062H185.75V52.2656H187.5ZM201.047 58.6875V60.0625H196.859V63.2969H202.484V64.7188H189.578V63.2969H195.141V60.0625H191.141V53.3125H200.938V54.7031H192.875V58.6875H201.047ZM210.297 54.5156V55.9062H203.375V54.5156H206V52.6719H207.719V54.5156H210.297ZM206.859 56.6562C208.656 56.6562 209.938 58.0156 209.938 59.9375C209.938 61.8906 208.656 63.2656 206.859 63.2656C205.078 63.2656 203.766 61.8906 203.781 59.9375C203.766 58.0156 205.078 56.6562 206.859 56.6562ZM206.859 58.0938C205.938 58.0938 205.297 58.8281 205.312 59.9375C205.297 61.0781 205.938 61.7969 206.859 61.7812C207.766 61.7969 208.406 61.0781 208.406 59.9375C208.406 58.8281 207.766 58.0938 206.859 58.0938ZM215.547 52.2656V66.3906H213.891V59.4844H212.516V65.75H210.891V52.5625H212.516V58.0781H213.891V52.2656H215.547ZM230.109 60.1406V61.5469H224.5V66.375H222.781V61.5469H217.234V60.1406H230.109ZM228.922 53.0625V54.4375H224.688C224.789 55.9844 226.648 57.4688 229.438 57.8281L228.812 59.1875C226.406 58.8516 224.531 57.75 223.672 56.2188C222.812 57.75 220.938 58.8516 218.562 59.1875L217.906 57.8281C220.68 57.4688 222.539 55.9844 222.672 54.4375H218.422V53.0625H228.922ZM235.469 55.9688C235.469 58.25 236.266 60.625 238.172 61.8281L237.219 63.1562C235.945 62.3906 235.117 61.0703 234.656 59.5156C234.141 61.2266 233.234 62.6719 231.906 63.4844L230.828 62.1875C232.875 60.9375 233.797 58.4531 233.797 56.0469V53.5156H235.469V55.9688ZM243.25 52.2656V66.3906H241.578V52.2656H243.25ZM240.312 52.5156V65.7031H238.672V58.5625H236.656V57.125H238.672V52.5156H240.312ZM257.797 63.25V64.6719H244.891V63.25H247.875V59.6719C246.75 59.0312 246.07 58.0234 246.078 56.7656C246.062 54.5156 248.281 53.0312 251.312 53.0312C254.359 53.0312 256.578 54.5156 256.578 56.7656C256.578 58 255.922 58.9922 254.828 59.6406V63.25H257.797ZM251.312 54.4062C249.203 54.4062 247.766 55.2969 247.781 56.7656C247.766 58.2188 249.203 59.125 251.312 59.125C253.422 59.125 254.875 58.2188 254.875 56.7656C254.875 55.2969 253.422 54.4062 251.312 54.4062ZM249.594 63.25H253.062V60.2969C252.523 60.4219 251.938 60.4844 251.312 60.4844C250.703 60.4844 250.125 60.4219 249.594 60.3125V63.25Z" fill="#9E9E9E"/>
</svg>
