<svg width="20" height="20" viewBox="0 0 20 20" fill="none" xmlns="http://www.w3.org/2000/svg">
<g clip-path="url(#clip0_663_1376)">
<path d="M11.2961 10.0068L19.5151 18.2257C19.7064 18.4171 19.8021 18.6563 19.8021 18.9433C19.8021 19.2303 19.7064 19.4782 19.5151 19.6869C19.3063 19.8956 19.0585 20 18.7714 20C18.4844 20 18.2366 19.8956 18.0278 19.6869L9.44356 11.1026C9.28701 10.9461 9.17394 10.7722 9.10437 10.5808C9.03479 10.3895 9 10.1981 9 10.0068C9 9.81547 9.03479 9.62411 9.10437 9.43275C9.17394 9.24145 9.28701 9.06747 9.44356 8.91092L18.0539 0.30058C18.2626 0.0918439 18.5062 -0.00817703 18.7845 0.000522032C19.0628 0.00922109 19.3063 0.117936 19.5151 0.326671C19.7064 0.535407 19.8064 0.778934 19.8151 1.05725C19.8238 1.33556 19.7238 1.57909 19.5151 1.78782L11.2961 10.0068Z" fill="#1A1A1A"/>
<path d="M8.52031 10.0068L0.301346 18.2257C0.109987 18.4171 0.0143337 18.6563 0.0143337 18.9433C0.0143337 19.2303 0.109987 19.4782 0.301346 19.6869C0.510081 19.8956 0.757955 20 1.04497 20C1.33198 20 1.57985 19.8956 1.78859 19.6869L10.3728 11.1026C10.5294 10.9461 10.6425 10.7722 10.712 10.5808C10.7816 10.3895 10.8164 10.1981 10.8164 10.0068C10.8164 9.81547 10.7816 9.62411 10.712 9.43275C10.6425 9.24145 10.5294 9.06747 10.3728 8.91092L1.7625 0.30058C1.55376 0.0918439 1.31022 -0.00817703 1.03192 0.000522032C0.753624 0.00922109 0.510081 0.117936 0.301346 0.326671C0.109987 0.535407 0.0100021 0.778934 0.00128746 1.05725C-0.00742722 1.33556 0.0926094 1.57909 0.301346 1.78782L8.52031 10.0068Z" fill="#1A1A1A"/>
</g>
<defs>
<clipPath id="clip0_663_1376">
<rect width="20" height="20" fill="white"/>
</clipPath>
</defs>
</svg>
