<svg width="393" height="372" viewBox="0 0 393 372" fill="none" xmlns="http://www.w3.org/2000/svg">
<g opacity="0.1" filter="url(#filter0_g_1373_2861)">
<path d="M275.965 93.4067L331.153 64.3278L293.864 113.196L346.921 132.986L283.423 142.073L286.406 182.461L258.066 144.9L223.12 165.498L238.675 125.918L191.797 113.196L230.578 101.888L238.675 51L275.965 93.4067Z" fill="#1F79FF"/>
</g>
<g filter="url(#filter1_d_1373_2861)">
<path d="M200.221 349.285L264.322 298.453C266.274 296.906 265.18 293.764 262.689 293.764L115.732 293.764L50.9135 345.165C48.9617 346.712 50.0561 349.854 52.5471 349.854L198.588 349.854C199.181 349.854 199.757 349.653 200.221 349.285Z" fill="white"/>
</g>
<g filter="url(#filter2_d_1373_2861)">
<path d="M213.967 359.805L278.317 308.973C280.274 307.428 279.181 304.281 276.688 304.281L129.153 304.281L64.0859 355.678C62.1292 357.224 63.2221 360.371 65.7156 360.371L212.337 360.371C212.929 360.371 213.503 360.171 213.967 359.805Z" fill="white"/>
</g>
<g filter="url(#filter3_d_1373_2861)">
<path d="M277.068 362.434L341.419 311.603C343.376 310.057 342.283 306.91 339.789 306.91L192.255 306.91L127.187 358.308C125.231 359.853 126.324 363 128.817 363L275.439 363C276.03 363 276.604 362.801 277.068 362.434Z" fill="white"/>
</g>
<g filter="url(#filter4_d_1373_2861)">
<path d="M256.911 349.288L321.262 298.457C323.218 296.911 322.126 293.764 319.632 293.764L172.097 293.764L107.03 345.162C105.074 346.707 106.166 349.854 108.66 349.854L255.281 349.854C255.873 349.854 256.447 349.655 256.911 349.288Z" fill="white"/>
</g>
<g filter="url(#filter5_d_1373_2861)">
<path d="M139.372 201.232L170.736 210.292C175.168 211.573 175.843 217.338 171.671 219.283C155.786 226.687 131.36 234.794 111.356 231.119C86.6731 226.584 116.421 209.908 135.865 201.448C136.971 200.967 138.211 200.896 139.372 201.232Z" fill="#C1D8FC"/>
<ellipse cx="208.096" cy="222.869" rx="81.2489" ry="80.2961" fill="url(#paint0_radial_1373_2861)"/>
<path d="M176.554 182.91C179.522 182.91 181.919 185.286 181.919 188.207C181.919 191.128 179.522 193.504 176.554 193.504C173.586 193.504 171.188 191.128 171.188 188.207C171.189 185.286 173.586 182.91 176.554 182.91Z" fill="#2B2B2B" stroke="#2B2B2B" stroke-width="0.876404"/>
<path d="M210.368 182.91C213.336 182.91 215.733 185.286 215.733 188.207C215.733 191.128 213.336 193.504 210.368 193.504C207.4 193.504 205.003 191.128 205.003 188.207C205.003 185.286 207.4 182.91 210.368 182.91Z" fill="#2B2B2B" stroke="#2B2B2B" stroke-width="0.876404"/>
<line x1="172.569" y1="175.671" x2="181.043" y2="175.671" stroke="#2B2B2B" stroke-width="2.62921" stroke-linecap="round"/>
<line x1="206.384" y1="175.671" x2="214.857" y2="175.671" stroke="#2B2B2B" stroke-width="2.62921" stroke-linecap="round"/>
<ellipse opacity="0.12" cx="155.612" cy="200.925" rx="16.1488" ry="15.9595" fill="white"/>
<ellipse opacity="0.12" cx="231.311" cy="200.925" rx="16.1488" ry="15.9595" fill="white"/>
<path d="M172.64 202.803C169.232 201.844 169.232 197.014 172.64 196.054L191.734 190.677C193.253 190.249 194.871 190.89 195.686 192.241L198.928 197.619C199.6 198.732 199.6 200.126 198.928 201.239L195.686 206.616C194.871 207.968 193.253 208.608 191.734 208.18L172.64 202.803Z" fill="#FF4949"/>
<path d="M281.894 201.633L250.553 210.77C246.124 212.061 245.464 217.828 249.641 219.762C265.544 227.127 289.99 235.175 309.985 231.451C334.656 226.855 304.867 210.253 285.402 201.84C284.294 201.361 283.055 201.294 281.894 201.633Z" fill="#C1D8FC"/>
</g>
<g opacity="0.3" filter="url(#filter6_f_1373_2861)">
<ellipse cx="207.811" cy="322.323" rx="57.1439" ry="10.8283" fill="#CECECE"/>
</g>
<g opacity="0.1" filter="url(#filter7_g_1373_2861)">
<path d="M84.1325 172.509L107.206 160.102L91.6157 180.953L113.798 189.396L87.2505 193.274L88.4977 210.505L76.6494 194.48L62.0394 203.268L68.5426 186.381L48.9439 180.953L65.1574 176.128L68.5426 154.416L84.1325 172.509Z" fill="#1F79FF"/>
</g>
<defs>
<filter id="filter0_g_1373_2861" x="185.925" y="45.1281" width="166.868" height="143.204" filterUnits="userSpaceOnUse" color-interpolation-filters="sRGB">
<feFlood flood-opacity="0" result="BackgroundImageFix"/>
<feBlend mode="normal" in="SourceGraphic" in2="BackgroundImageFix" result="shape"/>
<feTurbulence type="fractalNoise" baseFrequency="0.28525641560554504 0.28525641560554504" numOctaves="3" seed="4364" />
<feDisplacementMap in="shape" scale="11.743819236755371" xChannelSelector="R" yChannelSelector="G" result="displacedImage" width="100%" height="100%" />
<feMerge result="effect1_texture_1373_2861">
<feMergeNode in="displacedImage"/>
</feMerge>
</filter>
<filter id="filter1_d_1373_2861" x="41.149" y="285" width="232.938" height="73.6179" filterUnits="userSpaceOnUse" color-interpolation-filters="sRGB">
<feFlood flood-opacity="0" result="BackgroundImageFix"/>
<feColorMatrix in="SourceAlpha" type="matrix" values="0 0 0 0 0 0 0 0 0 0 0 0 0 0 0 0 0 0 127 0" result="hardAlpha"/>
<feOffset/>
<feGaussianBlur stdDeviation="4.38202"/>
<feComposite in2="hardAlpha" operator="out"/>
<feColorMatrix type="matrix" values="0 0 0 0 0 0 0 0 0 0 0 0 0 0 0 0 0 0 0.25 0"/>
<feBlend mode="normal" in2="BackgroundImageFix" result="effect1_dropShadow_1373_2861"/>
<feBlend mode="normal" in="SourceGraphic" in2="effect1_dropShadow_1373_2861" result="shape"/>
</filter>
<filter id="filter2_d_1373_2861" x="54.317" y="295.517" width="233.769" height="73.6179" filterUnits="userSpaceOnUse" color-interpolation-filters="sRGB">
<feFlood flood-opacity="0" result="BackgroundImageFix"/>
<feColorMatrix in="SourceAlpha" type="matrix" values="0 0 0 0 0 0 0 0 0 0 0 0 0 0 0 0 0 0 127 0" result="hardAlpha"/>
<feOffset/>
<feGaussianBlur stdDeviation="4.38202"/>
<feComposite in2="hardAlpha" operator="out"/>
<feColorMatrix type="matrix" values="0 0 0 0 0 0 0 0 0 0 0 0 0 0 0 0 0 0 0.25 0"/>
<feBlend mode="normal" in2="BackgroundImageFix" result="effect1_dropShadow_1373_2861"/>
<feBlend mode="normal" in="SourceGraphic" in2="effect1_dropShadow_1373_2861" result="shape"/>
</filter>
<filter id="filter3_d_1373_2861" x="117.419" y="298.146" width="233.769" height="73.6179" filterUnits="userSpaceOnUse" color-interpolation-filters="sRGB">
<feFlood flood-opacity="0" result="BackgroundImageFix"/>
<feColorMatrix in="SourceAlpha" type="matrix" values="0 0 0 0 0 0 0 0 0 0 0 0 0 0 0 0 0 0 127 0" result="hardAlpha"/>
<feOffset/>
<feGaussianBlur stdDeviation="4.38202"/>
<feComposite in2="hardAlpha" operator="out"/>
<feColorMatrix type="matrix" values="0 0 0 0 0 0 0 0 0 0 0 0 0 0 0 0 0 0 0.25 0"/>
<feBlend mode="normal" in2="BackgroundImageFix" result="effect1_dropShadow_1373_2861"/>
<feBlend mode="normal" in="SourceGraphic" in2="effect1_dropShadow_1373_2861" result="shape"/>
</filter>
<filter id="filter4_d_1373_2861" x="97.2613" y="285" width="233.769" height="73.6179" filterUnits="userSpaceOnUse" color-interpolation-filters="sRGB">
<feFlood flood-opacity="0" result="BackgroundImageFix"/>
<feColorMatrix in="SourceAlpha" type="matrix" values="0 0 0 0 0 0 0 0 0 0 0 0 0 0 0 0 0 0 127 0" result="hardAlpha"/>
<feOffset/>
<feGaussianBlur stdDeviation="4.38202"/>
<feComposite in2="hardAlpha" operator="out"/>
<feColorMatrix type="matrix" values="0 0 0 0 0 0 0 0 0 0 0 0 0 0 0 0 0 0 0.25 0"/>
<feBlend mode="normal" in2="BackgroundImageFix" result="effect1_dropShadow_1373_2861"/>
<feBlend mode="normal" in="SourceGraphic" in2="effect1_dropShadow_1373_2861" result="shape"/>
</filter>
<filter id="filter5_d_1373_2861" x="80.8708" y="121.452" width="259.584" height="202.835" filterUnits="userSpaceOnUse" color-interpolation-filters="sRGB">
<feFlood flood-opacity="0" result="BackgroundImageFix"/>
<feColorMatrix in="SourceAlpha" type="matrix" values="0 0 0 0 0 0 0 0 0 0 0 0 0 0 0 0 0 0 127 0" result="hardAlpha"/>
<feOffset/>
<feGaussianBlur stdDeviation="10.5607"/>
<feComposite in2="hardAlpha" operator="out"/>
<feColorMatrix type="matrix" values="0 0 0 0 0 0 0 0 0 0 0 0 0 0 0 0 0 0 0.1 0"/>
<feBlend mode="normal" in2="BackgroundImageFix" result="effect1_dropShadow_1373_2861"/>
<feBlend mode="normal" in="SourceGraphic" in2="effect1_dropShadow_1373_2861" result="shape"/>
</filter>
<filter id="filter6_f_1373_2861" x="147.161" y="307.989" width="121.299" height="28.668" filterUnits="userSpaceOnUse" color-interpolation-filters="sRGB">
<feFlood flood-opacity="0" result="BackgroundImageFix"/>
<feBlend mode="normal" in="SourceGraphic" in2="BackgroundImageFix" result="shape"/>
<feGaussianBlur stdDeviation="1.75281" result="effect1_foregroundBlur_1373_2861"/>
</filter>
<filter id="filter7_g_1373_2861" x="43.0724" y="148.544" width="76.5973" height="67.8337" filterUnits="userSpaceOnUse" color-interpolation-filters="sRGB">
<feFlood flood-opacity="0" result="BackgroundImageFix"/>
<feBlend mode="normal" in="SourceGraphic" in2="BackgroundImageFix" result="shape"/>
<feTurbulence type="fractalNoise" baseFrequency="0.28525641560554504 0.28525641560554504" numOctaves="3" seed="4364" />
<feDisplacementMap in="shape" scale="11.743819236755371" xChannelSelector="R" yChannelSelector="G" result="displacedImage" width="100%" height="100%" />
<feMerge result="effect1_texture_1373_2861">
<feMergeNode in="displacedImage"/>
</feMerge>
</filter>
<radialGradient id="paint0_radial_1373_2861" cx="0" cy="0" r="1" gradientTransform="matrix(-74.4361 -114.459 115.817 -73.5632 238.627 271.745)" gradientUnits="userSpaceOnUse">
<stop stop-color="#5197FF"/>
<stop offset="1" stop-color="#F6FAFF"/>
</radialGradient>
</defs>
</svg>
