<svg width="24" height="24" viewBox="0 0 24 24" fill="none" xmlns="http://www.w3.org/2000/svg">
<path d="M6.90848 23.3676L6.57309 23.0594C6.52638 22.1043 6.34533 21.2151 5.79064 20.4233C5.58157 20.1249 5.30622 19.8891 5.09004 19.6146C3.73954 17.9043 2.9313 15.7887 3.27559 13.585C3.37123 12.9734 3.57273 12.3956 3.80182 11.8244C7.30082 14.5294 12.447 13.2261 14.2726 9.22085C14.761 8.14882 14.6293 7.31521 15.7303 6.59415C16.2031 6.28455 18.1608 5.41536 18.1879 6.47672C18.1933 6.68801 17.8881 7.13194 17.7965 7.37304C17.619 7.84011 17.5007 8.56918 17.7089 9.03802C17.7751 9.18704 18.4722 9.75731 18.6523 9.95926C19.3276 10.7141 19.8249 11.6131 20.1816 12.5588C20.6096 12.634 21.001 12.4659 21.3791 12.7376C21.5735 12.8773 21.7101 13.1162 21.7372 13.3564C21.799 13.9044 21.7968 15.2927 21.7372 15.843C21.6513 16.6374 20.8093 16.6655 20.1874 16.6245C19.8849 17.7397 19.2244 18.765 18.4299 19.5951C17.7716 20.2828 17.0674 20.7027 16.9175 21.7676C16.8392 22.3245 17.0914 23.0336 16.5425 23.3681H13.257C13.1641 23.3303 12.9021 23.1265 12.9021 23.0349V22.1693C12.1089 22.2409 11.2927 22.2525 10.5049 22.1248V23.0349C10.5049 23.1261 10.2429 23.3298 10.1499 23.3681H6.90893L6.90848 23.3676ZM16.885 11.2581C16.1529 11.4098 16.1991 12.6295 16.9629 12.7141C18.1577 12.8457 18.0669 11.0135 16.885 11.2581Z" fill="#1F79FF"/>
<path d="M7.52058 0.650489C3.46377 0.971653 1.02657 5.41502 2.93354 9.02878C4.91702 12.7885 10.2171 13.1537 12.6712 9.66355C15.4665 5.68814 12.3469 0.268383 7.52058 0.650489ZM9.61482 8.64979C9.29188 9.02345 8.89509 9.12753 8.48319 9.33838C8.41824 10.1008 8.64688 10.3512 7.72698 10.273C7.1576 10.2245 7.62556 9.61195 7.37468 9.38242C7.227 9.24719 6.15185 9.23118 5.99794 8.89445C5.933 8.75299 6.14918 7.91716 6.27151 7.87846C6.36848 7.84777 6.95565 8.12 7.12914 8.16315C7.53526 8.26324 8.24387 8.3393 8.52544 7.96031C9.12285 7.15562 7.42717 6.74994 6.95121 6.47682C5.72393 5.77221 5.66343 4.22867 6.92185 3.56009C7.05841 3.48759 7.52903 3.38305 7.52903 3.19044V2.52454C7.56551 2.40622 8.27634 2.4596 8.41869 2.47828C8.59128 2.65665 8.42002 3.13706 8.56904 3.26028C8.72917 3.39284 9.53564 3.37949 9.72692 3.65618C9.81188 3.78429 9.53787 4.62145 9.48449 4.65792C9.39152 4.72198 8.83015 4.45731 8.64955 4.42217C8.24209 4.34343 7.36845 4.30384 7.39247 4.92037C7.4116 5.4079 8.53746 5.70371 8.90711 5.89632C9.94666 6.43678 10.4493 7.68363 9.61438 8.64979H9.61482Z" fill="#616161"/>
</svg>
