<svg width="353" height="182" viewBox="0 0 353 182" fill="none" xmlns="http://www.w3.org/2000/svg">
<g clip-path="url(#clip0_432_1725)">
<rect width="353" height="182" rx="10" fill="#1F79FF"/>
<path opacity="0.12" d="M143.731 106.994C155.56 106.994 165.525 114.966 168.551 125.83C173.08 118.444 181.228 113.517 190.527 113.517C204.756 113.517 216.29 125.051 216.29 139.279C216.29 140.328 216.225 141.363 216.104 142.379C216.166 142.378 216.228 142.377 216.29 142.377C230.518 142.377 242.053 153.911 242.053 168.14C242.053 182.368 230.518 193.902 216.29 193.902C214.387 193.902 212.532 193.693 210.746 193.302V197H128.241V194.103C125.586 195.028 122.733 195.532 119.763 195.532C105.535 195.532 94.0003 183.999 94 169.771C94 155.542 105.534 144.008 119.763 144.008C120.028 144.008 120.293 144.013 120.557 144.021C118.9 140.618 117.969 136.796 117.969 132.757C117.969 118.529 129.503 106.994 143.731 106.994Z" fill="white"/>
<path opacity="0.12" d="M270.731 101.994C282.56 101.994 292.525 109.966 295.551 120.83C300.08 113.444 308.228 108.517 317.527 108.517C331.756 108.517 343.29 120.051 343.29 134.279C343.29 135.328 343.225 136.363 343.104 137.379C343.166 137.378 343.228 137.377 343.29 137.377C357.518 137.377 369.053 148.911 369.053 163.14C369.053 177.368 357.518 188.902 343.29 188.902C341.387 188.902 339.532 188.693 337.746 188.302V192H255.241V189.103C252.586 190.028 249.733 190.532 246.763 190.532C232.535 190.532 221 178.999 221 164.771C221 150.542 232.534 139.008 246.763 139.008C247.028 139.008 247.293 139.013 247.557 139.021C245.9 135.618 244.969 131.796 244.969 127.757C244.969 113.529 256.503 101.994 270.731 101.994Z" fill="white"/>
<path opacity="0.12" d="M209.926 36.5806L225.58 27.9539L215.003 42.4516L230.053 48.3226L212.042 51.0184L212.888 63L204.849 51.8571L194.937 57.9677L199.349 46.2258L186.053 42.4516L197.053 39.0968L199.349 24L209.926 36.5806Z" fill="white"/>
<path opacity="0.12" d="M336.926 31.5806L352.58 22.9539L342.003 37.4516L357.053 43.3226L339.042 46.0184L339.888 58L331.849 46.8571L321.937 52.9677L326.349 41.2258L313.053 37.4516L324.053 34.0968L326.349 19L336.926 31.5806Z" fill="white"/>
<path d="M28.4917 31.3287C28.4871 32.7468 28.2937 34.0981 27.9116 35.3826C27.5295 36.6625 26.9678 37.7974 26.2265 38.7873C25.4899 39.7772 24.6105 40.5322 23.5884 41.0525L22.2486 39.2983C23.1694 38.8656 23.9659 38.2325 24.6381 37.3992C25.3149 36.5658 25.8306 35.6243 26.1851 34.5746C26.5396 33.5203 26.7192 32.4383 26.7238 31.3287V28.5041H28.4917V31.3287ZM28.8923 31.3287C28.8877 32.3969 29.0557 33.4328 29.3964 34.4365C29.7371 35.4401 30.232 36.3425 30.8812 37.1436C31.5304 37.9401 32.2993 38.5525 33.1878 38.9807L31.8688 40.721C30.8697 40.2145 30.0134 39.4825 29.2997 38.5249C28.5907 37.5672 28.0543 36.4715 27.6906 35.2376C27.3269 34.0037 27.1473 32.7007 27.1519 31.3287V28.5041H28.8923V31.3287ZM36.413 27.0884V44.7265H34.2376V27.0884H36.413ZM39.134 34.0083V35.8522H35.9365V34.0083H39.134ZM46.1774 30.6727C46.1774 31.773 45.9794 32.8066 45.5835 33.7735C45.1876 34.7403 44.6097 35.5852 43.8501 36.308C43.0904 37.0308 42.1834 37.5718 41.1291 37.9309L40.0034 36.2182C40.9242 35.9144 41.7115 35.477 42.3653 34.9061C43.0236 34.3352 43.5209 33.6837 43.857 32.9517C44.1977 32.2196 44.3703 31.4599 44.3749 30.6727V29.0359H46.1774V30.6727ZM46.578 30.6727C46.578 31.4185 46.7414 32.1367 47.0683 32.8273C47.3998 33.5134 47.8901 34.1234 48.5393 34.6575C49.1931 35.1915 49.9758 35.599 50.8874 35.8798L49.7755 37.5856C48.7304 37.2495 47.8349 36.7385 47.089 36.0525C46.3432 35.3665 45.7746 34.5631 45.3832 33.6423C44.9919 32.7169 44.7962 31.727 44.7962 30.6727V29.0359H46.578V30.6727ZM50.2934 28.4213V30.1685H40.5766V28.4213H50.2934ZM54.5683 27.1022V39.9199H52.3929V27.1022H54.5683ZM55.0655 42.634V44.395H42.8901V42.634H55.0655ZM45.0794 38.732V43.4972H42.8901V38.732H45.0794ZM75.833 27.1022V40.2928H73.6507V27.1022H75.833ZM78.2985 32.6478V34.4365H75.1907V32.6478H78.2985ZM72.3938 29.0566V30.7831H61.9172V29.0566H72.3938ZM67.1659 31.5221C68.0038 31.5221 68.7473 31.6625 69.3965 31.9434C70.0457 32.2242 70.5521 32.6202 70.9159 33.1312C71.2842 33.6423 71.4683 34.2316 71.4683 34.8992C71.4683 35.5622 71.2842 36.1469 70.9159 36.6533C70.5521 37.1552 70.0457 37.5442 69.3965 37.8204C68.7473 38.0921 68.0038 38.2279 67.1659 38.2279C66.3141 38.2279 65.559 38.0921 64.9007 37.8204C64.2423 37.5442 63.7312 37.1552 63.3675 36.6533C63.0038 36.1469 62.8242 35.5622 62.8288 34.8992C62.8242 34.2316 63.0038 33.6423 63.3675 33.1312C63.7312 32.6202 64.2423 32.2242 64.9007 31.9434C65.559 31.6625 66.3141 31.5221 67.1659 31.5221ZM67.1659 33.1934C66.7147 33.1934 66.3187 33.2601 65.978 33.3936C65.6419 33.5272 65.3818 33.7228 65.1976 33.9807C65.0181 34.2385 64.9306 34.5447 64.9352 34.8992C64.9306 35.2491 65.0181 35.5483 65.1976 35.797C65.3818 36.0456 65.6419 36.2366 65.978 36.3702C66.3187 36.4991 66.7147 36.5635 67.1659 36.5635C67.6078 36.5635 67.9969 36.4991 68.333 36.3702C68.6691 36.2366 68.9315 36.0456 69.1203 35.797C69.309 35.5437 69.4057 35.2445 69.4103 34.8992C69.4057 34.5493 69.309 34.2454 69.1203 33.9876C68.9315 33.7251 68.6691 33.5272 68.333 33.3936C67.9969 33.2601 67.6078 33.1934 67.1659 33.1934ZM68.2432 27.0884V29.9199H66.0816V27.0884H68.2432ZM76.5236 42.634V44.395H64.5208V42.634H76.5236ZM66.6824 39.2569V43.3798H64.5208V39.2569H66.6824ZM89.8601 30.2859C89.8555 31.4047 89.6598 32.4498 89.2731 33.4213C88.8909 34.3881 88.3223 35.2307 87.5673 35.9489C86.8168 36.6671 85.9075 37.2058 84.8394 37.5649L83.7344 35.8453C84.6598 35.546 85.4471 35.111 86.0963 34.5401C86.7501 33.9645 87.2427 33.3131 87.5742 32.5856C87.9103 31.8536 88.0806 31.087 88.0852 30.2859V29.0221H89.8601V30.2859ZM90.2675 30.2721C90.2675 31.0041 90.4241 31.7017 90.7372 32.3646C91.0502 33.023 91.5175 33.6077 92.1391 34.1188C92.7606 34.6298 93.5203 35.0235 94.4181 35.2997L93.3891 37.0055C92.344 36.6786 91.4531 36.1837 90.7164 35.5207C89.9798 34.8531 89.425 34.0704 89.0521 33.1727C88.6791 32.2703 88.495 31.3034 88.4996 30.2721V29.0221H90.2675V30.2721ZM93.9278 28.3108V30.0649H84.3421V28.3108H93.9278ZM97.8642 27.0884V37.6133H95.6819V27.0884H97.8642ZM100.33 31.3218V33.1036H97.2565V31.3218H100.33ZM92.1184 38C93.3338 38 94.3836 38.1312 95.2675 38.3936C96.1561 38.6561 96.8375 39.0382 97.3117 39.5401C97.786 40.0419 98.0231 40.6427 98.0231 41.3425C98.0231 42.0424 97.786 42.6455 97.3117 43.1519C96.8375 43.6584 96.1561 44.0451 95.2675 44.3122C94.3836 44.5838 93.3338 44.7173 92.1184 44.7127C90.8937 44.7173 89.8302 44.5838 88.9278 44.3122C88.03 44.0451 87.3417 43.6584 86.8628 43.1519C86.384 42.6455 86.1446 42.0424 86.1446 41.3425C86.1446 40.6427 86.384 40.0419 86.8628 39.5401C87.3417 39.0382 88.03 38.6561 88.9278 38.3936C89.8302 38.1312 90.8937 38 92.1184 38ZM92.1184 39.7058C91.3081 39.7058 90.6175 39.768 90.0466 39.8923C89.4803 40.012 89.0498 40.1961 88.7551 40.4448C88.4605 40.6888 88.3131 40.988 88.3131 41.3425C88.3131 41.7017 88.4605 42.0055 88.7551 42.2541C89.0498 42.5028 89.4803 42.6915 90.0466 42.8204C90.6175 42.9494 91.3081 43.0115 92.1184 43.0069C92.9241 43.0115 93.6078 42.9494 94.1695 42.8204C94.7312 42.6915 95.157 42.5028 95.4471 42.2541C95.7418 42.0055 95.8891 41.7017 95.8891 41.3425C95.8891 40.988 95.7418 40.6888 95.4471 40.4448C95.157 40.1961 94.7312 40.012 94.1695 39.8923C93.6078 39.768 92.9241 39.7058 92.1184 39.7058ZM115.909 27.0884V44.768H113.72V27.0884H115.909ZM106.399 28.366C107.279 28.3706 108.066 28.6308 108.761 29.1464C109.461 29.6575 110.007 30.3826 110.398 31.3218C110.794 32.261 110.992 33.3545 110.992 34.6022C110.992 35.8591 110.794 36.9595 110.398 37.9033C110.007 38.8471 109.461 39.5769 108.761 40.0925C108.066 40.6036 107.279 40.8568 106.399 40.8522C105.506 40.8568 104.71 40.6036 104.01 40.0925C103.31 39.5769 102.762 38.8471 102.366 37.9033C101.975 36.9595 101.782 35.8591 101.786 34.6022C101.782 33.3545 101.975 32.2587 102.366 31.3149C102.762 30.3711 103.31 29.6459 104.01 29.1395C104.714 28.6285 105.511 28.3706 106.399 28.366ZM106.399 30.3273C105.898 30.3273 105.456 30.4977 105.073 30.8384C104.696 31.1791 104.401 31.6717 104.189 32.3163C103.982 32.9563 103.879 33.7182 103.879 34.6022C103.879 35.4908 103.982 36.2597 104.189 36.9088C104.401 37.5534 104.696 38.046 105.073 38.3867C105.456 38.7228 105.898 38.8909 106.399 38.8909C106.892 38.8909 107.325 38.7228 107.698 38.3867C108.075 38.046 108.368 37.5534 108.575 36.9088C108.787 36.2597 108.892 35.4908 108.892 34.6022C108.892 33.7182 108.787 32.9563 108.575 32.3163C108.368 31.6717 108.075 31.1791 107.698 30.8384C107.325 30.4977 106.892 30.3273 106.399 30.3273ZM131.744 29.9751V31.7431H127.075V29.9751H131.744ZM131.799 33.7666V35.5069H127.075V33.7666H131.799ZM127.559 28.5594V37.0262H119.272V28.5594H127.559ZM121.426 30.2928V35.3204H125.425V30.2928H121.426ZM133.291 27.1022V39.9475H131.122V27.1022H133.291ZM133.678 42.634V44.395H121.654V42.634H133.678ZM123.85 38.7597V43.518H121.654V38.7597H123.85ZM149.645 36.7431V39.3467H147.484V36.7431H149.645ZM156.62 35.645V37.3646H140.536V35.645H156.62ZM149.638 27.1091V29.547H147.484V27.1091H149.638ZM149.259 30.0304C149.259 30.942 148.962 31.7477 148.368 32.4475C147.774 33.1473 146.929 33.7113 145.833 34.1395C144.737 34.5677 143.448 34.8416 141.966 34.9613L141.296 33.3039C142.58 33.2118 143.676 33.0115 144.583 32.703C145.495 32.39 146.183 32.0032 146.648 31.5428C147.118 31.0824 147.353 30.5783 147.353 30.0304V29.6989H149.259V30.0304ZM149.77 30.0304C149.765 30.5783 149.995 31.0824 150.46 31.5428C150.925 32.0032 151.614 32.39 152.525 32.703C153.441 33.0115 154.542 33.2118 155.826 33.3039L155.17 34.9613C153.679 34.8416 152.382 34.5677 151.282 34.1395C150.186 33.7113 149.341 33.1473 148.748 32.4475C148.158 31.7477 147.864 30.942 147.864 30.0304V29.6989H149.77V30.0304ZM155.039 28.7182V30.4378H142.118V28.7182H155.039ZM148.554 38.7666C149.839 38.7666 150.937 38.8817 151.848 39.1119C152.765 39.3421 153.464 39.6805 153.948 40.1271C154.431 40.5691 154.673 41.1077 154.673 41.7431C154.673 42.3785 154.431 42.9171 153.948 43.3591C153.464 43.8057 152.765 44.1441 151.848 44.3743C150.937 44.6045 149.839 44.7173 148.554 44.7127C147.27 44.7173 146.167 44.6045 145.246 44.3743C144.325 44.1441 143.621 43.8057 143.133 43.3591C142.649 42.9171 142.408 42.3785 142.408 41.7431C142.408 41.1077 142.649 40.5691 143.133 40.1271C143.621 39.6805 144.325 39.3421 145.246 39.1119C146.167 38.8817 147.27 38.7666 148.554 38.7666ZM148.554 40.3826C147.689 40.3826 146.961 40.4332 146.372 40.5345C145.787 40.6358 145.347 40.7878 145.053 40.9903C144.758 41.1929 144.613 41.4438 144.618 41.7431C144.613 42.0424 144.758 42.2933 145.053 42.4959C145.352 42.6938 145.794 42.8435 146.379 42.9448C146.963 43.0414 147.689 43.0898 148.554 43.0898C149.411 43.0898 150.131 43.0414 150.716 42.9448C151.301 42.8435 151.742 42.6938 152.042 42.4959C152.346 42.2933 152.5 42.0424 152.504 41.7431C152.5 41.4438 152.346 41.1929 152.042 40.9903C151.742 40.7878 151.301 40.6358 150.716 40.5345C150.131 40.4332 149.411 40.3826 148.554 40.3826ZM173.94 36.232V37.9586H157.801V36.232H173.94ZM167.124 37.1298V40.9972H164.976V37.1298H167.124ZM172.158 42.634V44.395H159.755V42.634H172.158ZM161.91 39.5331V43.3522H159.755V39.5331H161.91ZM162.048 27.6478V29.6367H169.672V27.6478H171.834V34.8301H159.9V27.6478H162.048ZM162.048 33.1105H169.672V31.2597H162.048V33.1105ZM183.718 29.8923V31.6395H175.072V29.8923H183.718ZM179.423 32.558C180.159 32.558 180.82 32.7353 181.405 33.0898C181.99 33.4397 182.448 33.9277 182.779 34.5539C183.111 35.1754 183.276 35.8844 183.276 36.6809C183.276 37.482 183.111 38.2003 182.779 38.8356C182.448 39.4664 181.99 39.9567 181.405 40.3066C180.82 40.6565 180.159 40.8315 179.423 40.8315C178.686 40.8315 178.023 40.6542 177.434 40.2997C176.849 39.9452 176.391 39.4549 176.06 38.8287C175.728 38.198 175.565 37.482 175.569 36.6809C175.565 35.889 175.728 35.18 176.06 34.5539C176.391 33.9277 176.849 33.4397 177.434 33.0898C178.023 32.7353 178.686 32.558 179.423 32.558ZM179.423 34.3674C179.041 34.3674 178.702 34.4641 178.408 34.6575C178.113 34.8462 177.885 35.1156 177.724 35.4655C177.563 35.8154 177.482 36.2205 177.482 36.6809C177.482 37.1459 177.563 37.5534 177.724 37.9033C177.885 38.2532 178.113 38.5203 178.408 38.7044C178.702 38.8886 179.041 38.9807 179.423 38.9807C179.8 38.9807 180.134 38.8886 180.424 38.7044C180.714 38.5203 180.942 38.2532 181.108 37.9033C181.278 37.5534 181.363 37.1459 181.363 36.6809C181.363 36.2205 181.278 35.8154 181.108 35.4655C180.942 35.1156 180.712 34.8462 180.417 34.6575C180.127 34.4641 179.796 34.3674 179.423 34.3674ZM190.286 27.0884V44.7265H188.221V27.0884H190.286ZM188.898 34.3536V36.1077H185.797V34.3536H188.898ZM186.488 27.4613V43.9323H184.45V27.4613H186.488ZM180.493 27.5925V30.9834H178.345V27.5925H180.493ZM198.269 36.1008V41.1561H196.121V36.1008H198.269ZM204.809 36.1008V41.1561H202.613V36.1008H204.809ZM208.531 40.8108V42.5925H192.392V40.8108H208.531ZM200.423 28.0276C201.685 28.0322 202.815 28.2279 203.814 28.6146C204.813 29.0014 205.594 29.5493 206.156 30.2583C206.722 30.9673 207.005 31.7822 207.005 32.703C207.005 33.6285 206.724 34.4434 206.162 35.1478C205.601 35.8522 204.82 36.3978 203.821 36.7845C202.822 37.1667 201.69 37.3577 200.423 37.3577C199.157 37.3577 198.027 37.1667 197.033 36.7845C196.043 36.3978 195.267 35.8522 194.705 35.1478C194.144 34.4434 193.865 33.6285 193.87 32.703C193.865 31.7822 194.144 30.9673 194.705 30.2583C195.267 29.5493 196.045 29.0014 197.039 28.6146C198.039 28.2279 199.167 28.0322 200.423 28.0276ZM200.423 29.761C199.544 29.7564 198.771 29.8715 198.103 30.1064C197.435 30.3412 196.917 30.6819 196.549 31.1285C196.181 31.575 195.997 32.0999 195.997 32.703C195.997 33.297 196.181 33.8172 196.549 34.2638C196.917 34.7104 197.435 35.0557 198.103 35.2997C198.775 35.5437 199.549 35.6657 200.423 35.6657C201.298 35.6657 202.069 35.5437 202.737 35.2997C203.409 35.0557 203.932 34.7104 204.305 34.2638C204.682 33.8172 204.871 33.297 204.871 32.703C204.871 32.0999 204.682 31.575 204.305 31.1285C203.932 30.6819 203.409 30.3412 202.737 30.1064C202.069 29.8715 201.298 29.7564 200.423 29.761ZM211.818 43.1519C211.546 43.1519 211.293 43.0852 211.058 42.9517C210.823 42.8135 210.637 42.6294 210.499 42.3992C210.365 42.169 210.301 41.9157 210.305 41.6395C210.301 41.3679 210.365 41.1192 210.499 40.8936C210.637 40.6634 210.823 40.4816 211.058 40.3481C211.293 40.2099 211.546 40.1409 211.818 40.1409C212.085 40.1409 212.333 40.2099 212.564 40.3481C212.794 40.4816 212.978 40.6634 213.116 40.8936C213.259 41.1238 213.33 41.3725 213.33 41.6395C213.33 41.9111 213.261 42.1621 213.123 42.3923C212.985 42.6225 212.798 42.8066 212.564 42.9448C212.333 43.0829 212.085 43.1519 211.818 43.1519Z" fill="#FCFCFC"/>
<path d="M27.0829 56.8895C27.7901 56.8858 28.4236 57.0092 28.9834 57.2597C29.547 57.5101 29.9871 57.86 30.3039 58.3094C30.6206 58.7587 30.779 59.2726 30.779 59.8508C30.779 60.4254 30.6206 60.9392 30.3039 61.3923C29.9871 61.8416 29.547 62.1915 28.9834 62.442C28.4236 62.6924 27.7901 62.8158 27.0829 62.8122C26.3794 62.8158 25.7477 62.6924 25.1878 62.442C24.628 62.1915 24.1915 61.8416 23.8785 61.3923C23.5654 60.9392 23.4088 60.4254 23.4088 59.8508C23.4088 59.2726 23.5654 58.7587 23.8785 58.3094C24.1915 57.86 24.628 57.5101 25.1878 57.2597C25.7477 57.0092 26.3794 56.8858 27.0829 56.8895ZM27.0829 58.2928C26.6961 58.2891 26.3499 58.3517 26.0442 58.4807C25.7422 58.6059 25.5064 58.7864 25.337 59.0221C25.1713 59.2578 25.0884 59.5341 25.0884 59.8508C25.0884 60.1639 25.1713 60.4383 25.337 60.674C25.5064 60.9061 25.7422 61.0847 26.0442 61.2099C26.3499 61.3315 26.6961 61.3904 27.0829 61.3867C27.4843 61.3904 27.8398 61.3315 28.1492 61.2099C28.4586 61.0847 28.698 60.9061 28.8674 60.674C29.0405 60.4383 29.1271 60.1639 29.1271 59.8508C29.1271 59.5341 29.0405 59.2578 28.8674 59.0221C28.698 58.7864 28.4567 58.6059 28.1436 58.4807C27.8343 58.3517 27.4807 58.2891 27.0829 58.2928ZM28.0442 64.2873V69.9558H26.3039V64.2873H28.0442ZM34.2818 56.2818V70.3812H32.558V56.2818H34.2818ZM22.4807 63.7845C24.1602 63.7845 25.768 63.7514 27.3039 63.6851C28.8398 63.6151 30.2873 63.4788 31.6464 63.2762L31.768 64.558C30.8656 64.7348 29.9282 64.8692 28.9558 64.9613C27.9834 65.0534 27.0571 65.116 26.1768 65.1492C25.3002 65.1786 24.3315 65.2007 23.2707 65.2155H22.6961L22.4807 63.7845ZM48.1265 56.2707V64.8122H46.3917V56.2707H48.1265ZM47.1099 60.4586V61.8895H44.3751V60.4586H47.1099ZM48.1265 65.4586V70.2155H38.7287V65.4586H48.1265ZM40.4635 66.8287V68.8122H46.4248V66.8287H40.4635ZM44.6127 57.5856V58.9779H36.3254V57.5856H44.6127ZM40.4745 59.5304C41.1191 59.5304 41.6955 59.639 42.2038 59.8564C42.7121 60.07 43.1081 60.3702 43.3917 60.7569C43.679 61.14 43.8244 61.5746 43.8281 62.0608C43.8244 62.5617 43.679 63.0037 43.3917 63.3867C43.1081 63.7698 42.7121 64.0681 42.2038 64.2818C41.6992 64.4917 41.1228 64.5967 40.4745 64.5967C39.8263 64.5967 39.2462 64.4917 38.7342 64.2818C38.2259 64.0681 37.83 63.7698 37.5464 63.3867C37.2627 63.0037 37.1209 62.5617 37.1209 62.0608C37.1209 61.5746 37.2646 61.14 37.5519 60.7569C37.8392 60.3702 38.237 60.07 38.7453 59.8564C39.2535 59.639 39.83 59.5304 40.4745 59.5304ZM40.4745 60.8453C40.1357 60.8453 39.8373 60.895 39.5795 60.9945C39.3254 61.0902 39.1283 61.2302 38.9883 61.4144C38.8521 61.5985 38.7858 61.814 38.7895 62.0608C38.7858 62.3186 38.8521 62.5414 38.9883 62.7293C39.1283 62.9171 39.3254 63.0608 39.5795 63.1602C39.8373 63.256 40.1357 63.3039 40.4745 63.3039C40.8097 63.3039 41.1025 63.2541 41.353 63.1547C41.6071 63.0552 41.8042 62.9116 41.9441 62.7238C42.0841 62.5359 42.1541 62.3149 42.1541 62.0608C42.1541 61.814 42.0841 61.5985 41.9441 61.4144C41.8042 61.2302 41.6071 61.0902 41.353 60.9945C41.1025 60.895 40.8097 60.8453 40.4745 60.8453ZM41.3309 56.1492V58.5967H39.6127V56.1492H41.3309ZM61.2695 56.2818V66.8343H59.5237V56.2818H61.2695ZM63.2419 60.7182V62.1492H60.7557V60.7182H63.2419ZM58.5181 57.8453V59.2265H50.1369V57.8453H58.5181ZM54.3358 59.8177C55.0062 59.8177 55.601 59.93 56.1203 60.1547C56.6397 60.3794 57.0448 60.6961 57.3358 61.105C57.6305 61.5138 57.7778 61.9853 57.7778 62.5193C57.7778 63.0497 57.6305 63.5175 57.3358 63.9227C57.0448 64.3241 56.6397 64.6354 56.1203 64.8564C55.601 65.0737 55.0062 65.1823 54.3358 65.1823C53.6544 65.1823 53.0504 65.0737 52.5237 64.8564C51.9969 64.6354 51.5881 64.3241 51.2971 63.9227C51.0062 63.5175 50.8625 63.0497 50.8662 62.5193C50.8625 61.9853 51.0062 61.5138 51.2971 61.105C51.5881 60.6961 51.9969 60.3794 52.5237 60.1547C53.0504 59.93 53.6544 59.8177 54.3358 59.8177ZM54.3358 61.1547C53.9749 61.1547 53.6581 61.2081 53.3855 61.3149C53.1167 61.4217 52.9086 61.5783 52.7612 61.7845C52.6176 61.9908 52.5476 62.2357 52.5513 62.5193C52.5476 62.7993 52.6176 63.0387 52.7612 63.2376C52.9086 63.4365 53.1167 63.5893 53.3855 63.6961C53.6581 63.7993 53.9749 63.8508 54.3358 63.8508C54.6894 63.8508 55.0006 63.7993 55.2695 63.6961C55.5384 63.5893 55.7483 63.4365 55.8993 63.2376C56.0504 63.035 56.1277 62.7956 56.1314 62.5193C56.1277 62.2394 56.0504 61.9963 55.8993 61.7901C55.7483 61.5801 55.5384 61.4217 55.2695 61.3149C55.0006 61.2081 54.6894 61.1547 54.3358 61.1547ZM55.1977 56.2707V58.5359H53.4684V56.2707H55.1977ZM61.822 68.7072V70.116H52.2198V68.7072H61.822ZM53.9491 66.0055V69.3039H52.2198V66.0055H53.9491ZM80.6625 67.2597V68.6851H67.7509V67.2597H80.6625ZM75.0713 64.0221V67.6961H73.3254V64.0221H75.0713ZM74.7509 58.7403C74.7509 59.7127 74.5022 60.6041 74.005 61.4144C73.5115 62.2247 72.8282 62.9079 71.9553 63.4641C71.086 64.0166 70.1026 64.3959 69.005 64.6022L68.3144 63.2265C69.2499 63.0718 70.0952 62.7716 70.8503 62.326C71.6091 61.8766 72.2021 61.3407 72.6293 60.7182C73.0566 60.0921 73.2702 59.4328 73.2702 58.7403V58.105H74.7509V58.7403ZM75.0934 58.7403C75.0897 59.4328 75.3033 60.0866 75.7343 60.7017C76.1689 61.3168 76.7711 61.8435 77.5409 62.2818C78.3107 62.7164 79.1781 63.0074 80.1431 63.1547L79.447 64.5304C78.331 64.3241 77.331 63.9521 76.447 63.4144C75.5667 62.8729 74.8761 62.2026 74.3752 61.4033C73.8779 60.6004 73.6293 59.7127 73.6293 58.7403V58.105H75.0934V58.7403ZM79.5409 57.4088V58.8343H68.8227V57.4088H79.5409ZM92.7226 56.2707V65.2818H90.9768V56.2707H92.7226ZM94.695 59.9834V61.442H92.2364V59.9834H94.695ZM88.1591 65.3978C89.1204 65.3978 89.9547 65.4972 90.6619 65.6961C91.369 65.895 91.9142 66.1823 92.2972 66.558C92.684 66.93 92.8773 67.3757 92.8773 67.895C92.8773 68.407 92.684 68.849 92.2972 69.221C91.9142 69.5967 91.369 69.8821 90.6619 70.0773C89.9547 70.2762 89.1204 70.3738 88.1591 70.3702C87.1867 70.3738 86.3451 70.2762 85.6342 70.0773C84.9234 69.8821 84.3783 69.5967 83.9989 69.221C83.6195 68.849 83.4317 68.407 83.4353 67.895C83.4317 67.3757 83.6195 66.93 83.9989 66.558C84.3783 66.1823 84.9234 65.895 85.6342 65.6961C86.3451 65.4972 87.1867 65.3978 88.1591 65.3978ZM88.1591 66.7348C87.5072 66.7348 86.9565 66.779 86.5072 66.8674C86.0615 66.9521 85.7226 67.081 85.4906 67.2541C85.2622 67.4273 85.1499 67.6409 85.1536 67.895C85.1499 68.1418 85.2641 68.3536 85.4961 68.5304C85.7318 68.7035 86.0725 68.8361 86.5182 68.9282C86.9676 69.0166 87.5145 69.0608 88.1591 69.0608C88.7926 69.0608 89.3322 69.0166 89.7779 68.9282C90.2236 68.8361 90.5606 68.7035 90.7889 68.5304C91.021 68.3536 91.137 68.1418 91.137 67.895C91.137 67.6409 91.021 67.4273 90.7889 67.2541C90.5606 67.081 90.2254 66.9521 89.7834 66.8674C89.3414 66.779 88.8 66.7348 88.1591 66.7348ZM89.9713 57.7017V59.0718H81.59V57.7017H89.9713ZM85.7889 59.6298C86.4593 59.6298 87.0541 59.7348 87.5735 59.9448C88.0965 60.1547 88.5035 60.4512 88.7945 60.8343C89.0854 61.2173 89.2309 61.6575 89.2309 62.1547C89.2309 62.6519 89.0854 63.0902 88.7945 63.4696C88.5035 63.849 88.0983 64.1436 87.579 64.3536C87.0597 64.5635 86.463 64.6685 85.7889 64.6685C85.1039 64.6685 84.498 64.5635 83.9713 64.3536C83.4482 64.1436 83.0412 63.8508 82.7503 63.4751C82.4593 63.0958 82.3156 62.6556 82.3193 62.1547C82.3156 61.6575 82.4593 61.2173 82.7503 60.8343C83.0412 60.4512 83.4482 60.1547 83.9713 59.9448C84.498 59.7348 85.1039 59.6298 85.7889 59.6298ZM85.7889 60.9061C85.428 60.9061 85.1112 60.9558 84.8387 61.0552C84.5698 61.1547 84.3617 61.2983 84.2143 61.4862C84.0707 61.674 84.0007 61.8969 84.0044 62.1547C84.0007 62.4052 84.0707 62.6225 84.2143 62.8066C84.3617 62.9908 84.5698 63.1308 84.8387 63.2265C85.1112 63.3186 85.428 63.3628 85.7889 63.3591C86.1425 63.3628 86.4538 63.3186 86.7226 63.2265C86.9915 63.1308 87.2015 62.9908 87.3525 62.8066C87.5035 62.6225 87.5808 62.4052 87.5845 62.1547C87.5808 61.8969 87.5035 61.674 87.3525 61.4862C87.2015 61.2983 86.9915 61.1547 86.7226 61.0552C86.4538 60.9558 86.1425 60.9061 85.7889 60.9061ZM86.6508 56.1768V58.453H84.9215V56.1768H86.6508ZM107.158 56.2707V70.4144H105.407V56.2707H107.158ZM99.5508 57.2928C100.254 57.2965 100.884 57.5046 101.44 57.9171C102 58.326 102.437 58.9061 102.75 59.6575C103.066 60.4088 103.225 61.2836 103.225 62.2818C103.225 63.2873 103.066 64.1676 102.75 64.9227C102.437 65.6777 102 66.2615 101.44 66.674C100.884 67.0829 100.254 67.2855 99.5508 67.2818C98.8362 67.2855 98.199 67.0829 97.6392 66.674C97.0793 66.2615 96.641 65.6777 96.3242 64.9227C96.0112 64.1676 95.8565 63.2873 95.8602 62.2818C95.8565 61.2836 96.0112 60.407 96.3242 59.6519C96.641 58.8969 97.0793 58.3168 97.6392 57.9116C98.2027 57.5028 98.8399 57.2965 99.5508 57.2928ZM99.5508 58.8619C99.1493 58.8619 98.7957 58.9982 98.49 59.2707C98.188 59.5433 97.9522 59.9374 97.7828 60.453C97.6171 60.965 97.5342 61.5746 97.5342 62.2818C97.5342 62.9926 97.6171 63.6077 97.7828 64.1271C97.9522 64.6427 98.188 65.0368 98.49 65.3094C98.7957 65.5783 99.1493 65.7127 99.5508 65.7127C99.9449 65.7127 100.291 65.5783 100.589 65.3094C100.891 65.0368 101.125 64.6427 101.291 64.1271C101.461 63.6077 101.545 62.9926 101.545 62.2818C101.545 61.5746 101.461 60.965 101.291 60.453C101.125 59.9374 100.891 59.5433 100.589 59.2707C100.291 58.9982 99.9449 58.8619 99.5508 58.8619ZM117.706 65.4586C117.702 66.1547 117.581 66.814 117.342 67.4365C117.102 68.0552 116.741 68.6041 116.259 69.0829C115.78 69.5617 115.19 69.9263 114.491 70.1768L113.634 68.9116C114.227 68.7053 114.726 68.4199 115.132 68.0552C115.54 67.6906 115.846 67.2855 116.049 66.8398C116.251 66.3904 116.354 65.93 116.358 65.4586V64.8785H117.706V65.4586ZM118.049 65.4586C118.049 65.9411 118.137 66.4107 118.314 66.8674C118.494 67.3204 118.771 67.7348 119.143 68.1105C119.515 68.4862 119.979 68.7845 120.535 69.0055L119.844 70.3039C119.141 70.046 118.561 69.6667 118.104 69.1657C117.647 68.6648 117.316 68.0976 117.109 67.4641C116.903 66.8306 116.802 66.1621 116.806 65.4586V64.8785H118.049V65.4586ZM122.85 65.4586C122.846 66.1068 122.736 66.7495 122.518 67.3867C122.305 68.0239 121.973 68.6004 121.524 69.116C121.074 69.6354 120.515 70.0313 119.844 70.3039L119.121 69.0055C119.662 68.7624 120.119 68.4457 120.491 68.0552C120.866 67.6611 121.144 67.2394 121.325 66.7901C121.509 66.337 121.601 65.8932 121.601 65.4586V64.8785H122.85V65.4586ZM123.314 65.4586C123.31 65.9632 123.408 66.442 123.607 66.895C123.806 67.3444 124.109 67.7459 124.518 68.0994C124.931 68.4494 125.437 68.7201 126.038 68.9116L125.187 70.1768C124.472 69.9337 123.876 69.5783 123.397 69.1105C122.918 68.6464 122.561 68.1031 122.325 67.4807C122.089 66.8582 121.971 66.1842 121.971 65.4586V64.8785H123.314V65.4586ZM124.789 56.2818V64.2818H123.049V56.2818H124.789ZM117.093 57.0331C117.811 57.0331 118.459 57.1768 119.038 57.4641C119.62 57.7477 120.074 58.1455 120.402 58.6575C120.73 59.1657 120.894 59.7459 120.894 60.3978C120.894 61.0387 120.728 61.6133 120.397 62.1215C120.065 62.6298 119.61 63.0258 119.032 63.3094C118.458 63.593 117.811 63.7348 117.093 63.7348C116.375 63.7348 115.725 63.593 115.143 63.3094C114.564 63.0258 114.109 62.6298 113.778 62.1215C113.45 61.6133 113.286 61.0387 113.286 60.3978C113.286 59.7459 113.45 59.1657 113.778 58.6575C114.109 58.1455 114.564 57.7477 115.143 57.4641C115.721 57.1768 116.371 57.0331 117.093 57.0331ZM117.093 58.4972C116.684 58.4972 116.319 58.5746 115.999 58.7293C115.679 58.884 115.428 59.1068 115.248 59.3978C115.071 59.6851 114.982 60.0184 114.982 60.3978C114.982 60.7735 115.071 61.105 115.248 61.3923C115.428 61.6759 115.679 61.8969 115.999 62.0552C116.319 62.2136 116.684 62.2928 117.093 62.2928C117.494 62.2928 117.853 62.2136 118.17 62.0552C118.487 61.8969 118.736 61.6759 118.916 61.3923C119.097 61.105 119.187 60.7735 119.187 60.3978C119.187 60.0184 119.097 59.6851 118.916 59.3978C118.736 59.1068 118.487 58.884 118.17 58.7293C117.853 58.5746 117.494 58.4972 117.093 58.4972ZM138.302 60.2597V61.6354H128.512V60.2597H138.302ZM139.755 63.2818V64.6519H126.844V63.2818H139.755ZM130.241 56.779V60.9558H128.512V56.779H130.241ZM138.391 68.6519V70.0608H128.396V68.6519H138.391ZM130.131 65.9006V69.0442H128.396V65.9006H130.131ZM145.666 60.2762C145.663 61.3407 145.495 62.3665 145.164 63.3536C144.836 64.3407 144.366 65.2173 143.755 65.9834C143.143 66.7459 142.432 67.3204 141.622 67.7072L140.622 66.337C141.348 66.0055 141.983 65.5175 142.528 64.8729C143.077 64.2247 143.501 63.5009 143.799 62.7017C144.097 61.8987 144.248 61.0902 144.252 60.2762V58.4088H145.666V60.2762ZM146.02 60.2762C146.02 61.0608 146.165 61.8324 146.456 62.5912C146.747 63.3462 147.167 64.0239 147.716 64.6243C148.268 65.221 148.913 65.674 149.65 65.9834L148.705 67.3536C147.869 66.989 147.141 66.4475 146.523 65.7293C145.908 65.011 145.438 64.1823 145.114 63.2431C144.793 62.3002 144.635 61.3112 144.639 60.2762V58.4088H146.02V60.2762ZM149.103 57.663V59.0884H141.141V57.663H149.103ZM152.44 56.2707V70.3812H150.688V56.2707H152.44ZM34.4254 81.4972V82.884H29.3149V81.4972H34.4254ZM35.3812 86.2707V87.674H22.4696V86.2707H35.3812ZM29.7293 83.5249V86.9227H28.011V83.5249H29.7293ZM34.2983 76.5028V77.895H31.0552V82.2265H29.3149V76.5028H34.2983ZM28.442 76.5083V77.9061H25.2431V82.1271H23.5028V76.5083H28.442ZM24.3702 81.4641C25.1878 81.4715 25.9208 81.4512 26.5691 81.4033C27.2173 81.3517 27.8766 81.256 28.547 81.116L28.674 82.547C28.2099 82.6464 27.7514 82.7219 27.2983 82.7735C26.8453 82.8214 26.3978 82.8527 25.9558 82.8674C25.5175 82.8785 24.989 82.884 24.3702 82.884H23.5028V81.4641H24.3702ZM47.4414 75.2707V83.768H45.6955V75.2707H47.4414ZM49.4138 78.8011V80.2155H46.9552V78.8011H49.4138ZM47.4414 84.4254V89.3812H45.6955V85.8177H38.027V84.4254H47.4414ZM38.4966 76.1547V78.1492H41.7895V76.1547H43.5243V82.9448H36.7784V76.1547H38.4966ZM38.4966 81.5635H41.7895V79.5083H38.4966V81.5635ZM61.8772 75.2707V89.4144H60.1259V75.2707H61.8772ZM54.2695 76.2928C54.973 76.2965 55.6028 76.5046 56.159 76.9171C56.7189 77.326 57.1553 77.9061 57.4684 78.6575C57.7852 79.4088 57.9435 80.2836 57.9435 81.2818C57.9435 82.2873 57.7852 83.1676 57.4684 83.9227C57.1553 84.6777 56.7189 85.2615 56.159 85.674C55.6028 86.0829 54.973 86.2855 54.2695 86.2818C53.555 86.2855 52.9178 86.0829 52.3579 85.674C51.7981 85.2615 51.3597 84.6777 51.043 83.9227C50.7299 83.1676 50.5752 82.2873 50.5789 81.2818C50.5752 80.2836 50.7299 79.407 51.043 78.6519C51.3597 77.8969 51.7981 77.3168 52.3579 76.9116C52.9214 76.5028 53.5586 76.2965 54.2695 76.2928ZM54.2695 77.8619C53.868 77.8619 53.5144 77.9982 53.2087 78.2707C52.9067 78.5433 52.671 78.9374 52.5016 79.453C52.3358 79.965 52.2529 80.5746 52.2529 81.2818C52.2529 81.9926 52.3358 82.6077 52.5016 83.1271C52.671 83.6427 52.9067 84.0368 53.2087 84.3094C53.5144 84.5783 53.868 84.7127 54.2695 84.7127C54.6636 84.7127 55.0098 84.5783 55.3082 84.3094C55.6102 84.0368 55.8441 83.6427 56.0098 83.1271C56.1793 82.6077 56.264 81.9926 56.264 81.2818C56.264 80.5746 56.1793 79.965 56.0098 79.453C55.8441 78.9374 55.6102 78.5433 55.3082 78.2707C55.0098 77.9982 54.6636 77.8619 54.2695 77.8619ZM75.0148 75.2707V89.3591H73.2744V75.2707H75.0148ZM77.1087 80.7845V82.2265H74.5672V80.7845H77.1087ZM71.2855 76.7348C71.2818 78.175 71.0645 79.5157 70.6335 80.7569C70.2063 81.9982 69.5157 83.1363 68.5617 84.1713C67.6114 85.2026 66.3776 86.0921 64.8601 86.8398L63.8822 85.5028C65.1602 84.8619 66.2192 84.1271 67.059 83.2983C67.8987 82.4696 68.5286 81.5359 68.9485 80.4972C69.3684 79.4586 69.5783 78.3076 69.5783 77.0442V76.7348H71.2855ZM70.4623 76.7348V78.1657H64.6335V76.7348H70.4623ZM93.7282 75.2707V89.3812H92.0818V75.2707H93.7282ZM92.4961 80.7901V82.1934H89.9823V80.7901H92.4961ZM90.4906 75.5359V88.6796H88.8939V75.5359H90.4906ZM82.9768 84.6298C84.0449 84.6298 84.9528 84.6059 85.7005 84.558C86.4482 84.5101 87.2125 84.4107 87.9934 84.2597L88.1315 85.6851C87.3359 85.8435 86.555 85.9484 85.7889 86C85.0265 86.0516 84.0891 86.081 82.9768 86.0884H82.0155V84.6298H82.9768ZM87.2917 76.9392V78.337H83.7558V85.326H82.0155V76.9392H87.2917ZM107.164 75.2818V85.6022H105.424V75.2818H107.164ZM107.562 87.7072V89.116H97.8215V87.7072H107.562ZM99.5729 84.6133V88.4309H97.8215V84.6133H99.5729ZM100.324 77.442C100.321 78.3775 100.164 79.2597 99.8546 80.0884C99.5489 80.9134 99.0959 81.6354 98.4955 82.2541C97.8988 82.8729 97.1788 83.3352 96.3353 83.6409L95.4182 82.2707C96.1622 82.0092 96.7939 81.6298 97.3132 81.1326C97.8325 80.6317 98.223 80.0645 98.4845 79.4309C98.7497 78.7937 98.8823 78.1308 98.8823 77.442V76.0608H100.324V77.442ZM100.678 77.442C100.674 78.1087 100.801 78.744 101.059 79.3481C101.317 79.9484 101.7 80.4825 102.208 80.9503C102.717 81.4144 103.335 81.7698 104.065 82.0166L103.175 83.3923C102.335 83.0976 101.619 82.6593 101.026 82.0773C100.433 81.4917 99.9835 80.8029 99.6778 80.011C99.3758 79.2192 99.2266 78.3628 99.2303 77.442V76.0608H100.678V77.442ZM124.767 75.2707V82.6519H123.049V75.2707H124.767ZM115.645 87.9171C116.824 87.9171 117.745 87.8987 118.408 87.8619C119.074 87.8214 119.745 87.7366 120.419 87.6077L120.585 88.895C119.888 89.0313 119.198 89.1197 118.513 89.1602C117.828 89.2007 116.872 89.2192 115.645 89.2155H114.734V87.9171H115.645ZM119.546 83.2265V86.7569H116.413V88.6519H114.734V85.5414H117.839V84.5359H114.734V83.2265H119.546ZM124.767 83.2265V89.3149H123.071V84.6354H120.109V83.2265H124.767ZM117.038 75.8674C117.745 75.8637 118.38 76 118.944 76.2762C119.511 76.5488 119.957 76.93 120.281 77.4199C120.609 77.9098 120.772 78.4641 120.772 79.0829C120.772 79.7017 120.609 80.256 120.281 80.7459C119.957 81.232 119.511 81.6133 118.944 81.8895C118.38 82.1621 117.745 82.2983 117.038 82.2983C116.327 82.2983 115.684 82.1621 115.109 81.8895C114.539 81.6133 114.091 81.232 113.767 80.7459C113.446 80.256 113.286 79.7017 113.286 79.0829C113.286 78.4641 113.446 77.9098 113.767 77.4199C114.091 76.93 114.539 76.5488 115.109 76.2762C115.684 76 116.327 75.8637 117.038 75.8674ZM117.038 77.3039C116.64 77.3002 116.284 77.372 115.971 77.5193C115.658 77.6667 115.413 77.8748 115.237 78.1436C115.06 78.4125 114.973 78.7256 114.977 79.0829C114.973 79.4365 115.06 79.7514 115.237 80.0276C115.413 80.3002 115.658 80.512 115.971 80.663C116.288 80.814 116.644 80.8895 117.038 80.8895C117.428 80.8895 117.778 80.814 118.087 80.663C118.4 80.512 118.645 80.3002 118.822 80.0276C118.999 79.7514 119.087 79.4365 119.087 79.0829C119.087 78.7256 118.999 78.4125 118.822 78.1436C118.645 77.8748 118.402 77.6667 118.093 77.5193C117.783 77.372 117.432 77.3002 117.038 77.3039ZM130.717 76.2928C131.416 76.2965 132.039 76.5028 132.584 76.9116C133.133 77.3168 133.56 77.8969 133.866 78.6519C134.171 79.4033 134.326 80.2799 134.33 81.2818C134.326 82.2873 134.171 83.1676 133.866 83.9227C133.56 84.6777 133.133 85.2597 132.584 85.6685C132.039 86.0773 131.416 86.2818 130.717 86.2818C130.013 86.2818 129.385 86.0773 128.833 85.6685C128.284 85.2597 127.857 84.6777 127.551 83.9227C127.245 83.1676 127.094 82.2873 127.098 81.2818C127.094 80.2799 127.245 79.4033 127.551 78.6519C127.857 77.8969 128.284 77.3168 128.833 76.9116C129.385 76.5028 130.013 76.2965 130.717 76.2928ZM130.717 77.8619C130.33 77.8619 129.987 77.9982 129.689 78.2707C129.394 78.5433 129.164 78.9374 128.998 79.453C128.836 79.9687 128.757 80.5783 128.761 81.2818C128.757 81.9926 128.836 82.6077 128.998 83.1271C129.164 83.6427 129.394 84.0368 129.689 84.3094C129.987 84.5783 130.33 84.7127 130.717 84.7127C131.107 84.7127 131.45 84.5783 131.744 84.3094C132.039 84.0368 132.267 83.6427 132.429 83.1271C132.595 82.6077 132.68 81.9926 132.683 81.2818C132.68 80.5746 132.595 79.965 132.429 79.453C132.267 78.9374 132.039 78.5433 131.744 78.2707C131.45 77.9982 131.107 77.8619 130.717 77.8619ZM138.7 75.2707V89.4144H136.976V75.2707H138.7ZM137.722 80.4641V81.8674H133.799V80.4641H137.722ZM152.152 81.884V83.2873H142.252V81.884H152.152ZM153.6 86.1602V87.5967H140.688V86.1602H153.6ZM152.042 76.4972V77.9061H143.97V82.4917H142.252V76.4972H152.042ZM156.417 80.9171C157.511 80.9171 158.415 80.9079 159.13 80.8895C159.844 80.8711 160.522 80.8361 161.163 80.7845C161.807 80.733 162.463 80.6556 163.13 80.5525L163.295 81.8619C162.301 82.0239 161.307 82.1326 160.312 82.1878C159.318 82.2431 158.019 82.2689 156.417 82.2652H155.229V80.9171H156.417ZM161.793 75.9392V79.6409H156.947V81.558H155.229V78.4033H160.08V77.2707H155.185V75.9392H161.793ZM166.273 83.1989V86.8011H158.682V88.4972H156.942V85.5304H164.494V84.5249H156.898V83.1989H166.273ZM166.699 87.9171V89.2652H156.942V87.9171H166.699ZM166.273 75.2707V82.6575H164.533V75.2707H166.273ZM180.521 75.2707V89.3812H178.881V75.2707H180.521ZM176.262 80.8287V82.2155H173.002V80.8287H176.262ZM177.532 75.6133V88.7238H175.897V75.6133H177.532ZM174.488 76.9889C174.485 78.3407 174.311 79.5856 173.969 80.7238C173.626 81.8582 173.067 82.9042 172.289 83.8619C171.512 84.8195 170.49 85.6685 169.223 86.4088L168.234 85.1768C169.313 84.5359 170.188 83.8232 170.858 83.0387C171.532 82.2541 172.024 81.3941 172.334 80.4586C172.647 79.5193 172.805 78.477 172.809 77.3315V76.9889H174.488ZM173.389 76.9889V78.3978H168.952V76.9889H173.389ZM186.874 82.4807V86.5249H185.156V82.4807H186.874ZM192.106 82.4807V86.5249H190.35V82.4807H192.106ZM195.084 86.2486V87.674H182.173V86.2486H195.084ZM188.598 76.0221C189.607 76.0258 190.512 76.1823 191.311 76.4917C192.11 76.8011 192.734 77.2394 193.184 77.8066C193.637 78.3738 193.863 79.0258 193.863 79.7624C193.863 80.5028 193.639 81.1547 193.189 81.7182C192.74 82.2818 192.116 82.7182 191.316 83.0276C190.517 83.3333 189.611 83.4862 188.598 83.4862C187.585 83.4862 186.681 83.3333 185.885 83.0276C185.094 82.7182 184.473 82.2818 184.024 81.7182C183.574 81.1547 183.351 80.5028 183.355 79.7624C183.351 79.0258 183.574 78.3738 184.024 77.8066C184.473 77.2394 185.095 76.8011 185.891 76.4917C186.69 76.1823 187.593 76.0258 188.598 76.0221ZM188.598 77.4088C187.895 77.4052 187.276 77.4972 186.742 77.6851C186.208 77.8729 185.793 78.1455 185.499 78.5028C185.204 78.86 185.057 79.2799 185.057 79.7624C185.057 80.2376 185.204 80.6538 185.499 81.011C185.793 81.3683 186.208 81.6446 186.742 81.8398C187.28 82.035 187.898 82.1326 188.598 82.1326C189.298 82.1326 189.915 82.035 190.449 81.8398C190.987 81.6446 191.405 81.3683 191.703 81.011C192.005 80.6538 192.156 80.2376 192.156 79.7624C192.156 79.2799 192.005 78.86 191.703 78.5028C191.405 78.1455 190.987 77.8729 190.449 77.6851C189.915 77.4972 189.298 77.4052 188.598 77.4088ZM197.714 88.1215C197.496 88.1215 197.294 88.0681 197.106 87.9613C196.918 87.8508 196.769 87.7035 196.658 87.5193C196.552 87.3352 196.5 87.1326 196.504 86.9116C196.5 86.6943 196.552 86.4954 196.658 86.3149C196.769 86.1308 196.918 85.9853 197.106 85.8785C197.294 85.768 197.496 85.7127 197.714 85.7127C197.927 85.7127 198.126 85.768 198.31 85.8785C198.494 85.9853 198.642 86.1308 198.752 86.3149C198.866 86.4991 198.924 86.698 198.924 86.9116C198.924 87.1289 198.868 87.3297 198.758 87.5138C198.647 87.698 198.498 87.8453 198.31 87.9558C198.126 88.0663 197.927 88.1215 197.714 88.1215Z" fill="#FCFCFC"/>
<path d="M202.975 129.825L235.515 139.337C236.528 139.633 236.701 140.977 235.778 141.487C224.194 147.881 200.516 157.618 181.743 154.128C161.735 150.408 186.78 136.52 202.166 129.872C202.423 129.761 202.706 129.746 202.975 129.825Z" fill="#C1D8FC"/>
<circle cx="258.541" cy="147.5" r="64.5" fill="url(#paint0_radial_432_1725)"/>
<circle cx="233.502" cy="119.657" r="4.50636" fill="#2B2B2B" stroke="#2B2B2B" stroke-width="0.201562"/>
<circle cx="260.342" cy="119.657" r="4.50636" fill="#2B2B2B" stroke="#2B2B2B" stroke-width="0.201562"/>
<line x1="230.4" y1="109.539" x2="237.005" y2="109.539" stroke="#2B2B2B" stroke-width="2.2089" stroke-linecap="round"/>
<line x1="257.242" y1="109.539" x2="263.847" y2="109.539" stroke="#2B2B2B" stroke-width="2.2089" stroke-linecap="round"/>
<circle opacity="0.12" cx="216.877" cy="129.872" r="12.8199" fill="white"/>
<circle opacity="0.12" cx="276.969" cy="129.872" r="12.8199" fill="white"/>
<path d="M223.603 129.446C222.823 129.224 222.823 128.118 223.603 127.896L246.998 121.229C247.35 121.129 247.724 121.278 247.912 121.592L251.884 128.258C252.036 128.512 252.036 128.829 251.884 129.084L247.912 135.75C247.724 136.064 247.35 136.213 246.998 136.113L223.603 129.446Z" fill="#FF4949"/>
<path d="M318.133 130.144L285.616 139.737C284.604 140.036 284.434 141.38 285.358 141.887C296.958 148.253 320.661 157.931 339.425 154.394C359.424 150.625 334.344 136.799 318.942 130.19C318.684 130.079 318.402 130.065 318.133 130.144Z" fill="#C1D8FC"/>
</g>
<defs>
<radialGradient id="paint0_radial_432_1725" cx="0" cy="0" r="1" gradientUnits="userSpaceOnUse" gradientTransform="translate(282.779 186.761) rotate(-122.729) scale(109.294)">
<stop stop-color="#5197FF"/>
<stop offset="1" stop-color="#F6FAFF"/>
</radialGradient>
<clipPath id="clip0_432_1725">
<rect width="353" height="182" rx="10" fill="white"/>
</clipPath>
</defs>
</svg>
