<svg width="27" height="27" viewBox="0 0 27 27" fill="none" xmlns="http://www.w3.org/2000/svg">
<path d="M15.8047 0.395266C15.5515 0.142177 15.2082 0 14.8503 0C14.4923 0 14.149 0.142177 13.8958 0.395266L6.01178 8.27935C5.99153 8.278 5.97263 8.2672 5.95238 8.2672C5.59437 8.26728 5.25105 8.40956 4.99793 8.66275L3.08903 10.5717C2.713 10.9479 2.41479 11.3946 2.21141 11.8861C2.00804 12.3777 1.90348 12.9045 1.90372 13.4364C1.90372 14.5191 2.32627 15.537 3.09038 16.2998L4.04483 17.2542L1.18012 20.119C0.802309 20.49 0.503113 20.9333 0.300393 21.4225C0.0976734 21.9117 -0.0044162 22.4367 0.000218017 22.9662C-0.00596761 23.5593 0.119543 24.1465 0.3677 24.6853C0.615857 25.2241 0.980477 25.7011 1.43527 26.082C2.13592 26.6746 3.03908 27 3.98003 27C5.10593 27 6.21293 26.5396 7.01754 25.735L9.77154 22.9824L10.726 23.9355C12.2569 25.465 14.9232 25.4664 16.4527 23.9368L18.363 22.0279C18.6162 21.7748 18.7584 21.4315 18.7585 21.0734C18.7585 21.0383 18.741 21.0059 18.7383 20.9708L26.6047 13.1043C26.8578 12.8511 27 12.5078 27 12.1498C27 11.7919 26.8578 11.4485 26.6047 11.1954L15.8047 0.395266ZM14.5425 22.0279C14.2853 22.2735 13.9433 22.4104 13.5877 22.4101C13.2322 22.4099 12.8904 22.2725 12.6335 22.0265L10.7246 20.119C10.4715 19.8659 10.1282 19.7237 9.77019 19.7237C9.41222 19.7237 9.0689 19.8659 8.81574 20.119L5.10863 23.8248C4.80909 24.1247 4.40391 24.2953 3.98003 24.3C3.68764 24.3059 3.40292 24.2062 3.17813 24.0192C3.02358 23.891 2.90024 23.7293 2.81744 23.5464C2.73464 23.3635 2.69456 23.1642 2.70022 22.9635C2.69889 22.7897 2.7325 22.6175 2.79906 22.457C2.86562 22.2965 2.96377 22.151 3.08768 22.0292L6.90684 18.2101C7.15992 17.9569 7.3021 17.6136 7.3021 17.2556C7.3021 16.8976 7.15992 16.5543 6.90684 16.3011L4.99658 14.3909C4.74421 14.1379 4.60246 13.7951 4.60238 13.4378C4.60238 13.076 4.74278 12.7371 4.99793 12.4819L5.95238 11.5275L15.4983 21.0748L14.5425 22.0279ZM17.0926 18.7987L8.20149 9.90747L14.8503 3.25865L23.7414 12.1498L17.0926 18.7987Z" fill="white"/>
</svg>
