<svg width="13" height="24" viewBox="0 0 13 24" fill="none" xmlns="http://www.w3.org/2000/svg">
<path d="M2.76508 12.0081L12.6278 21.8709C12.8575 22.1005 12.9723 22.3875 12.9723 22.7319C12.9723 23.0763 12.8575 23.3738 12.6278 23.6243C12.3774 23.8748 12.0799 24 11.7355 24C11.3911 24 11.0936 23.8748 10.8431 23.6243L0.542042 13.3232C0.35418 13.1353 0.218499 12.9266 0.135007 12.697C0.0515149 12.4674 0.00976562 12.2378 0.00976562 12.0081C0.00976562 11.7786 0.0515149 11.5489 0.135007 11.3193C0.218499 11.0897 0.35418 10.881 0.542042 10.6931L10.8745 0.360695C11.1249 0.110213 11.4172 -0.00981243 11.7511 0.000626438C12.0851 0.0110653 12.3774 0.141523 12.6278 0.392006C12.8575 0.642488 12.9774 0.93472 12.9879 1.2687C12.9984 1.60267 12.8783 1.8949 12.6278 2.14539L2.76508 12.0081Z" fill="#F8F8F8"/>
</svg>
