<svg width="172" height="139" viewBox="0 0 172 139" fill="none" xmlns="http://www.w3.org/2000/svg">
<g clip-path="url(#clip0_670_2392)">
<rect width="172" height="139" fill="#FCFCFC"/>
<path opacity="0.9" d="M52.9904 27L65.4423 20.1429L57.0288 31.6667L69 36.3333L54.6731 38.4762L55.3462 48L48.9519 39.1429L41.0673 44L44.5769 34.6667L34 31.6667L42.75 29L44.5769 17L52.9904 27Z" fill="#1F79FF"/>
<rect opacity="0.4" y="61.9497" width="88.1921" height="103.87" rx="10" transform="rotate(-19.163 0 61.9497)" fill="#616161"/>
<path opacity="0.8" d="M110.5 21.4998L151.121 -11.0019L136 34.9998L178.659 38.5039L131 57.5863L145.394 90.0973L115.763 67.3812L108.5 94.9998L97.0433 57.0235L59.4625 57.5863L83.0004 28.9998L79.7076 -0.806896L110.5 21.4998Z" fill="#1F79FF"/>
<rect x="5" y="50.0332" width="92.3282" height="108.815" rx="10" transform="rotate(-15.0881 5 50.0332)" fill="#EFEFEF"/>
<g clip-path="url(#clip1_670_2392)">
<rect x="11.8799" y="54.4395" width="80.7871" height="75.841" rx="8" transform="rotate(-15.0881 11.8799 54.4395)" fill="url(#paint0_linear_670_2392)"/>
<path opacity="0.12" d="M27.8409 89.4279C32.7984 88.1733 37.8483 90.5776 40.3088 94.9718C41.3951 91.2851 44.2692 88.281 48.1673 87.2943C54.1297 85.7853 60.2302 89.567 61.7929 95.7406C61.9081 96.1959 61.9923 96.6522 62.0529 97.1062C62.0796 97.0993 62.1063 97.0917 62.1331 97.0849C68.0956 95.5758 74.1961 99.3574 75.7587 105.531C77.3213 111.705 73.7543 117.933 67.7917 119.442C66.9939 119.644 66.1934 119.748 65.4019 119.767L65.8087 121.375L31.2339 130.126L30.915 128.865C29.9036 129.549 28.7648 130.072 27.5196 130.388C21.5571 131.897 15.4566 128.115 13.894 121.941C12.3317 115.768 15.8988 109.54 21.8613 108.031C21.9724 108.003 22.0835 107.976 22.1948 107.952C21.1269 106.651 20.3175 105.092 19.8739 103.339C18.3113 97.1654 21.8783 90.937 27.8409 89.4279Z" fill="#1F79FF"/>
<path opacity="0.12" d="M76.7533 57.8825C80.501 56.934 84.3185 58.752 86.1782 62.0741C86.9992 59.2869 89.1715 57.0161 92.1184 56.2703C96.6253 55.1297 101.236 57.9877 102.418 62.6543C102.505 62.9985 102.568 63.3434 102.613 63.6866C102.634 63.6813 102.654 63.6753 102.675 63.6701C107.182 62.5296 111.793 65.3884 112.974 70.055C114.155 74.7215 111.459 79.429 106.952 80.5698C106.473 80.6909 105.993 80.7635 105.517 80.7971L105.588 81.0792L78.8434 87.8482C78.1386 88.2898 77.3564 88.6295 76.5104 88.8436C72.0035 89.9843 67.3925 87.1261 66.2113 82.4596C65.0301 77.793 67.7262 73.0846 72.2332 71.9439C72.3177 71.9225 72.403 71.9051 72.4876 71.8865C71.6795 70.9029 71.0667 69.7231 70.7311 68.3974C69.5503 63.7308 72.2464 59.0232 76.7533 57.8825Z" fill="#1F79FF"/>
</g>
<path d="M50.1992 91.002C50.1992 91.9408 50.0579 92.8454 49.7754 93.7158C49.4928 94.5817 49.0918 95.3519 48.5723 96.0264C48.0527 96.7008 47.4535 97.2113 46.7744 97.5576L45.9814 96.5254C46.5967 96.2246 47.1436 95.7826 47.6221 95.1992C48.1051 94.6159 48.4788 93.9574 48.7432 93.2236C49.0075 92.4899 49.1396 91.7493 49.1396 91.002V88.9375H50.1992V91.002ZM50.4385 91.002C50.4385 91.7266 50.5661 92.4398 50.8213 93.1416C51.0765 93.8389 51.4365 94.4655 51.9014 95.0215C52.3662 95.5729 52.8949 95.999 53.4873 96.2998L52.6943 97.3457C52.0426 96.9948 51.4639 96.4958 50.958 95.8486C50.4521 95.2015 50.0625 94.4609 49.7891 93.627C49.5202 92.7884 49.3857 91.9134 49.3857 91.002V88.9375H50.4385V91.002ZM55.7227 100.155H54.4102V87.9189H55.7227V100.155ZM57.6846 93.8936H55.4287V92.793H57.6846V93.8936ZM62.5723 90.4551C62.5723 91.1979 62.431 91.8997 62.1484 92.5605C61.8659 93.2214 61.4626 93.7979 60.9385 94.29C60.4144 94.7777 59.7946 95.1468 59.0791 95.3975L58.416 94.3721C59.0449 94.1533 59.5895 93.8434 60.0498 93.4424C60.5146 93.0413 60.8701 92.5833 61.1162 92.0684C61.3623 91.5488 61.4854 91.0111 61.4854 90.4551V89.2588H62.5723V90.4551ZM62.8184 90.4551C62.8184 90.9837 62.9437 91.4941 63.1943 91.9863C63.445 92.474 63.8005 92.9069 64.2607 93.2852C64.721 93.6589 65.2611 93.946 65.8809 94.1465L65.2041 95.1582C64.5068 94.9258 63.8962 94.5794 63.3721 94.1191C62.848 93.6543 62.4447 93.1074 62.1621 92.4785C61.8841 91.8451 61.7451 91.1706 61.7451 90.4551V89.2588H62.8184V90.4551ZM65.5186 89.9355H58.751V88.876H65.5186V89.9355ZM68.4443 96.8467H67.1318V87.9258H68.4443V96.8467ZM68.8066 99.9023H60.4326V98.8359H68.8066V99.9023ZM61.7314 99.3281H60.4326V96.0195H61.7314V99.3281ZM83.4766 97.0859H82.1641V87.9258H83.4766V97.0859ZM85.2471 92.9434H83.0801V91.8564H85.2471V92.9434ZM81.1592 90.3936H73.8789V89.3477H81.1592V90.3936ZM77.5156 91.002C78.099 91.002 78.6139 91.0977 79.0605 91.2891C79.5117 91.4805 79.8626 91.7516 80.1133 92.1025C80.3685 92.4489 80.4961 92.8477 80.4961 93.2988C80.4961 93.7546 80.3685 94.1579 80.1133 94.5088C79.8626 94.8551 79.5117 95.124 79.0605 95.3154C78.6139 95.5068 78.099 95.6025 77.5156 95.6025C76.9323 95.6025 76.415 95.5068 75.9639 95.3154C75.5173 95.124 75.1663 94.8551 74.9111 94.5088C74.6605 94.1579 74.5352 93.7546 74.5352 93.2988C74.5352 92.8477 74.6605 92.4489 74.9111 92.1025C75.1663 91.7516 75.5195 91.4805 75.9707 91.2891C76.4219 91.0977 76.9368 91.002 77.5156 91.002ZM77.5156 92C77.1738 92 76.873 92.0547 76.6133 92.1641C76.3535 92.2689 76.1484 92.4193 75.998 92.6152C75.8477 92.8112 75.7725 93.0391 75.7725 93.2988C75.7725 93.554 75.8477 93.7796 75.998 93.9756C76.1484 94.1715 76.3535 94.3242 76.6133 94.4336C76.873 94.5384 77.1738 94.5908 77.5156 94.5908C77.8574 94.5908 78.1582 94.5384 78.418 94.4336C78.6777 94.3242 78.8805 94.1715 79.0264 93.9756C79.1722 93.7796 79.2451 93.554 79.2451 93.2988C79.2451 93.0391 79.1722 92.8112 79.0264 92.6152C78.8805 92.4193 78.6777 92.2689 78.418 92.1641C78.1582 92.0547 77.8574 92 77.5156 92ZM78.1787 89.874H76.8662V87.9121H78.1787V89.874ZM84.0029 99.9023H75.7041V98.8359H84.0029V99.9023ZM77.0166 99.2871H75.7041V96.3682H77.0166V99.2871ZM93.457 90.1611C93.457 90.9176 93.318 91.6286 93.04 92.2939C92.7666 92.9548 92.3701 93.5312 91.8506 94.0234C91.3311 94.5156 90.7135 94.8848 89.998 95.1309L89.335 94.0918C89.9684 93.8776 90.513 93.57 90.9688 93.1689C91.429 92.7679 91.7799 92.3076 92.0215 91.7881C92.2676 91.2686 92.3906 90.7262 92.3906 90.1611V89.2451H93.457V90.1611ZM93.6963 90.1611C93.6963 90.6761 93.8125 91.1683 94.0449 91.6377C94.2773 92.1071 94.6146 92.5241 95.0566 92.8887C95.5033 93.2487 96.0319 93.529 96.6426 93.7295L96.0137 94.7412C95.3073 94.5133 94.7012 94.1738 94.1953 93.7227C93.6895 93.2715 93.3021 92.7406 93.0332 92.1299C92.7643 91.5192 92.6299 90.863 92.6299 90.1611V89.2451H93.6963V90.1611ZM96.335 89.8467H89.7109V88.7803H96.335V89.8467ZM99.0488 95.2607H97.7363V87.9189H99.0488V95.2607ZM100.819 92.0137H98.6865V90.9336H100.819V92.0137ZM95.084 95.5547C95.9271 95.5547 96.654 95.6458 97.2646 95.8281C97.8799 96.0059 98.3493 96.2656 98.6729 96.6074C99.001 96.9492 99.165 97.3594 99.165 97.8379C99.165 98.3164 99.001 98.7266 98.6729 99.0684C98.3493 99.4147 97.8799 99.679 97.2646 99.8613C96.654 100.048 95.9271 100.142 95.084 100.142C94.2454 100.142 93.5186 100.048 92.9033 99.8613C92.2881 99.679 91.8141 99.4147 91.4814 99.0684C91.1533 98.7266 90.9893 98.3164 90.9893 97.8379C90.9893 97.3594 91.1533 96.9492 91.4814 96.6074C91.8141 96.2656 92.2881 96.0059 92.9033 95.8281C93.5186 95.6458 94.2454 95.5547 95.084 95.5547ZM95.084 96.5938C94.4961 96.5938 93.9902 96.6416 93.5664 96.7373C93.1471 96.8285 92.8258 96.9674 92.6025 97.1543C92.3838 97.3411 92.2744 97.569 92.2744 97.8379C92.2744 98.1022 92.3838 98.3324 92.6025 98.5283C92.8258 98.7197 93.1471 98.8656 93.5664 98.9658C93.9902 99.0615 94.4961 99.1094 95.084 99.1094C95.6764 99.1094 96.18 99.0615 96.5947 98.9658C97.014 98.8656 97.333 98.7197 97.5518 98.5283C97.7751 98.3324 97.8867 98.1022 97.8867 97.8379C97.8867 97.569 97.7751 97.3411 97.5518 97.1543C97.333 96.9674 97.014 96.8285 96.5947 96.7373C96.18 96.6416 95.6764 96.5938 95.084 96.5938ZM107.095 88.6436C107.951 88.6436 108.724 88.7871 109.412 89.0742C110.1 89.3568 110.64 89.7578 111.032 90.2773C111.429 90.7969 111.627 91.3916 111.627 92.0615C111.627 92.736 111.429 93.3353 111.032 93.8594C110.64 94.3789 110.1 94.7822 109.412 95.0693C108.724 95.3519 107.951 95.4932 107.095 95.4932C106.243 95.4932 105.472 95.3519 104.784 95.0693C104.101 94.7822 103.561 94.3789 103.164 93.8594C102.768 93.3353 102.569 92.736 102.569 92.0615C102.569 91.3916 102.768 90.7969 103.164 90.2773C103.561 89.7578 104.101 89.3568 104.784 89.0742C105.472 88.7871 106.243 88.6436 107.095 88.6436ZM107.095 89.7031C106.479 89.7031 105.924 89.8011 105.427 89.9971C104.935 90.1885 104.547 90.4642 104.265 90.8242C103.982 91.1797 103.841 91.5921 103.841 92.0615C103.841 92.5309 103.98 92.9456 104.258 93.3057C104.54 93.6611 104.928 93.9368 105.42 94.1328C105.912 94.3242 106.47 94.4199 107.095 94.4199C107.719 94.4199 108.277 94.3242 108.77 94.1328C109.266 93.9368 109.656 93.6611 109.938 93.3057C110.221 92.9456 110.362 92.5309 110.362 92.0615C110.362 91.5921 110.221 91.1797 109.938 90.8242C109.656 90.4642 109.269 90.1885 108.776 89.9971C108.284 89.8011 107.724 89.7031 107.095 89.7031ZM112.721 98.583H101.523V97.4961H112.721V98.583ZM124.82 98.6855H113.623V97.6123H124.82V98.6855ZM119.851 98.0635H118.545V95.0898H119.851V98.0635ZM123.467 92.6084H116.275V94.9395H114.99V91.5625H122.182V89.833H114.963V88.7871H123.467V92.6084ZM123.754 95.459H114.99V94.4062H123.754V95.459ZM53.6476 105.271V119.381H51.9072V105.271H53.6476ZM55.8244 110.641V112.105H53.2664V110.641H55.8244ZM44.8078 106.42V109.95H48.1393V106.42H49.863V116.077H43.0785V106.42H44.8078ZM44.8078 114.652H48.1393V111.309H44.8078V114.652ZM69.3265 116.315V117.751H56.4149V116.315H69.3265ZM63.7022 113.525V116.923H61.9785V113.525H63.7022ZM67.7961 106.232V110.768H59.6801V113.32H57.9453V109.392H66.0779V107.635H57.9232V106.232H67.7961ZM68.1221 112.591V114.011H57.9453V112.591H68.1221ZM86.935 112.586V113.967H74.0234V112.586H86.935ZM81.4819 113.304V116.398H79.7637V113.304H81.4819ZM85.5095 117.707V119.116H75.5869V117.707H85.5095ZM77.3106 115.227V118.282H75.5869V115.227H77.3106ZM77.4211 105.718V107.309H83.5206V105.718H85.2499V111.464H75.7029V105.718H77.4211ZM77.4211 110.088H83.5206V108.608H77.4211V110.088ZM98.2272 108.011V109.436H95.1498V108.011H98.2272ZM92.6747 107.398C92.6747 108.326 92.5218 109.19 92.2161 109.989C91.9141 110.785 91.4684 111.477 90.8791 112.066C90.2935 112.656 89.5826 113.105 88.7465 113.414L87.8073 112.011C88.555 111.764 89.1848 111.409 89.6968 110.945C90.2124 110.477 90.5992 109.941 90.857 109.337C91.1148 108.729 91.2456 108.083 91.2493 107.398V105.994H92.6747V107.398ZM93.0006 107.497C92.997 108.116 93.1185 108.707 93.3653 109.271C93.6157 109.831 93.9896 110.328 94.4868 110.762C94.9878 111.193 95.5918 111.525 96.299 111.757L95.3708 113.138C94.5679 112.858 93.8809 112.438 93.31 111.878C92.7428 111.319 92.3137 110.665 92.0227 109.917C91.7355 109.166 91.5936 108.359 91.5973 107.497V105.994H93.0006V107.497ZM99.6968 114.337V119.381H97.962V115.713H90.0669V114.337H99.6968ZM99.6968 105.271V113.652H97.962V105.271H99.6968ZM112.757 105.271V119.381H111.039V105.271H112.757ZM114.934 110.895V112.326H112.376V110.895H114.934ZM109.95 107.431V108.834H101.619V107.431H109.95ZM105.834 109.746C106.505 109.746 107.109 109.89 107.646 110.177C108.188 110.46 108.611 110.855 108.917 111.359C109.227 111.86 109.383 112.431 109.387 113.072C109.383 113.713 109.227 114.285 108.917 114.79C108.611 115.291 108.188 115.683 107.646 115.967C107.109 116.25 106.505 116.392 105.834 116.392C105.153 116.392 104.541 116.25 104 115.967C103.459 115.683 103.033 115.291 102.724 114.79C102.418 114.285 102.267 113.713 102.271 113.072C102.267 112.435 102.418 111.864 102.724 111.359C103.033 110.851 103.459 110.455 104 110.171C104.541 109.888 105.153 109.746 105.834 109.746ZM105.834 111.171C105.466 111.171 105.138 111.25 104.851 111.409C104.564 111.564 104.337 111.786 104.171 112.077C104.009 112.368 103.93 112.7 103.934 113.072C103.93 113.451 104.009 113.785 104.171 114.072C104.333 114.355 104.558 114.575 104.845 114.729C105.136 114.884 105.466 114.959 105.834 114.956C106.195 114.959 106.518 114.884 106.801 114.729C107.085 114.575 107.308 114.355 107.47 114.072C107.635 113.785 107.72 113.451 107.724 113.072C107.72 112.7 107.635 112.368 107.47 112.077C107.308 111.786 107.085 111.564 106.801 111.409C106.518 111.25 106.195 111.171 105.834 111.171ZM106.691 105.47V107.989H104.956V105.47H106.691ZM127.314 105.271V119.381H125.563V105.271H127.314ZM123.104 106.768C123.104 108.241 122.893 109.593 122.469 110.823C122.045 112.05 121.348 113.177 120.375 114.204C119.406 115.232 118.125 116.127 116.53 116.89L115.618 115.497C116.97 114.853 118.069 114.118 118.917 113.293C119.767 112.468 120.39 111.543 120.784 110.519C121.182 109.495 121.382 108.343 121.386 107.061V106.768H123.104ZM122.171 106.768V108.144H116.336V106.768H122.171Z" fill="#1A1A1A"/>
</g>
<defs>
<linearGradient id="paint0_linear_670_2392" x1="52.4977" y1="-15.5185" x2="52.3268" y2="95.6125" gradientUnits="userSpaceOnUse">
<stop stop-color="#1F79FF" stop-opacity="0.48"/>
<stop offset="1" stop-color="#FCFCFC"/>
</linearGradient>
<clipPath id="clip0_670_2392">
<rect width="172" height="139" fill="white"/>
</clipPath>
<clipPath id="clip1_670_2392">
<rect x="11.8799" y="54.4395" width="80.7871" height="75.841" rx="8" transform="rotate(-15.0881 11.8799 54.4395)" fill="white"/>
</clipPath>
</defs>
</svg>
