<svg width="353" height="130" viewBox="0 0 353 130" fill="none" xmlns="http://www.w3.org/2000/svg">
<g clip-path="url(#clip0_764_1987)">
<rect width="353" height="130" rx="10" fill="#EFEFEF"/>
<path d="M128.837 43C151.929 43 172.325 54.5385 184.577 72.1641C196.876 59.7151 213.955 52 232.837 52C257.39 52 278.896 65.0445 290.804 84.5811H298.412V94.7441C303.115 93.7127 308 93.1689 313.012 93.1689C350.477 93.169 380.849 123.541 380.849 161.006C380.849 198.471 350.477 228.843 313.012 228.843C308 228.843 303.115 228.298 298.412 227.267V237H81.1621V229.375C74.1707 231.811 66.6585 233.136 58.8369 233.136C21.3717 233.136 -8.99985 202.764 -9 165.299C-9 127.834 21.3716 97.462 58.8369 97.4619C59.9988 97.4619 61.1542 97.4901 62.3018 97.5479C68.4792 66.4453 95.9198 43 128.837 43Z" fill="url(#paint0_linear_764_1987)"/>
<path d="M37.8674 23.1036V24.8508H26.5829V23.1036H37.8674ZM40.7265 30.0028V31.7569H24.587V30.0028H40.7265ZM38.7514 24.5608V24.6298C38.7514 25.3619 38.7422 26.0064 38.7238 26.5635C38.7053 27.1206 38.6547 27.7537 38.5718 28.4627C38.489 29.1671 38.3623 29.9153 38.192 30.7072L36.0304 30.5138C36.1961 29.7357 36.3204 29.0083 36.4033 28.3315C36.4862 27.6501 36.5368 27.0447 36.5552 26.5152C36.5737 25.9811 36.5829 25.3527 36.5829 24.6298V24.5608V23.1036H38.7514V24.5608ZM39.2624 37.6133V39.3743H26.6657V37.6133H39.2624ZM28.8135 33.442V37.8204H26.6657V33.442H28.8135ZM58.0117 35.8936V37.6892H41.8722V35.8936H58.0117ZM50.9813 32.4061V36.6533H48.8266V32.4061H50.9813ZM56.0987 23.2901V28.9599H45.9537V32.1506H43.7852V27.2403H53.9509V25.0442H43.7575V23.2901H56.0987ZM56.5062 31.2389V33.0138H43.7852V31.2389H56.5062ZM69.772 26.826V28.5939H66.0358V26.826H69.772ZM69.7167 31.232V32.9931H65.9184V31.232H69.7167ZM74.3783 22.0884V39.7265H72.3272V22.0884H74.3783ZM70.7388 22.5166V38.9047H68.6739V22.5166H70.7388ZM66.8024 24.2362C66.7978 25.9167 66.5814 27.4636 66.1532 28.8771C65.725 30.2905 65.0275 31.6004 64.0606 32.8066C63.0938 34.0083 61.8254 35.0764 60.2554 36.011L58.9709 34.471C60.3245 33.6699 61.4202 32.779 62.2582 31.7983C63.1007 30.8177 63.7176 29.7426 64.109 28.5732C64.5003 27.3992 64.6983 26.0962 64.7029 24.6644V24.2362H66.8024ZM65.4626 24.2362V25.9972H59.917V24.2362H65.4626ZM92.7615 24.547V26.308H89.7022V24.547H92.7615ZM92.7615 28.3384V30.1478H89.7022V28.3384H92.7615ZM90.372 22.0884V32.5166H88.1897V22.0884H90.372ZM90.372 33.2624V39.7265H88.1897V35.0304H78.6041V33.2624H90.372ZM81.401 23.0898C82.2988 23.0852 83.1069 23.2647 83.8251 23.6285C84.5479 23.9922 85.1165 24.4986 85.5309 25.1478C85.9452 25.7924 86.1547 26.5221 86.1593 27.337C86.1547 28.1611 85.9452 28.8978 85.5309 29.547C85.1211 30.1961 84.5548 30.7026 83.832 31.0663C83.1092 31.4254 82.2988 31.605 81.401 31.605C80.4987 31.605 79.6837 31.4254 78.9563 31.0663C78.2335 30.7026 77.6649 30.1961 77.2505 29.547C76.8361 28.8978 76.6313 28.1611 76.6359 27.337C76.6313 26.5221 76.8361 25.7924 77.2505 25.1478C77.6649 24.4986 78.2358 23.9922 78.9632 23.6285C79.6906 23.2647 80.5033 23.0852 81.401 23.0898ZM81.401 24.9406C80.8946 24.9452 80.4388 25.0465 80.0336 25.2445C79.6331 25.4378 79.32 25.7164 79.0944 26.0801C78.8734 26.4392 78.7652 26.8582 78.7698 27.337C78.7652 27.8296 78.8734 28.2601 79.0944 28.6285C79.32 28.9922 79.6331 29.273 80.0336 29.471C80.4388 29.669 80.8946 29.7657 81.401 29.761C81.9029 29.7657 82.3518 29.669 82.7477 29.471C83.1483 29.273 83.4637 28.9922 83.6939 28.6285C83.9241 28.2601 84.0392 27.8296 84.0392 27.337C84.0392 26.8582 83.9241 26.4392 83.6939 26.0801C83.4637 25.7164 83.1483 25.4378 82.7477 25.2445C82.3518 25.0465 81.9029 24.9452 81.401 24.9406ZM107.457 27.7928V29.547H102.678V27.7928H107.457ZM99.805 26.3287C99.805 27.7606 99.6139 29.1211 99.2318 30.4102C98.8543 31.6994 98.2972 32.8458 97.5605 33.8494C96.8285 34.8485 95.9491 35.6059 94.9224 36.1215L93.555 34.3605C94.485 33.9277 95.2861 33.2924 95.9583 32.4544C96.6351 31.6119 97.1508 30.6611 97.5053 29.6022C97.8598 28.5433 98.0393 27.4521 98.0439 26.3287V23.5041H99.805V26.3287ZM100.247 26.3287C100.247 27.4429 100.417 28.511 100.758 29.5331C101.103 30.5552 101.605 31.4669 102.264 32.268C102.927 33.0645 103.716 33.663 104.632 34.0635L103.313 35.797C102.291 35.2951 101.416 34.57 100.689 33.6215C99.9661 32.6685 99.4206 31.5704 99.0522 30.3273C98.6839 29.0843 98.502 27.7514 98.5066 26.3287V23.5041H100.247V26.3287ZM108.527 22.0884V39.768H106.373V22.0884H108.527Z" fill="#1A1A1A"/>
<path opacity="0.7" d="M27.7324 53.8281C29.5645 53.8281 30.8838 55.5029 30.877 58.1211C30.8838 60.7461 29.5645 62.4277 27.7324 62.4277C25.9072 62.4277 24.5947 60.7461 24.5879 58.1211C24.5947 55.5029 25.9072 53.8281 27.7324 53.8281ZM27.7324 55.0039C26.6113 55.0039 25.8457 56.2002 25.8457 58.1211C25.8457 60.0625 26.6113 61.2588 27.7324 61.252C28.8604 61.2588 29.626 60.0625 29.6328 58.1211C29.626 56.2002 28.8604 55.0039 27.7324 55.0039ZM33.9941 52.9121V57.7246H35.9492V58.8184H33.9941V65.1621H32.6816V52.9121H33.9941ZM47.748 62.5781V63.6719H36.5508V62.5781H47.748ZM46.3945 53.8145V57.6426H39.2031V59.4336H46.6816V60.5H37.918V56.6035H45.0957V54.8809H37.8906V53.8145H46.3945ZM58.1934 52.9121V57.6426H60.1484V58.75H58.1934V65.1621H56.8809V52.9121H58.1934ZM50.4004 53.9238V57.082H53.6406V53.9238H54.9258V62.25H49.1016V53.9238H50.4004ZM50.4004 61.1836H53.6406V58.1074H50.4004V61.1836ZM70.8945 52.9121V65.1758H69.582V52.9121H70.8945ZM64.332 53.8281C66.1777 53.8281 67.5039 55.5029 67.5039 58.1211C67.5039 60.7461 66.1777 62.4277 64.332 62.4277C62.5 62.4277 61.167 60.7461 61.1738 58.1211C61.167 55.5029 62.5 53.8281 64.332 53.8281ZM64.332 55.0039C63.2041 55.0039 62.4248 56.2002 62.4316 58.1211C62.4248 60.0625 63.2041 61.2588 64.332 61.252C65.4668 61.2588 66.2461 60.0625 66.2461 58.1211C66.2461 56.2002 65.4668 55.0039 64.332 55.0039ZM82.7891 59.4199V60.4727H74.2441V53.9102H82.6797V54.9766H75.5703V56.6309H82.4062V57.6699H75.5703V59.4199H82.7891ZM84.0469 62.5645V63.6445H72.8496V62.5645H84.0469ZM87.2051 62.5098L86.002 65.9688H84.7988L85.7422 62.5098H87.2051ZM102.258 52.9258V61.8262H100.945V52.9258H102.258ZM102.627 63.8359V64.9023H94.2461V60.9238H95.5449V63.8359H102.627ZM95.6133 53.7461C97.459 53.7529 98.874 55.0176 98.8672 56.7949C98.874 58.5654 97.459 59.8369 95.6133 59.8438C93.7471 59.8369 92.3389 58.5654 92.3457 56.7949C92.3389 55.0176 93.7471 53.7529 95.6133 53.7461ZM95.6133 54.8809C94.4785 54.8809 93.6172 55.6465 93.6172 56.7949C93.6172 57.9229 94.4785 58.6816 95.6133 58.6816C96.7412 58.6816 97.5957 57.9229 97.5957 56.7949C97.5957 55.6465 96.7412 54.8809 95.6133 54.8809ZM114.412 52.9258V61.9902H113.086V57.3691H110.816V56.3301H113.086V52.9258H114.412ZM114.713 63.8359V64.9023H106.428V61.2246H107.74V63.8359H114.713ZM110.352 53.8555V54.9219H106.1V56.4395H109.996V57.4648H106.1V59.0781C108.171 59.0781 109.449 59.0234 110.926 58.7637L111.062 59.8164C109.449 60.1035 108.082 60.1514 105.717 60.1445H104.801V53.8555H110.352ZM118.555 62.5098L117.352 65.9688H116.148L117.092 62.5098H118.555ZM133.99 52.9121V65.1484H132.732V52.9121H133.99ZM131.461 53.2129V64.5605H130.244V60.3906H128.152V59.3242H130.244V57.3145H128.357C127.77 59.3789 126.464 61.1699 124.146 62.5371L123.381 61.6074C125.979 60.0693 127.223 58.0186 127.441 55.4961H123.982V54.4297H128.727C128.727 55.0654 128.679 55.6807 128.59 56.2754H130.244V53.2129H131.461ZM146.91 54.7031V55.7832H145.16V57.3281H146.91V58.4082H145.16V60.1719H143.861V52.9121H145.16V54.7031H146.91ZM145.16 60.7324V65.1621H143.861V61.7715H137.08V60.7324H145.16ZM138.994 53.623C140.86 53.6162 142.248 54.833 142.248 56.5488C142.248 58.2715 140.867 59.4678 138.994 59.4746C137.114 59.4678 135.733 58.2715 135.727 56.5488C135.733 54.833 137.121 53.6162 138.994 53.623ZM138.994 54.7305C137.846 54.7373 137.005 55.4482 136.998 56.5488C137.005 57.6494 137.853 58.3672 138.994 58.3672C140.136 58.3672 140.983 57.6494 140.977 56.5488C140.983 55.4482 140.143 54.7373 138.994 54.7305ZM152.188 55.0996C152.188 56.6855 153.363 58.1758 155.25 58.791L154.58 59.8164C153.172 59.3516 152.105 58.374 151.545 57.1367C151.005 58.4766 149.918 59.5293 148.455 60.0352L147.771 59.0098C149.692 58.3604 150.854 56.7607 150.848 55.0996V54.7852H148.113V53.7324H154.881V54.7852H152.188V55.0996ZM157.807 52.9121V60.3086H156.494V52.9121H157.807ZM157.807 60.9238V65.1621H156.494V61.9902H149.508V60.9238H157.807ZM174.391 58.668V59.748H163.221V58.668H174.391ZM173.092 56.5625V57.6016H164.615V53.3496H173.023V54.416H165.914V56.5625H173.092ZM168.785 60.6914C171.431 60.6982 173.03 61.5117 173.023 62.9199C173.03 64.3418 171.431 65.1416 168.785 65.1348C166.14 65.1416 164.533 64.3418 164.533 62.9199C164.533 61.5117 166.14 60.6982 168.785 60.6914ZM168.785 61.7031C166.926 61.71 165.853 62.1475 165.859 62.9199C165.853 63.7061 166.926 64.1299 168.785 64.1367C170.645 64.1299 171.711 63.7061 171.711 62.9199C171.711 62.1475 170.645 61.71 168.785 61.7031Z" fill="#1A1A1A"/>
<path d="M268.729 105.257L267.663 104.277C267.515 101.242 266.939 98.4164 265.177 95.9C264.512 94.9514 263.637 94.2022 262.95 93.33C258.658 87.8944 256.089 81.1709 257.184 74.1675C257.488 72.2237 258.128 70.3874 258.856 68.5722C269.976 77.1688 286.331 73.0267 292.133 60.2979C293.685 56.891 293.266 54.2417 296.765 51.9502C298.268 50.9662 304.49 48.2039 304.576 51.577C304.593 52.2484 303.623 53.6593 303.332 54.4255C302.768 55.9099 302.392 58.2269 303.053 59.7169C303.264 60.1905 305.479 62.0028 306.052 62.6446C308.198 65.0437 309.778 67.9007 310.912 70.9062C312.272 71.1451 313.516 70.6107 314.718 71.4745C315.335 71.9184 315.769 72.6775 315.856 73.4409C316.052 75.1826 316.045 79.5947 315.856 81.3434C315.583 83.8682 312.907 83.9573 310.93 83.8272C309.969 87.3713 307.87 90.6298 305.345 93.2678C303.253 95.4533 301.015 96.7878 300.538 100.172C300.29 101.942 301.091 104.195 299.347 105.259H288.905C288.61 105.138 287.777 104.491 287.777 104.2V101.449C285.257 101.676 282.662 101.713 280.159 101.307V104.2C280.159 104.49 279.326 105.137 279.031 105.259H268.731L268.729 105.257ZM300.435 66.7726C298.108 67.2546 298.255 71.131 300.683 71.3996C304.48 71.818 304.191 65.9951 300.435 66.7726Z" fill="url(#paint1_linear_764_1987)"/>
<path d="M270.676 33.0608C257.783 34.0815 250.037 48.2027 256.098 59.6875C262.401 71.6359 279.245 72.7965 287.045 61.7048C295.928 49.0707 286.014 31.8465 270.676 33.0608ZM277.331 58.483C276.305 59.6705 275.044 60.0013 273.735 60.6714C273.528 63.0944 274.255 63.8903 271.332 63.6415C269.522 63.4874 271.009 61.5408 270.212 60.8113C269.743 60.3816 266.326 60.3307 265.837 59.2605C265.63 58.811 266.317 56.1547 266.706 56.0317C267.014 55.9342 268.88 56.7993 269.432 56.9365C270.722 57.2545 272.974 57.4963 273.869 56.2918C275.768 53.7345 270.379 52.4452 268.866 51.5772C264.966 49.3379 264.774 44.4325 268.773 42.3077C269.207 42.0773 270.703 41.7451 270.703 41.1329V39.0167C270.818 38.6406 273.078 38.8103 273.53 38.8696C274.078 39.4365 273.534 40.9633 274.008 41.3549C274.517 41.7762 277.08 41.7338 277.688 42.6131C277.958 43.0202 277.087 45.6807 276.917 45.7967C276.622 46.0002 274.838 45.1591 274.264 45.0474C272.969 44.7972 270.192 44.6714 270.269 46.6307C270.329 48.1801 273.907 49.1202 275.082 49.7323C278.386 51.45 279.983 55.4125 277.33 58.483H277.331Z" fill="#616161"/>
</g>
<defs>
<linearGradient id="paint0_linear_764_1987" x1="185.924" y1="8.73792e-07" x2="185.924" y2="237" gradientUnits="userSpaceOnUse">
<stop stop-color="#EFEFEF"/>
<stop offset="1" stop-color="#D9D9D9"/>
</linearGradient>
<linearGradient id="paint1_linear_764_1987" x1="286.466" y1="49.9502" x2="286.466" y2="120" gradientUnits="userSpaceOnUse">
<stop stop-color="#535353"/>
<stop offset="1" stop-color="#EFEFEF"/>
</linearGradient>
<clipPath id="clip0_764_1987">
<rect width="353" height="130" rx="10" fill="white"/>
</clipPath>
</defs>
</svg>
