<svg width="353" height="95" viewBox="0 0 353 95" fill="none" xmlns="http://www.w3.org/2000/svg">
<g clip-path="url(#clip0_420_1442)">
<g filter="url(#filter0_d_420_1442)">
<path d="M220.239 57.5259L246.835 65.3001C247.969 65.6315 248.156 67.1346 247.116 67.6953C237.125 73.0838 217.694 80.8665 202.217 77.989C185.389 74.8605 206.347 63.2042 219.332 57.5792C219.62 57.4543 219.937 57.4377 220.239 57.5259Z" fill="#C1D8FC"/>
<circle cx="266.989" cy="72.3996" r="54.3996" fill="url(#paint0_radial_420_1442)"/>
<circle cx="245.871" cy="48.9164" r="3.77282" fill="#2B2B2B" stroke="#2B2B2B" stroke-width="0.225724"/>
<circle cx="268.509" cy="48.9164" r="3.77282" fill="#2B2B2B" stroke="#2B2B2B" stroke-width="0.225724"/>
<line x1="243.336" y1="40.2972" x2="248.738" y2="40.2972" stroke="#2B2B2B" stroke-width="2.03152" stroke-linecap="round"/>
<line x1="265.976" y1="40.2972" x2="271.378" y2="40.2972" stroke="#2B2B2B" stroke-width="2.03152" stroke-linecap="round"/>
<circle opacity="0.12" cx="231.847" cy="57.5325" r="10.8123" fill="#FCFCFC"/>
<circle opacity="0.12" cx="282.532" cy="57.5325" r="10.8123" fill="#FCFCFC"/>
<path d="M238.273 57.3865C237.399 57.1375 237.399 55.8989 238.273 55.6498L257.087 50.2886C257.481 50.1764 257.901 50.3431 258.11 50.6947L261.305 56.0559C261.475 56.3407 261.475 56.6955 261.305 56.9803L258.11 62.3416C257.901 62.6932 257.481 62.8599 257.087 62.7477L238.273 57.3865Z" fill="#FF4949"/>
<path d="M317.132 57.7943L290.556 65.6345C289.423 65.9687 289.239 67.4722 290.28 68.0304C300.285 73.3941 319.735 81.1285 335.205 78.2127C352.025 75.0425 331.038 63.4382 318.039 57.8454C317.751 57.7212 317.433 57.7054 317.132 57.7943Z" fill="#C1D8FC"/>
</g>
<g filter="url(#filter1_d_420_1442)">
<path d="M172.103 7C179.06 7.00022 184.699 12.6405 184.699 19.5977V47.2021C184.699 53.9471 179.398 59.4533 172.735 59.7832L173.137 67.3545C173.166 67.9136 172.55 68.2712 172.079 67.9688L160.464 60.5156C160.208 60.3517 160.109 60.0624 160.162 59.7998H27.8975C20.9402 59.7998 15.2998 54.1594 15.2998 47.2021V19.5977C15.2998 12.6404 20.9402 7 27.8975 7H172.103Z" fill="#FCFCFC"/>
</g>
<path d="M48.7402 26.1445H44.9316V21.4336H48.6465V22.3477H46.0449V25.2422H48.7402V26.1445ZM49.4668 29.6953H39.8691V28.7695H44.0762V26.6484H45.1895V28.7695H49.4668V29.6953ZM44.2871 22.3594H41.791V25.2129C42.2754 25.2051 42.7207 25.1836 43.127 25.1484C43.5371 25.1094 43.9551 25.043 44.3809 24.9492L44.4746 25.875C43.9551 25.9844 43.4531 26.0566 42.9688 26.0918C42.4883 26.127 41.9238 26.1445 41.2754 26.1445H40.666V21.457H44.2871V22.3594ZM58.4785 23.168H60.002V24.0938H58.4785V26.8242H57.3652V20.4961H58.4785V23.168ZM58.4785 30.9961H57.3652V28.2539H51.5527V27.3398H58.4785V30.9961ZM51.7402 22.7227H54.4824V21.1523H55.584V26.1562H50.6387V21.1523H51.7402V22.7227ZM54.4824 25.2656V23.6016H51.7402V25.2656H54.4824ZM69.3066 31.0078H68.1816V20.4961H69.3066V31.0078ZM63.6816 21.2812C64.2051 21.2812 64.6719 21.4336 65.082 21.7383C65.4961 22.0391 65.8184 22.4688 66.0488 23.0273C66.2832 23.582 66.4004 24.2266 66.4004 24.9609C66.4004 25.6992 66.2832 26.3477 66.0488 26.9062C65.8184 27.4648 65.4961 27.8965 65.082 28.2012C64.6719 28.502 64.2051 28.6523 63.6816 28.6523C63.1582 28.6523 62.6914 28.5 62.2812 28.1953C61.8711 27.8906 61.5508 27.4609 61.3203 26.9062C61.0898 26.3477 60.9746 25.6992 60.9746 24.9609C60.9746 24.2266 61.0898 23.582 61.3203 23.0273C61.5508 22.4688 61.8711 22.0391 62.2812 21.7383C62.6914 21.4336 63.1582 21.2812 63.6816 21.2812ZM63.6816 22.2891C63.3613 22.2891 63.0762 22.3984 62.8262 22.6172C62.5801 22.832 62.3887 23.1426 62.252 23.5488C62.1191 23.9512 62.0527 24.4219 62.0527 24.9609C62.0527 25.5078 62.1191 25.9844 62.252 26.3906C62.3887 26.793 62.5801 27.1035 62.8262 27.3223C63.0762 27.5371 63.3613 27.6445 63.6816 27.6445C64.0059 27.6445 64.291 27.5371 64.5371 27.3223C64.7871 27.1035 64.9805 26.793 65.1172 26.3906C65.2539 25.9844 65.3223 25.5078 65.3223 24.9609C65.3223 24.4219 65.2539 23.9512 65.1172 23.5488C64.9805 23.1426 64.7871 22.832 64.5371 22.6172C64.291 22.3984 64.0059 22.2891 63.6816 22.2891ZM79.4785 24.457H72.2363V20.8828H73.3496V23.5547H79.4785V24.457ZM80.5684 26.6836H70.9707V25.7695H80.5684V26.6836ZM79.5371 30.7383H72.166V27.6562H73.2793V29.8359H79.5371V30.7383ZM87.166 21.2812C87.6465 21.2812 88.0781 21.4121 88.4609 21.6738C88.8438 21.9355 89.1523 22.3047 89.3867 22.7812H91.9707V20.4961H93.084V31.0078H91.9707V27H89.4512C89.2246 27.5234 88.9121 27.9297 88.5137 28.2188C88.1191 28.5078 87.6699 28.6523 87.166 28.6523C86.6543 28.6523 86.1973 28.502 85.7949 28.2012C85.3926 27.8965 85.0762 27.4648 84.8457 26.9062C84.6191 26.3477 84.5059 25.6992 84.5059 24.9609C84.5059 24.2266 84.6191 23.582 84.8457 23.0273C85.0762 22.4688 85.3926 22.0391 85.7949 21.7383C86.1973 21.4336 86.6543 21.2812 87.166 21.2812ZM87.166 22.2891C86.8535 22.2891 86.5762 22.3984 86.334 22.6172C86.0918 22.832 85.9023 23.1426 85.7656 23.5488C85.6289 23.9512 85.5605 24.4219 85.5605 24.9609C85.5605 25.5078 85.6289 25.9844 85.7656 26.3906C85.9023 26.793 86.0918 27.1035 86.334 27.3223C86.5762 27.5371 86.8535 27.6445 87.166 27.6445C87.4824 27.6445 87.7617 27.5371 88.0039 27.3223C88.25 27.1035 88.4395 26.793 88.5723 26.3906C88.7051 25.9844 88.7715 25.5078 88.7715 24.9609C88.7715 24.4219 88.7051 23.9512 88.5723 23.5488C88.4395 23.1426 88.25 22.832 88.0039 22.6172C87.7617 22.3984 87.4824 22.2891 87.166 22.2891ZM89.6973 23.6953C89.7832 24.0742 89.8262 24.4961 89.8262 24.9609C89.8262 25.3477 89.793 25.7188 89.7266 26.0742H91.9707V23.6953H89.6973ZM103.443 31.0078H102.33V25.3711H100.408V24.4453H102.33V20.4961H103.443V31.0078ZM99.7988 25.207H96.1895V27.5859C97.123 27.5781 97.9238 27.5527 98.5918 27.5098C99.2637 27.4668 99.9434 27.3828 100.631 27.2578L100.725 28.1836C99.9707 28.3125 99.2305 28.4004 98.5039 28.4473C97.7773 28.4941 96.9121 28.5195 95.9082 28.5234H95.0879V24.293H98.6973V22.3477H95.0645V21.4453H99.7988V25.207ZM114.658 26.8828H110.498V28.8164H109.385V26.8828H105.061V25.9805H114.658V26.8828ZM113.592 30.7734H106.244V27.9141H107.357V29.8594H113.592V30.7734ZM107.428 22.0898H112.279V20.8242H113.393V25.0547H106.326V20.8242H107.428V22.0898ZM112.279 24.1758V22.9453H107.428V24.1758H112.279ZM118.865 21.2461C119.412 21.2461 119.902 21.3516 120.336 21.5625C120.77 21.7734 121.109 22.0684 121.355 22.4473C121.602 22.8262 121.725 23.2578 121.725 23.7422C121.725 24.2266 121.602 24.6602 121.355 25.043C121.109 25.4219 120.77 25.7188 120.336 25.9336C119.902 26.1445 119.412 26.25 118.865 26.25C118.318 26.25 117.826 26.1445 117.389 25.9336C116.955 25.7188 116.615 25.4219 116.369 25.043C116.127 24.6602 116.006 24.2266 116.006 23.7422C116.006 23.2578 116.127 22.8262 116.369 22.4473C116.615 22.0684 116.955 21.7734 117.389 21.5625C117.826 21.3516 118.318 21.2461 118.865 21.2461ZM118.865 22.207C118.525 22.207 118.221 22.2715 117.951 22.4004C117.682 22.5254 117.471 22.7051 117.318 22.9395C117.17 23.1699 117.096 23.4375 117.096 23.7422C117.096 24.0469 117.172 24.3164 117.324 24.5508C117.477 24.7852 117.688 24.9668 117.957 25.0957C118.227 25.2246 118.529 25.2891 118.865 25.2891C119.201 25.2891 119.502 25.2246 119.768 25.0957C120.037 24.9668 120.246 24.7852 120.395 24.5508C120.547 24.3164 120.623 24.0469 120.623 23.7422C120.623 23.4375 120.547 23.1699 120.395 22.9395C120.246 22.7051 120.037 22.5254 119.768 22.4004C119.502 22.2715 119.201 22.207 118.865 22.207ZM124.115 31.0078H123.002V20.4961H124.115V31.0078ZM115.49 27.832C116.893 27.8281 118.135 27.8047 119.217 27.7617C120.299 27.7188 121.342 27.6211 122.346 27.4688L122.428 28.2891C121.447 28.4766 120.43 28.6016 119.375 28.6641C118.32 28.7266 117.205 28.7578 116.029 28.7578H115.643L115.49 27.832ZM137.545 26.7422H136.408V24.082H134.463V23.1562H136.408V20.4961H137.545V26.7422ZM134.029 27.0352C134.756 27.0352 135.385 27.1152 135.916 27.2754C136.451 27.4316 136.861 27.6582 137.146 27.9551C137.436 28.252 137.58 28.6055 137.58 29.0156C137.58 29.4258 137.436 29.7793 137.146 30.0762C136.861 30.373 136.451 30.5977 135.916 30.75C135.385 30.9062 134.756 30.9844 134.029 30.9844C133.299 30.9844 132.666 30.9062 132.131 30.75C131.596 30.5977 131.184 30.373 130.895 30.0762C130.609 29.7793 130.467 29.4258 130.467 29.0156C130.467 28.6055 130.609 28.252 130.895 27.9551C131.184 27.6582 131.596 27.4316 132.131 27.2754C132.666 27.1152 133.299 27.0352 134.029 27.0352ZM134.029 27.9023C133.256 27.9023 132.654 28 132.225 28.1953C131.795 28.3867 131.58 28.6602 131.58 29.0156C131.58 29.3672 131.795 29.6406 132.225 29.8359C132.654 30.0273 133.256 30.125 134.029 30.1289C134.803 30.125 135.402 30.0273 135.828 29.8359C136.258 29.6406 136.471 29.3672 136.467 29.0156C136.471 28.6641 136.258 28.3906 135.828 28.1953C135.398 28 134.799 27.9023 134.029 27.9023ZM132.541 22.3477C132.545 22.7852 132.648 23.2129 132.852 23.6309C133.055 24.0488 133.346 24.4238 133.725 24.7559C134.107 25.084 134.557 25.3359 135.072 25.5117L134.51 26.3906C133.932 26.1875 133.428 25.8887 132.998 25.4941C132.572 25.0957 132.242 24.6328 132.008 24.1055C131.777 24.7031 131.436 25.2246 130.982 25.6699C130.529 26.1152 129.994 26.4492 129.377 26.6719L128.803 25.7812C129.33 25.5938 129.791 25.3242 130.186 24.9727C130.584 24.6172 130.889 24.2129 131.1 23.7598C131.311 23.3027 131.416 22.832 131.416 22.3477V22.1367H129.131V21.2227H134.791V22.1367H132.541V22.3477ZM148.76 29.6953H139.162V28.7695H143.381V26.6133H140.252V21.2109H141.365V23.0039H146.521V21.2109H147.635V26.6133H144.494V28.7695H148.76V29.6953ZM146.521 25.6992V23.918H141.365V25.6992H146.521ZM159.119 26.1562H149.521V25.3242H159.119V26.1562ZM157.936 29.2266H151.783V30.082H158.264V30.8672H150.67V28.4766H156.846V27.7031H150.646V26.9062H157.936V29.2266ZM157.9 23.0391H151.854V23.8359H158.1V24.6211H150.752V22.2891H156.799V21.5508H150.729V20.7656H157.9V23.0391ZM64.9355 45.6719H55.3379V44.7461H59.5332V42.2617H60.6465V44.7461H64.9355V45.6719ZM60.6816 37.9609C60.6816 38.5 60.8574 39.0215 61.209 39.5254C61.5645 40.0254 62.0371 40.4551 62.627 40.8145C63.2168 41.1699 63.8457 41.4062 64.5137 41.5234L64.0332 42.4609C63.4668 42.3477 62.9258 42.1582 62.4102 41.8926C61.8945 41.623 61.4355 41.2949 61.0332 40.9082C60.6309 40.5176 60.3145 40.0859 60.084 39.6133C59.8574 40.082 59.543 40.5117 59.1406 40.9023C58.7422 41.293 58.2852 41.623 57.7695 41.8926C57.2539 42.1582 56.7129 42.3477 56.1465 42.4609L55.666 41.5234C56.334 41.4062 56.9609 41.1699 57.5469 40.8145C58.1367 40.4551 58.6094 40.0234 58.9648 39.5195C59.3203 39.0156 59.498 38.4961 59.498 37.9609V37.1641H60.6816V37.9609ZM75.2715 42.2734H71.041V43.2695C72.0137 43.3242 72.7695 43.5117 73.3086 43.832C73.8477 44.1484 74.1152 44.5781 74.1113 45.1211C74.1113 45.5117 73.9668 45.8457 73.6777 46.123C73.3887 46.4043 72.9707 46.6152 72.4238 46.7559C71.8809 46.9004 71.2324 46.9727 70.4785 46.9727C69.7246 46.9727 69.0742 46.9004 68.5273 46.7559C67.9805 46.6152 67.5605 46.4043 67.2676 46.123C66.9785 45.8457 66.834 45.5117 66.834 45.1211C66.834 44.5781 67.1035 44.1484 67.6426 43.832C68.1855 43.5117 68.9473 43.3242 69.9277 43.2695V42.2734H65.6973V41.3711H75.2715V42.2734ZM70.4434 44.125C69.6543 44.125 69.0449 44.2109 68.6152 44.3828C68.1855 44.5547 67.9707 44.8008 67.9707 45.1211C67.9668 45.4414 68.1836 45.6875 68.6211 45.8594C69.0586 46.0312 69.6777 46.1172 70.4785 46.1172C71.2793 46.1172 71.8965 46.0312 72.3301 45.8594C72.7676 45.6875 72.9863 45.4414 72.9863 45.1211C72.9863 44.7969 72.7656 44.5508 72.3242 44.3828C71.8828 44.2109 71.2559 44.125 70.4434 44.125ZM74.416 37.8672H71.2402C71.2949 38.1992 71.4824 38.5098 71.8027 38.7988C72.123 39.0879 72.543 39.3301 73.0625 39.5254C73.582 39.7207 74.1543 39.8477 74.7793 39.9062L74.3809 40.7969C73.7754 40.7266 73.2129 40.5977 72.6934 40.4102C72.1738 40.2227 71.7246 39.9863 71.3457 39.7012C70.9668 39.4121 70.6836 39.084 70.4961 38.7168C70.3086 39.0801 70.0234 39.4062 69.6406 39.6953C69.2617 39.9844 68.8125 40.2227 68.293 40.4102C67.7734 40.5977 67.209 40.7266 66.5996 40.7969L66.2012 39.9062C66.8262 39.8477 67.3984 39.7207 67.918 39.5254C68.4375 39.3301 68.8574 39.0879 69.1777 38.7988C69.502 38.5098 69.6895 38.1992 69.7402 37.8672H66.5762V36.9648H74.416V37.8672ZM84.2715 40.7383H85.9355V41.6875H84.2715V46.9961H83.1465V36.4961H84.2715V40.7383ZM82.2441 39.0508H76.0215V38.1367H78.5996V36.6367H79.7246V38.1367H82.2441V39.0508ZM79.1738 39.8359C79.6699 39.8359 80.1152 39.9395 80.5098 40.1465C80.9043 40.3496 81.2129 40.6367 81.4355 41.0078C81.6621 41.375 81.7754 41.793 81.7754 42.2617C81.7754 42.7344 81.6641 43.1562 81.4414 43.5273C81.2188 43.8984 80.9082 44.1895 80.5098 44.4004C80.1152 44.6074 79.6699 44.7109 79.1738 44.7109C78.6777 44.7109 78.2305 44.6074 77.832 44.4004C77.4336 44.1895 77.1211 43.8984 76.8945 43.5273C76.6719 43.1562 76.5605 42.7344 76.5605 42.2617C76.5605 41.793 76.6719 41.375 76.8945 41.0078C77.1211 40.6367 77.4336 40.3496 77.832 40.1465C78.2305 39.9395 78.6777 39.8359 79.1738 39.8359ZM79.1738 40.7617C78.877 40.7617 78.6113 40.8242 78.377 40.9492C78.1465 41.0742 77.9648 41.252 77.832 41.4824C77.7031 41.709 77.6387 41.9688 77.6387 42.2617C77.6387 42.5625 77.7031 42.8281 77.832 43.0586C77.9609 43.2852 78.1426 43.4629 78.377 43.5918C78.6113 43.7207 78.877 43.7852 79.1738 43.7852C79.4668 43.7852 79.7285 43.7207 79.959 43.5918C80.1934 43.4629 80.377 43.2852 80.5098 43.0586C80.6426 42.8281 80.709 42.5625 80.709 42.2617C80.709 41.9688 80.6426 41.709 80.5098 41.4824C80.377 41.252 80.1934 41.0742 79.959 40.9492C79.7285 40.8242 79.4668 40.7617 79.1738 40.7617ZM95.4863 46.9844H94.4082V36.4961H95.4863V46.9844ZM93.248 46.4805H92.1934V41.6055H90.1602C89.5039 42.875 88.4668 43.9219 87.0488 44.7461L86.4043 43.9492C87.502 43.3008 88.334 42.541 88.9004 41.6699C89.4668 40.7988 89.7969 39.8125 89.8906 38.7109H86.9082V37.7969H90.998C90.998 38.8711 90.8477 39.8398 90.5469 40.7031H92.1934V36.7539H93.248V46.4805ZM107.979 40.5508H109.654V41.4883H107.979V47.0078H106.854V36.4961H107.979V40.5508ZM105.154 38.4062H101.346V43.4805C102.283 43.4727 103.104 43.4434 103.807 43.3926C104.514 43.3418 105.225 43.2539 105.939 43.1289L106.068 44.0664C105.318 44.1992 104.582 44.291 103.859 44.3418C103.141 44.3926 102.291 44.418 101.311 44.418H101.088H100.232V37.4922H105.154V38.4062ZM118.607 39.7422H112.455V40.9492H118.854V41.8516H111.318V38.8867H117.482V37.7852H111.295V36.8945H118.607V39.7422ZM119.756 43.75H115.502V47.0078H114.389V43.75H110.158V42.8359H119.756V43.75ZM123.377 37.2812C123.854 37.2812 124.281 37.4102 124.66 37.668C125.043 37.9219 125.352 38.2871 125.586 38.7637C125.824 39.2363 125.969 39.793 126.02 40.4336H128.182V36.4961H129.295V47.0078H128.182V41.3359H126.025C125.99 42.0039 125.855 42.5879 125.621 43.0879C125.387 43.5879 125.076 43.9746 124.689 44.248C124.303 44.5176 123.865 44.6523 123.377 44.6523C122.865 44.6523 122.408 44.502 122.006 44.2012C121.604 43.8965 121.287 43.4648 121.057 42.9062C120.83 42.3477 120.717 41.6992 120.717 40.9609C120.717 40.2266 120.83 39.582 121.057 39.0273C121.287 38.4688 121.604 38.0391 122.006 37.7383C122.408 37.4336 122.865 37.2812 123.377 37.2812ZM123.377 38.2891C123.064 38.2891 122.787 38.3984 122.545 38.6172C122.303 38.832 122.115 39.1426 121.982 39.5488C121.85 39.9512 121.783 40.4219 121.783 40.9609C121.783 41.5078 121.85 41.9844 121.982 42.3906C122.115 42.793 122.303 43.1035 122.545 43.3223C122.787 43.5371 123.064 43.6445 123.377 43.6445C123.693 43.6445 123.973 43.5371 124.215 43.3223C124.457 43.1074 124.645 42.7969 124.777 42.3906C124.914 41.9844 124.982 41.5078 124.982 40.9609C124.982 40.4219 124.914 39.9512 124.777 39.5488C124.645 39.1426 124.457 38.832 124.215 38.6172C123.973 38.3984 123.693 38.2891 123.377 38.2891ZM140.51 45.6836H130.912V44.7578H133.197V42.0156C132.76 41.7734 132.418 41.4668 132.172 41.0957C131.93 40.7246 131.811 40.3086 131.814 39.8477C131.814 39.3047 131.979 38.8262 132.307 38.4121C132.639 37.998 133.098 37.6797 133.684 37.457C134.273 37.2305 134.939 37.1172 135.682 37.1172C136.436 37.1172 137.105 37.2305 137.691 37.457C138.281 37.6797 138.742 37.998 139.074 38.4121C139.406 38.8262 139.572 39.3047 139.572 39.8477C139.572 40.3047 139.451 40.7188 139.209 41.0898C138.971 41.457 138.635 41.7617 138.201 42.0039V44.7578H140.51V45.6836ZM135.682 37.9961C135.143 37.9961 134.662 38.0723 134.24 38.2246C133.818 38.377 133.49 38.5938 133.256 38.875C133.021 39.1523 132.904 39.4766 132.904 39.8477C132.904 40.2188 133.021 40.5449 133.256 40.8262C133.49 41.1035 133.818 41.3184 134.24 41.4707C134.662 41.623 135.143 41.6992 135.682 41.6992C136.229 41.6992 136.713 41.623 137.135 41.4707C137.557 41.3184 137.887 41.1035 138.125 40.8262C138.363 40.5449 138.482 40.2188 138.482 39.8477C138.482 39.4766 138.363 39.1523 138.125 38.875C137.887 38.5938 137.557 38.377 137.135 38.2246C136.713 38.0723 136.229 37.9961 135.682 37.9961ZM137.088 44.7578V42.4258C136.65 42.5273 136.182 42.5781 135.682 42.5781C135.209 42.5781 134.752 42.5293 134.311 42.4316V44.7578H137.088ZM142.467 46.1055C142.229 46.1055 142.029 46.0273 141.869 45.8711C141.713 45.7148 141.635 45.5195 141.635 45.2852C141.635 45.0391 141.711 44.8398 141.863 44.6875C142.02 44.5312 142.221 44.4492 142.467 44.4414C142.709 44.4453 142.908 44.5254 143.064 44.6816C143.225 44.8379 143.307 45.0352 143.311 45.2734C143.307 45.5156 143.225 45.7148 143.064 45.8711C142.908 46.0273 142.709 46.1055 142.467 46.1055Z" fill="#1F79FF"/>
</g>
<defs>
<filter id="filter0_d_420_1442" x="190.507" y="12.56" width="156.397" height="119.679" filterUnits="userSpaceOnUse" color-interpolation-filters="sRGB">
<feFlood flood-opacity="0" result="BackgroundImageFix"/>
<feColorMatrix in="SourceAlpha" type="matrix" values="0 0 0 0 0 0 0 0 0 0 0 0 0 0 0 0 0 0 127 0" result="hardAlpha"/>
<feOffset/>
<feGaussianBlur stdDeviation="2.71998"/>
<feComposite in2="hardAlpha" operator="out"/>
<feColorMatrix type="matrix" values="0 0 0 0 0 0 0 0 0 0 0 0 0 0 0 0 0 0 0.1 0"/>
<feBlend mode="normal" in2="BackgroundImageFix" result="effect1_dropShadow_420_1442"/>
<feBlend mode="normal" in="SourceGraphic" in2="effect1_dropShadow_420_1442" result="shape"/>
</filter>
<filter id="filter1_d_420_1442" x="12.9504" y="4.65062" width="174.098" height="65.7779" filterUnits="userSpaceOnUse" color-interpolation-filters="sRGB">
<feFlood flood-opacity="0" result="BackgroundImageFix"/>
<feColorMatrix in="SourceAlpha" type="matrix" values="0 0 0 0 0 0 0 0 0 0 0 0 0 0 0 0 0 0 127 0" result="hardAlpha"/>
<feOffset/>
<feGaussianBlur stdDeviation="1.17469"/>
<feComposite in2="hardAlpha" operator="out"/>
<feColorMatrix type="matrix" values="0 0 0 0 0 0 0 0 0 0 0 0 0 0 0 0 0 0 0.25 0"/>
<feBlend mode="normal" in2="BackgroundImageFix" result="effect1_dropShadow_420_1442"/>
<feBlend mode="normal" in="SourceGraphic" in2="effect1_dropShadow_420_1442" result="shape"/>
</filter>
<radialGradient id="paint0_radial_420_1442" cx="0" cy="0" r="1" gradientUnits="userSpaceOnUse" gradientTransform="translate(287.431 105.512) rotate(-122.729) scale(92.1793)">
<stop stop-color="#5197FF"/>
<stop offset="1" stop-color="#F6FAFF"/>
</radialGradient>
<clipPath id="clip0_420_1442">
<rect width="353" height="95" fill="white"/>
</clipPath>
</defs>
</svg>
