<svg width="24" height="24" viewBox="0 0 24 24" fill="none" xmlns="http://www.w3.org/2000/svg">
<g clip-path="url(#clip0_847_1153)">
<path d="M16.1753 10.3661C11.8507 10.7083 9.25292 15.4447 11.2857 19.2974C13.4003 23.3051 19.0498 23.6943 21.6657 19.9736C24.645 15.7358 21.3199 9.95842 16.1753 10.3661ZM18.4079 18.8928C18.0639 19.291 17.6404 19.4022 17.2014 19.6269C17.1323 20.4397 17.3759 20.7064 16.3955 20.6232C15.7884 20.5716 16.2874 19.9189 16.0198 19.6735C15.8621 19.5293 14.7166 19.5121 14.5521 19.1532C14.4829 19.0022 14.713 18.1117 14.8436 18.0701C14.9467 18.0376 15.5728 18.3278 15.7581 18.3734C16.1907 18.4801 16.946 18.5615 17.2462 18.1569C17.8831 17.2989 16.0754 16.8668 15.5682 16.5752C14.2601 15.8244 14.1954 14.1786 15.5371 13.4662C15.6826 13.3889 16.1844 13.2772 16.1844 13.072V12.3623C16.2232 12.2362 16.9808 12.2932 17.1327 12.313C17.3167 12.5029 17.1341 13.015 17.2927 13.1466C17.4632 13.2881 18.3234 13.2736 18.5272 13.5688C18.6176 13.7053 18.3256 14.5976 18.2691 14.6369C18.1701 14.7052 17.5712 14.4227 17.3791 14.3856C16.9447 14.302 16.0135 14.2595 16.0393 14.9167C16.0596 15.4366 17.2597 15.7521 17.6539 15.9569C18.7623 16.5332 19.298 17.8622 18.4079 18.8919V18.8928Z" fill="#616161"/>
<path d="M4.17041 9.94546C3.81783 10.1579 3.25505 10.8653 2.87399 10.9273C2.19594 11.0371 1.7421 10.3148 2.16159 9.76419L11.4576 1.87128C11.7501 1.60775 12.0651 1.43326 12.4579 1.63532L22.1192 9.83968C22.3741 10.3053 22.121 10.8242 21.6134 10.9286C20.6867 10.0689 19.6656 9.40257 18.4361 9.05631C13.1071 7.55376 8.12388 12.315 9.42573 17.7059C9.53014 18.1381 9.91437 18.8794 9.94692 19.2148C10.0518 20.2866 9.95144 21.644 8.61297 21.7652C8.01539 21.8194 6.33383 21.8339 5.79366 21.6987C5.079 21.5197 4.16996 20.6613 4.16996 19.8938V9.94591L4.17041 9.94546Z" fill="#1F79FF"/>
</g>
<defs>
<clipPath id="clip0_847_1153">
<rect width="20.7898" height="21" fill="white" transform="translate(2 1.54736)"/>
</clipPath>
</defs>
</svg>
