<svg width="363" height="109" viewBox="0 0 363 109" fill="none" xmlns="http://www.w3.org/2000/svg">
<g filter="url(#filter0_d_1150_3277)">
<rect x="5" y="5" width="353" height="99" rx="10" fill="#F8F8F8" shape-rendering="crispEdges"/>
<path d="M67.5409 48.2928C69.6735 48.2983 71.2039 50.232 71.215 53.2818C71.2039 56.3536 69.6735 58.2873 67.5409 58.2818C65.4028 58.2873 63.8669 56.3536 63.8724 53.2818C63.8669 50.232 65.4028 48.2983 67.5409 48.2928ZM65.5464 53.2818C65.5409 55.453 66.3586 56.7127 67.5409 56.7127C68.7453 56.7127 69.5409 55.453 69.5409 53.2818C69.5409 51.1271 68.7453 49.8619 67.5409 49.8619C66.3586 49.8619 65.5409 51.1271 65.5464 53.2818ZM73.0713 61.3812V47.2707H74.8116V52.6961H76.9884V54.1547H74.8116V61.3812H73.0713ZM82.9436 49.7238C82.9436 51.4641 84.1425 53.2044 86.3911 53.9006L85.5016 55.2431C83.8939 54.7348 82.7337 53.6685 82.0928 52.326C81.4519 53.7845 80.253 54.9448 78.5845 55.5138L77.684 54.1713C79.9602 53.4088 81.1757 51.5691 81.1812 49.7238V49.547H78.1425V48.1492H85.916V49.547H82.9436V49.7238ZM79.7061 57.8398V56.442H89.3359V61.3812H87.5956V57.8398H79.7061ZM87.5956 55.7845V47.2707H89.3359V55.7845H87.5956ZM107.16 53.4972V54.884H102.049V48.5028H107.033V49.895H103.79V53.4972H107.16ZM95.204 59.674V58.2707H100.745V55.5249H102.464V58.2707H108.116V59.674H95.204ZM96.2371 54.884V48.5083H101.176V49.9061H97.9775V53.4586C99.1211 53.442 100.149 53.3536 101.281 53.116L101.408 54.547C99.9388 54.8619 98.6957 54.8895 97.1045 54.884H96.2371ZM120.176 47.2707V50.8011H122.148V52.2155H120.176V55.768H118.43V47.2707H120.176ZM109.513 54.9448V48.1547H111.231V50.1492H114.524V48.1547H116.259V54.9448H109.513ZM110.761 57.8177V56.4254H120.176V61.3812H118.43V57.8177H110.761ZM111.231 53.5635H114.524V51.5083H111.231V53.5635ZM134.612 47.2707V61.4144H132.86V47.2707H134.612ZM123.313 53.2818C123.308 50.232 124.86 48.2983 127.004 48.2928C129.12 48.2983 130.678 50.232 130.678 53.2818C130.678 56.3536 129.12 58.2873 127.004 58.2818C124.86 58.2873 123.308 56.3536 123.313 53.2818ZM124.987 53.2818C124.987 55.453 125.799 56.7127 127.004 56.7127C128.186 56.7127 128.998 55.453 128.998 53.2818C128.998 51.1271 128.186 49.8619 127.004 49.8619C125.799 49.8619 124.987 51.1271 124.987 53.2818ZM147.749 47.2707V52.7845H149.843V54.2265H147.749V61.3591H146.009V47.2707H147.749ZM136.617 57.5028C140.053 55.779 141.909 53.3812 142.252 50.1657H137.368V48.7348H144.02C144.009 52.884 142.291 56.5304 137.594 58.8398L136.617 57.5028ZM167.208 54.5856V55.9669H161.755V58.3978H160.037V55.9669H154.297V54.5856H167.208ZM155.86 61.116V57.2265H157.584V59.7072H165.783V61.116H155.86ZM155.976 53.4641V47.7182H157.695V49.3094H163.794V47.7182H165.523V53.4641H155.976ZM157.695 52.0884H163.794V50.6077H157.695V52.0884ZM173.274 49.4972C173.263 51.3149 174.401 53.0497 176.572 53.7569L175.644 55.1381C174.108 54.6022 173.014 53.5304 172.412 52.1768C171.793 53.6575 170.644 54.8177 169.02 55.4144L168.081 54.011C170.374 53.2541 171.512 51.4033 171.523 49.3978V47.9945H173.274V49.4972ZM170.34 57.7127V56.337H179.97V61.3812H178.235V57.7127H170.34ZM175.423 51.4365V50.011H178.235V47.2707H179.97V55.6519H178.235V51.4365H175.423ZM193.113 47.2818V51.7182H195.086V53.1492H193.113V57.8343H191.367V47.2818H193.113ZM181.981 50.2265V48.8453H185.312V47.2707H187.041V48.8453H190.362V50.2265H181.981ZM182.71 53.5193C182.704 51.895 184.119 50.8177 186.18 50.8177C188.207 50.8177 189.616 51.895 189.622 53.5193C189.616 55.1271 188.207 56.1878 186.18 56.1823C184.119 56.1878 182.704 55.1271 182.71 53.5193ZM184.064 61.116V57.0055H185.793V59.7072H193.666V61.116H184.064ZM184.395 53.5193C184.384 54.3646 185.102 54.8564 186.18 54.8508C187.246 54.8564 187.964 54.3646 187.975 53.5193C187.964 52.6575 187.246 52.1547 186.18 52.1547C185.102 52.1547 184.384 52.6575 184.395 53.5193ZM211.771 47.2707V61.3812H210.131V47.2707H211.771ZM199.445 57.1768C202.368 55.442 203.722 53.2376 203.981 50.3978H200.202V48.9889H205.711C205.711 49.7017 205.661 50.3923 205.561 51.0608H207.208V47.6133H208.86V60.7238H207.208V55.9945H205.003V54.5856H207.208V52.4751H205.258C204.589 54.8232 203.119 56.8343 200.473 58.4088L199.445 57.1768ZM226.478 49.2376V50.6464H224.566V52.2707H226.478V53.7182H224.566V55.6133H222.821V47.2707H224.566V49.2376H226.478ZM213.577 51.4696C213.566 49.4807 215.207 48.0663 217.39 48.0718C219.566 48.0663 221.185 49.4807 221.196 51.4696C221.185 53.4807 219.566 54.884 217.39 54.884C215.207 54.884 213.566 53.4807 213.577 51.4696ZM215.152 57.6243V56.2099H224.566V61.3812H222.821V57.6243H215.152ZM215.285 51.4696C215.274 52.674 216.174 53.4144 217.39 53.4088C218.594 53.4144 219.495 52.674 219.5 51.4696C219.495 50.2873 218.594 49.558 217.39 49.5525C216.174 49.558 215.274 50.2873 215.285 51.4696ZM232.466 50.663C232.466 53.2818 233.72 55.8564 235.975 56.8508L234.919 58.2376C233.323 57.453 232.201 55.9558 231.593 54.1105C230.98 56.0608 229.831 57.6796 228.207 58.4972L227.113 57.0884C229.411 56.0166 230.693 53.2928 230.704 50.663V48.4033H232.466V50.663ZM234.411 53.2376V51.8343H237.367V47.2707H239.091V61.4144H237.367V53.2376H234.411ZM252.14 47.2707V52.7845H254.234V54.2265H252.14V61.3591H250.399V47.2707H252.14ZM241.007 57.5028C244.444 55.779 246.3 53.3812 246.643 50.1657H241.759V48.7348H248.41C248.399 52.884 246.681 56.5304 241.985 58.8398L241.007 57.5028ZM261.908 55.5359V57.0497H263.765V55.5359H265.372V60.0055C267.041 59.3094 267.792 57.9006 267.803 56.547V55.4254H269.533V56.547C269.527 58.011 270.284 59.4365 272.035 60.0276L271.14 61.3315C269.892 60.8785 269.091 60.0221 268.643 58.9503C268.179 59.989 267.378 60.8564 266.201 61.3315L265.372 60.0994V61.2155H260.29V55.5359H261.908ZM258.897 51.1326C258.886 49.1934 260.461 47.8398 262.621 47.8398C264.45 47.8398 265.886 48.8619 266.24 50.3978H268.798V47.2707H270.533V54.7459H268.798V51.8232H266.251C265.914 53.3978 264.466 54.442 262.621 54.442C260.461 54.442 258.886 53.0829 258.897 51.1326ZM260.549 51.1326C260.549 52.2707 261.406 53.011 262.621 53.0221C263.814 53.011 264.665 52.2707 264.665 51.1326C264.665 50.0055 263.814 49.2762 262.621 49.2762C261.406 49.2762 260.549 50.0055 260.549 51.1326ZM261.908 59.884H263.765V58.3481H261.908V59.884ZM276.388 48.2928C278.3 48.2983 279.714 49.8895 279.963 52.4641H282.648V47.2707H284.372V61.4144H282.648V53.8674H279.98C279.797 56.5967 278.355 58.2873 276.388 58.2818C274.267 58.2873 272.759 56.3536 272.77 53.2818C272.759 50.232 274.267 48.2983 276.388 48.2928ZM274.433 53.2818C274.427 55.453 275.228 56.7127 276.388 56.7127C277.56 56.7127 278.35 55.453 278.355 53.2818C278.35 51.1271 277.56 49.8619 276.388 49.8619C275.228 49.8619 274.427 51.1271 274.433 53.2818ZM299.272 58.2486V59.674H286.36V58.2486H289.344V54.674C288.217 54.0276 287.537 53.0166 287.543 51.7624C287.537 49.5138 289.741 48.0276 292.786 48.0221C295.83 48.0276 298.051 49.5138 298.051 51.7624C298.051 52.9945 297.388 53.989 296.294 54.6409V58.2486H299.272ZM289.244 51.7624C289.244 53.2099 290.67 54.1326 292.786 54.1326C294.885 54.1326 296.344 53.2099 296.344 51.7624C296.344 50.2928 294.885 49.4033 292.786 49.4088C290.67 49.4033 289.244 50.2928 289.244 51.7624ZM291.062 58.2486H294.537V55.3094C293.996 55.4254 293.41 55.4862 292.786 55.4862C292.172 55.4862 291.598 55.4254 291.062 55.3094V58.2486Z" fill="#9E9E9E"/>
</g>
<defs>
<filter id="filter0_d_1150_3277" x="0" y="0" width="363" height="109" filterUnits="userSpaceOnUse" color-interpolation-filters="sRGB">
<feFlood flood-opacity="0" result="BackgroundImageFix"/>
<feColorMatrix in="SourceAlpha" type="matrix" values="0 0 0 0 0 0 0 0 0 0 0 0 0 0 0 0 0 0 127 0" result="hardAlpha"/>
<feOffset/>
<feGaussianBlur stdDeviation="2.5"/>
<feComposite in2="hardAlpha" operator="out"/>
<feColorMatrix type="matrix" values="0 0 0 0 0 0 0 0 0 0 0 0 0 0 0 0 0 0 0.1 0"/>
<feBlend mode="normal" in2="BackgroundImageFix" result="effect1_dropShadow_1150_3277"/>
<feBlend mode="normal" in="SourceGraphic" in2="effect1_dropShadow_1150_3277" result="shape"/>
</filter>
</defs>
</svg>
