<svg width="65" height="22" viewBox="0 0 65 22" fill="none" xmlns="http://www.w3.org/2000/svg">
<g clip-path="url(#clip0_670_3094)">
<path d="M12.8784 15.9745L13.7432 16.1273L14.7019 16.0852L15.6606 15.9857L16.6193 16.1034L17.578 16.2352L18.5367 16.0894L19.4955 16.1006L20.4556 16.1343L21.5222 15.9577L21.3134 16.9907L21.3484 17.9129L21.4409 18.8352L21.4844 19.8346L20.4023 19.9089L19.3917 19.6496L18.3812 19.7533L17.3706 19.8051L16.3586 19.829L15.348 19.8822L14.3361 19.6524L13.3241 19.9607L12.3121 19.878L11.3001 19.8556L10.2881 19.7855L9.27617 19.5543L8.26559 19.5907L7.25361 19.7645L6.24163 19.9565L5.22966 19.6804L4.21768 19.9355L3.2071 19.8766L2.19513 19.7981L1.18175 19.8696L0.15295 19.7757L0.371604 18.8366L0.308531 17.9143L-0.00683594 16.9921L0.308531 16.2142L1.12989 16.0235L2.09141 16.1861L3.05292 16.1455L4.01444 16.2464L4.97596 15.9913L5.93748 16.1511L6.899 16.0193L7.86192 16.217L8.78419 16.0306L8.86549 15.1097L9.01126 14.1482L8.83605 13.1866L8.76597 12.2476L7.7624 12.1018L6.7252 12.4087L5.66837 12.2532L4.62135 12.4326L3.57013 12.4382L2.6885 12.3625L2.71513 11.4626L2.6885 10.4997L2.53012 9.5368L2.32688 8.57388L2.61141 7.61096L2.50629 6.64804L2.56095 5.68512L2.60861 4.7222L2.53993 3.75787L2.5189 2.79355L2.48106 1.78718L3.58274 1.64702L4.64658 1.69608L5.71042 1.81662L6.77425 1.75915L7.83809 1.73112L8.90193 1.67365L10.0821 1.72551L10.1606 2.99959L9.84383 4.16995L10.0989 5.44824L9.01266 5.44264L8.05675 5.51832L7.10083 5.47487L6.25565 5.45665L6.07344 6.26259L5.96271 7.18486L6.19818 8.10714L6.215 9.00418L7.11906 9.15976L8.08198 8.97334L9.03509 8.72525L9.8242 8.85L10.2419 9.82273L10.1732 10.8838L10.1045 12.0527L11.2314 12.0429L11.2525 10.9244L11.0408 9.91524L11.01 8.90466L11.3029 7.89409L10.9623 6.88351L11.0058 5.87294L10.9161 4.86236L11.1179 3.85178L11.0464 2.83981L10.9623 1.68907L12.0878 1.86567H13.069L14.0501 2.01985L15.0313 1.63721L16.011 2.01845L16.9921 1.90071L17.9733 1.804L18.9446 1.83904L18.7568 2.99959L19.1422 4.16995L19.0343 5.4118L17.8836 5.38517L16.8113 5.31368L15.7377 5.28705L14.5954 5.25902L14.5253 6.25558L14.7706 7.17225L14.7369 8.08891L14.6879 8.98315L15.5905 9.03361L16.5156 8.96914L17.4407 8.92709L18.3671 8.97755L19.4212 8.90186L19.4156 10.1451L19.3511 11.286L19.1465 12.2868L18.2088 12.2462L17.1253 12.3176L16.0404 12.5012L14.957 12.2672L13.8721 12.4662L12.8657 12.5209L12.5826 13.338L12.9008 14.2491L12.7634 15.1615L12.8812 15.9745H12.8784Z" fill="#1F79FF"/>
<path d="M34.4771 1.39583L34.358 2.43304L34.5206 3.43941L34.4294 4.44438L34.4379 5.45075V6.45712L34.2641 7.46349L34.6467 8.46987L34.6439 9.47484L34.5206 10.4812L34.5724 11.489L34.3608 12.4113L33.4623 12.6762L32.477 12.522L31.4916 12.386L30.5063 12.6916L29.5209 12.3846L28.5356 12.6327L27.5502 12.4757L26.5649 12.5921L25.5781 12.2921L24.5914 12.3145L23.6467 12.4547L23.7112 11.4904L23.6607 10.484L23.4407 9.47904L23.3916 8.47267L23.421 7.4663L23.4 6.45993L23.4505 5.45356L23.5598 4.44859L23.5948 3.44222L23.6537 2.43444L23.5065 1.31594L24.7582 1.55983L25.9131 1.31875L26.9742 1.5388L26.8705 2.3952L27.1101 3.36372L26.9588 4.44298L28.045 4.286L29.0234 4.2019L30.0017 4.38972L31.1048 4.4598L30.9632 3.36513L31.0585 2.3966L31.1202 1.59487L32.135 1.37902L33.2885 1.30333L34.4729 1.39583H34.4771ZM25.766 17.4431L25.8893 16.312L25.7267 15.2089L25.8122 14.1184L26.8312 14.1156H27.8642L28.8972 14.2894L29.9302 13.9068L30.9632 13.9096L31.9962 14.0329L33.0278 13.9811L34.0608 14.2278L35.0938 13.9264L36.1268 14.0806L37.1598 14.2166L38.1928 13.911L39.2258 14.218L40.2602 13.9699L41.2806 14.1212L41.3899 15.0673L41.09 16.0289L41.1124 16.9904L41.2344 17.9519L41.1867 18.912L41.2372 19.8735L41.4572 20.8365L41.4418 21.9522L40.2897 21.9816L39.2833 22.0026L38.2769 21.9522L37.2383 21.8288L37.2607 20.7033L37.3196 19.6086L37.122 18.5126L37.3659 17.3254L36.2263 17.5244L35.1835 17.2707L34.1421 17.2202L33.0993 17.4599L32.0565 17.2623L31.0137 17.4641L29.9709 17.5482L28.928 17.3604L27.8852 17.2385L26.8424 17.4319L25.7674 17.4445L25.766 17.4431ZM30.9506 9.49446L31.0753 8.33671L30.9282 7.19719L30.0059 7.13271L29.0276 7.14112H28.0492L26.9279 7.0346L27.2685 8.33671L27.2209 9.39775L28.0478 9.44961L29.0262 9.39775L30.0059 9.64443L30.9506 9.49586V9.49446ZM44.1371 5.82359L44.0166 6.74726L44.1792 7.6415L44.0881 8.53574L44.1007 9.42298L43.17 9.42017L42.2309 9.24637L41.432 9.57015L41.4867 10.3803L41.3633 11.3306L41.4152 12.2809L41.2049 13.1443L40.3177 13.4106L39.345 13.2564L38.3722 13.1205L37.2593 13.3658L37.5116 12.2248L37.2635 11.2185L37.4205 10.2121L37.3042 9.20572L37.6041 8.20075L37.5817 7.19438L37.4598 6.18801L37.5074 5.18164L37.457 4.17527L37.2369 3.1703L37.1879 2.16393L37.2173 1.15616L37.2537 0.00681852L38.3722 -0.00439453L39.345 0.104933L40.3177 0.139973L41.2568 0.184826L41.439 1.09869L41.1587 2.04899L41.3998 2.9979L41.1461 3.9482L41.0956 4.89851L41.3227 5.81938L42.2309 6.0044L43.17 5.80256L44.1399 5.81938L44.1371 5.82359Z" fill="#1F79FF"/>
<path d="M45.866 10.2376L45.9389 9.28173L45.8646 8.309L46.0468 7.3615L46.3061 6.43502L46.4869 5.46369L46.9957 4.62551L47.6965 3.94572L48.2123 3.07251L49.1808 2.76976L49.9686 2.13061L50.9427 1.91897L51.9336 1.85309L52.9036 2.07034L53.8146 2.40113L54.7916 2.58194L55.4812 3.29817L56.3684 3.77613L56.9753 4.56384L57.4715 5.42585L57.7308 6.38176L57.7911 7.36851L58.0644 8.30059L58.2746 9.25931L58.0952 10.2376L58.2704 11.216L58.2886 12.2069L57.763 13.1054L57.7238 14.0977L57.2346 14.9499L56.9809 15.9255L56.2128 16.573L55.5863 17.3215L54.7509 17.8275L53.8301 18.1302L52.8882 18.3026L51.9365 18.6502L50.9679 18.4232L49.9672 18.3699L49.1276 17.8233L48.3104 17.2963L47.5311 16.6894L47.0742 15.8105L46.7841 14.8841L46.0636 14.1258L46.194 13.0872L45.7118 12.1901L45.6445 11.2146L45.8688 10.239L45.866 10.2376ZM54.3178 10.2376L54.3206 9.12195L54.0039 8.04129L53.6885 6.97745L53.0269 6.0706L51.9575 5.89399L50.9623 6.17011L50.1802 6.95503L50.1101 8.08194L49.6812 9.12895L49.9209 10.239L49.9475 11.3295L50.0891 12.4032L50.2769 13.4796L50.8614 14.4397L51.9561 14.5827L53.0522 14.4411L53.4965 13.4137L53.802 12.3962L53.9226 11.3239L54.3178 10.239V10.2376ZM60.7527 21.4983L60.8466 20.5957L60.6798 19.5739L60.698 18.5521L60.7093 17.5303L60.527 16.5085L60.5775 15.4868L60.7317 14.465L60.4542 13.4432L60.7345 12.4214L60.4528 11.3996L60.4668 10.3778L60.4724 9.35602L60.6196 8.33423L60.7373 7.31244L60.5242 6.29065L60.7471 5.26886L60.4822 4.24707L60.471 3.22388L60.4458 2.2021L60.5495 1.1789L60.7149 0.23841L61.6231 0.165525L62.6183 0.0463867L63.6134 0.25523L64.6829 0.0828291L64.8259 1.1775L64.4614 2.19929L64.6815 3.22108L64.5329 4.24287L64.774 5.26466L64.5469 6.28645L64.6563 7.30824L64.6198 8.33003L64.5385 9.35181L64.4937 10.3736L64.7726 11.3954L64.617 12.4172L64.7936 13.439L64.6212 14.4608L64.6338 15.4825L64.7361 16.5043L64.5764 17.5261L64.3913 18.5493L64.7908 19.5711L64.3955 20.5943L64.6871 21.6932L63.6162 21.7002L62.6211 21.6609L61.6315 21.5264L60.7527 21.4983Z" fill="#1F79FF"/>
</g>
<defs>
<clipPath id="clip0_670_3094">
<rect width="64.8268" height="22" fill="white"/>
</clipPath>
</defs>
</svg>
