<svg width="393" height="344" viewBox="0 0 393 344" fill="none" xmlns="http://www.w3.org/2000/svg">
<g opacity="0.9">
<path opacity="0.52" d="M96.144 66.0928L112.037 57.3405L101.299 72.0491L116.578 78.0055L98.2917 80.7406L99.1508 92.8964L90.9894 81.5915L80.9258 87.791L85.4053 75.8782L71.9053 72.0491L83.0735 68.6455L85.4053 53.3291L96.144 66.0928Z" fill="#1F79FF"/>
<rect opacity="0.4" x="28.5098" y="110.701" width="112.565" height="132.576" rx="12.7637" transform="rotate(-19.163 28.5098 110.701)" fill="#616161"/>
<path opacity="0.3" d="M169.547 59.0728L221.394 17.5888L202.095 76.3038L256.542 80.7763L195.713 105.132L214.084 146.628L176.264 117.634L166.995 152.886L152.371 104.414L104.404 105.132L134.447 68.6456L130.245 30.6013L169.547 59.0728Z" fill="#1F79FF"/>
<rect x="34.8906" y="95.4922" width="117.844" height="138.888" rx="12.7637" transform="rotate(-15.0881 34.8906 95.4922)" fill="#EFEFEF"/>
<g clip-path="url(#clip0_892_2014)">
<rect x="43.6719" y="101.116" width="103.114" height="96.8008" rx="10.2109" transform="rotate(-15.0881 43.6719 101.116)" fill="url(#paint0_linear_892_2014)"/>
<path opacity="0.12" d="M64.044 145.774C70.3707 144.173 76.818 147.239 79.9591 152.846C81.3465 148.142 85.0145 144.311 89.9885 143.052C97.5989 141.126 105.386 145.952 107.38 153.832C107.527 154.413 107.637 154.995 107.714 155.574C107.747 155.565 107.78 155.556 107.813 155.548C115.423 153.622 123.21 158.448 125.205 166.328C127.199 174.208 122.646 182.157 115.035 184.083C114.017 184.341 112.996 184.477 111.986 184.502L112.505 186.55L68.3748 197.719L67.9684 196.114C66.6777 196.986 65.2224 197.652 63.6333 198.054C56.0231 199.98 48.2371 195.154 46.2428 187.274C44.2485 179.394 48.8009 171.445 56.411 169.518C56.553 169.483 56.6956 169.449 56.8377 169.418C55.4747 167.757 54.441 165.767 53.8749 163.53C51.8807 155.65 56.4337 147.7 64.044 145.774Z" fill="#1F79FF"/>
<path opacity="0.12" d="M126.474 105.511C131.257 104.3 136.129 106.62 138.503 110.859C139.551 107.302 142.324 104.404 146.085 103.452C151.838 101.996 157.723 105.645 159.231 111.601C159.342 112.041 159.423 112.481 159.481 112.92C159.507 112.913 159.533 112.905 159.559 112.898C165.312 111.442 171.197 115.091 172.704 121.047C174.212 127.003 170.771 133.012 165.018 134.468C164.407 134.623 163.795 134.716 163.186 134.758L163.277 135.118L129.141 143.758C128.242 144.321 127.243 144.755 126.164 145.028C120.411 146.484 114.526 142.836 113.018 136.879C111.511 130.923 114.952 124.914 120.705 123.458C120.813 123.431 120.922 123.409 121.03 123.385C119.998 122.13 119.216 120.624 118.787 118.932C117.28 112.976 120.722 106.966 126.474 105.511Z" fill="#1F79FF"/>
</g>
</g>
<g filter="url(#filter0_d_892_2014)">
<path d="M194.746 163.267L213.941 200.703C214.349 201.498 213.629 202.391 212.776 202.129C197.814 197.522 168.688 184.728 155.901 164.968C142.522 144.295 175.68 154.824 194.247 162.797C194.465 162.891 194.637 163.055 194.746 163.267Z" fill="#C1D8FC"/>
<circle cx="256.244" cy="194.155" r="77.8451" fill="url(#paint1_radial_892_2014)"/>
<circle cx="226.023" cy="160.552" r="5.47509" fill="#2B2B2B" stroke="#2B2B2B" stroke-width="0.170551"/>
<circle cx="258.418" cy="160.552" r="5.47509" fill="#2B2B2B" stroke="#2B2B2B" stroke-width="0.170551"/>
<line x1="222.216" y1="148.403" x2="230.315" y2="148.403" stroke="#2B2B2B" stroke-width="2.53843" stroke-linecap="round"/>
<line x1="254.198" y1="148.093" x2="264.348" y2="145.07" stroke="#2B2B2B" stroke-width="2.53843" stroke-linecap="round"/>
<circle opacity="0.12" cx="205.959" cy="172.881" r="15.4723" fill="white"/>
<circle opacity="0.12" cx="278.484" cy="172.881" r="15.4723" fill="white"/>
<path d="M213.093 172.086C212.433 171.897 212.433 170.962 213.093 170.773L242.526 162.387C242.823 162.302 243.14 162.428 243.299 162.693L248.297 171.08C248.425 171.295 248.425 171.563 248.297 171.779L243.299 180.166C243.14 180.431 242.823 180.557 242.526 180.472L213.093 172.086Z" fill="#FF4949"/>
<path d="M319.376 157.909L294.105 191.544C293.569 192.258 294.126 193.261 295.011 193.147C310.538 191.146 341.413 183.481 357.369 166.178C374.062 148.076 339.599 152.824 319.948 157.531C319.717 157.586 319.519 157.719 319.376 157.909Z" fill="#C1D8FC"/>
</g>
<defs>
<filter id="filter0_d_892_2014" x="148.572" y="112.079" width="217.458" height="164.152" filterUnits="userSpaceOnUse" color-interpolation-filters="sRGB">
<feFlood flood-opacity="0" result="BackgroundImageFix"/>
<feColorMatrix in="SourceAlpha" type="matrix" values="0 0 0 0 0 0 0 0 0 0 0 0 0 0 0 0 0 0 127 0" result="hardAlpha"/>
<feOffset/>
<feGaussianBlur stdDeviation="2.11536"/>
<feComposite in2="hardAlpha" operator="out"/>
<feColorMatrix type="matrix" values="0 0 0 0 0 0 0 0 0 0 0 0 0 0 0 0 0 0 0.1 0"/>
<feBlend mode="normal" in2="BackgroundImageFix" result="effect1_dropShadow_892_2014"/>
<feBlend mode="normal" in="SourceGraphic" in2="effect1_dropShadow_892_2014" result="shape"/>
</filter>
<linearGradient id="paint0_linear_892_2014" x1="95.5151" y1="11.8242" x2="95.2969" y2="153.668" gradientUnits="userSpaceOnUse">
<stop stop-color="#1F79FF" stop-opacity="0.48"/>
<stop offset="1" stop-color="#FCFCFC"/>
</linearGradient>
<radialGradient id="paint1_radial_892_2014" cx="0" cy="0" r="1" gradientUnits="userSpaceOnUse" gradientTransform="translate(285.496 241.539) rotate(-122.729) scale(131.907)">
<stop stop-color="#5197FF"/>
<stop offset="1" stop-color="#F6FAFF"/>
</radialGradient>
<clipPath id="clip0_892_2014">
<rect x="43.6719" y="101.116" width="103.114" height="96.8008" rx="10.2109" transform="rotate(-15.0881 43.6719 101.116)" fill="white"/>
</clipPath>
</defs>
</svg>
