<svg width="172" height="139" viewBox="0 0 172 139" fill="none" xmlns="http://www.w3.org/2000/svg">
<rect width="172" height="139" fill="#FCFCFC"/>
<path d="M50.8428 100.176H49.5576V87.8984H50.8428V100.176ZM49.9062 93.374H47.0146V92.3076H49.9062V93.374ZM44.7383 91.3301C44.7383 92.237 44.5902 93.1211 44.2939 93.9824C44.0023 94.8392 43.5944 95.6025 43.0703 96.2725C42.5462 96.9378 41.9492 97.4414 41.2793 97.7832L40.5 96.7578C41.1152 96.4616 41.6644 96.0264 42.1475 95.4521C42.6305 94.8779 43.0065 94.2308 43.2754 93.5107C43.5488 92.7861 43.6855 92.0592 43.6855 91.3301V89.7031H44.7383V91.3301ZM44.9912 91.3301C44.9912 92.0228 45.1257 92.7132 45.3945 93.4014C45.668 94.0895 46.0485 94.7093 46.5361 95.2607C47.0238 95.8122 47.5706 96.2246 48.1768 96.498L47.4043 97.5371C46.7344 97.2044 46.1374 96.7168 45.6133 96.0742C45.0938 95.4316 44.6882 94.7002 44.3965 93.8799C44.1094 93.055 43.9658 92.2051 43.9658 91.3301V89.7031H44.9912V91.3301ZM47.7256 90.209H40.9717V89.1289H47.7256V90.209ZM56.7627 90.1611C56.7627 90.9176 56.6237 91.6286 56.3457 92.2939C56.0723 92.9548 55.6758 93.5312 55.1562 94.0234C54.6367 94.5156 54.0192 94.8848 53.3037 95.1309L52.6406 94.0918C53.2741 93.8776 53.8187 93.57 54.2744 93.1689C54.7347 92.7679 55.0856 92.3076 55.3271 91.7881C55.5732 91.2686 55.6963 90.7262 55.6963 90.1611V89.2451H56.7627V90.1611ZM57.002 90.1611C57.002 90.6761 57.1182 91.1683 57.3506 91.6377C57.583 92.1071 57.9202 92.5241 58.3623 92.8887C58.8089 93.2487 59.3376 93.529 59.9482 93.7295L59.3193 94.7412C58.613 94.5133 58.0068 94.1738 57.501 93.7227C56.9951 93.2715 56.6077 92.7406 56.3389 92.1299C56.07 91.5192 55.9355 90.863 55.9355 90.1611V89.2451H57.002V90.1611ZM59.6406 89.8467H53.0166V88.7803H59.6406V89.8467ZM62.3545 95.2607H61.042V87.9189H62.3545V95.2607ZM64.125 92.0137H61.9922V90.9336H64.125V92.0137ZM58.3896 95.5547C59.2327 95.5547 59.9596 95.6458 60.5703 95.8281C61.1855 96.0059 61.6549 96.2656 61.9785 96.6074C62.3066 96.9492 62.4707 97.3594 62.4707 97.8379C62.4707 98.3164 62.3066 98.7266 61.9785 99.0684C61.6549 99.4147 61.1855 99.679 60.5703 99.8613C59.9596 100.048 59.2327 100.142 58.3896 100.142C57.5511 100.142 56.8242 100.048 56.209 99.8613C55.5938 99.679 55.1198 99.4147 54.7871 99.0684C54.459 98.7266 54.2949 98.3164 54.2949 97.8379C54.2949 97.3594 54.459 96.9492 54.7871 96.6074C55.1198 96.2656 55.5938 96.0059 56.209 95.8281C56.8242 95.6458 57.5511 95.5547 58.3896 95.5547ZM58.3896 96.5938C57.8018 96.5938 57.2959 96.6416 56.8721 96.7373C56.4528 96.8285 56.1315 96.9674 55.9082 97.1543C55.6895 97.3411 55.5801 97.569 55.5801 97.8379C55.5801 98.1022 55.6895 98.3324 55.9082 98.5283C56.1315 98.7197 56.4528 98.8656 56.8721 98.9658C57.2959 99.0615 57.8018 99.1094 58.3896 99.1094C58.9821 99.1094 59.4857 99.0615 59.9004 98.9658C60.3197 98.8656 60.6387 98.7197 60.8574 98.5283C61.0807 98.3324 61.1924 98.1022 61.1924 97.8379C61.1924 97.569 61.0807 97.3411 60.8574 97.1543C60.6387 96.9674 60.3197 96.8285 59.9004 96.7373C59.4857 96.6416 58.9821 96.5938 58.3896 96.5938ZM71.9453 92.8887H65.957V91.8359H71.9453V92.8887ZM69.5801 94.8984H68.2676V92.4854H69.5801V94.8984ZM71.8701 89.7578H67.2695V92.2871H65.957V88.6982H71.8701V89.7578ZM74.9805 97.0859H73.6816V87.9121H74.9805V97.0859ZM75.3701 99.9023H66.9004V98.8359H75.3701V99.9023ZM68.1992 99.2734H66.9004V96.4639H68.1992V99.2734ZM64.8838 94.5293C66.3695 94.5202 67.7686 94.4951 69.0811 94.4541C70.3936 94.4131 71.6172 94.3288 72.752 94.2012L72.8477 95.1514C71.6582 95.3154 70.4072 95.4294 69.0947 95.4932C67.7822 95.557 66.4355 95.5889 65.0547 95.5889L64.8838 94.5293ZM91.585 95.3633H80.3877V94.3105H91.585V95.3633ZM86.7383 97.6055H85.4395V94.8643H86.7383V97.6055ZM90.3408 99.9023H81.7754V98.8359H90.3408V99.9023ZM83.0742 99.2529H81.7754V96.5664H83.0742V99.2529ZM83.1494 89.7646H88.8096V88.2881H90.1221V93.2305H81.8643V88.2881H83.1494V89.7646ZM88.8096 92.1982V90.7627H83.1494V92.1982H88.8096ZM101.661 91.4668H98.8379V90.3936H101.661V91.4668ZM96.5752 89.7783C96.5752 90.5667 96.4385 91.3027 96.165 91.9863C95.8962 92.6699 95.5065 93.2646 94.9961 93.7705C94.4857 94.2764 93.8773 94.6615 93.1709 94.9258L92.4941 93.8867C93.123 93.668 93.6654 93.3512 94.1211 92.9365C94.5768 92.5173 94.9209 92.0365 95.1533 91.4941C95.3903 90.9518 95.5088 90.3799 95.5088 89.7783V88.541H96.5752V89.7783ZM96.8145 89.8398C96.8145 90.3822 96.9329 90.9062 97.1699 91.4121C97.4115 91.918 97.7533 92.3646 98.1953 92.752C98.6419 93.1393 99.166 93.4378 99.7676 93.6475L99.0635 94.6865C98.389 94.4359 97.8011 94.069 97.2998 93.5859C96.8031 93.0983 96.4202 92.5355 96.1514 91.8975C95.887 91.2549 95.7549 90.569 95.7549 89.8398V88.541H96.8145V89.8398ZM102.721 100.155H101.395V96.8535H94.415V95.8008H102.721V100.155ZM102.721 95.1582H101.395V87.9189H102.721V95.1582ZM118.293 94.126H116.967V87.9121H118.293V94.126ZM114.438 88.4727C114.438 89.5026 114.214 90.4118 113.768 91.2002C113.326 91.984 112.678 92.6449 111.826 93.1826C110.979 93.7158 109.939 94.126 108.709 94.4131L108.258 93.3467C109.297 93.1143 110.172 92.7952 110.883 92.3896C111.594 91.984 112.125 91.5055 112.476 90.9541C112.831 90.4027 113.009 89.7988 113.009 89.1426V88.4727H114.438ZM113.583 89.5254H108.921V88.4727H113.583V89.5254ZM117.172 90.6191H113.979V89.6074H117.172V90.6191ZM117.104 92.9775H113.884V91.9658H117.104V92.9775ZM118.293 97.7695H111.601V99.5947H110.302V96.7783H116.98V95.6982H110.274V94.666H118.293V97.7695ZM118.648 100.032H110.302V99H118.648V100.032ZM126.229 90.2705H120.72V89.2109H126.229V90.2705ZM123.844 96.8672H122.552V92.7109H123.844V96.8672ZM126.981 89.9629C126.981 90.7832 126.961 91.5534 126.92 92.2734C126.883 92.9889 126.788 93.8275 126.633 94.7891L125.348 94.666C125.507 93.7409 125.605 92.9274 125.642 92.2256C125.683 91.5238 125.703 90.7695 125.703 89.9629V89.2109H126.981V89.9629ZM129.702 100.155H128.396V87.9121H129.702V100.155ZM131.603 94.0713H129.333V92.9775H131.603V94.0713ZM120.05 96.4502C121.485 96.4502 122.846 96.4274 124.131 96.3818C125.416 96.3363 126.608 96.2451 127.706 96.1084L127.774 97.0723C126.631 97.2546 125.425 97.3799 124.158 97.4482C122.891 97.512 121.572 97.5439 120.2 97.5439L120.05 96.4502ZM54.1476 105.271V119.414H52.4072V105.271H54.1476ZM56.3244 110.624V112.05H53.7664V110.624H56.3244ZM44.8271 114.508C46.142 114.508 47.2931 114.475 48.2802 114.409C49.271 114.343 50.271 114.221 51.2802 114.044L51.4791 115.508C50.4478 115.689 49.433 115.808 48.4349 115.867C47.4367 115.926 46.2341 115.954 44.8271 115.95H43.6669V114.508H44.8271ZM50.2746 106.602V108.011H45.3962V115.204H43.6669V106.602H50.2746ZM61.926 108.663C61.926 109.838 61.7658 110.947 61.4453 111.989C61.1249 113.031 60.6571 113.95 60.042 114.746C59.4269 115.541 58.6884 116.142 57.8265 116.547L56.7658 115.099C57.5282 114.768 58.1912 114.271 58.7547 113.608C59.3182 112.945 59.7473 112.186 60.042 111.331C60.3403 110.473 60.4914 109.584 60.495 108.663V106.403H61.926V108.663ZM62.2519 108.663C62.2483 109.536 62.3901 110.381 62.6774 111.199C62.9683 112.017 63.3919 112.746 63.9481 113.387C64.5042 114.028 65.1543 114.508 65.8984 114.829L64.8652 116.221C64.0291 115.831 63.3053 115.256 62.6939 114.497C62.0862 113.735 61.6221 112.853 61.3017 111.851C60.9812 110.849 60.821 109.786 60.821 108.663V106.403H62.2519V108.663ZM68.6663 105.271V119.414H66.9149V105.271H68.6663ZM84.9709 106.807V108.166H81.1587V106.807H84.9709ZM84.9709 109.685V111.044H81.1587V109.685H84.9709ZM78.4571 105.702C79.1569 105.702 79.7867 105.838 80.3466 106.11C80.9064 106.383 81.3466 106.766 81.667 107.26C81.9911 107.753 82.155 108.311 82.1587 108.934C82.155 109.564 81.9911 110.125 81.667 110.619C81.3466 111.112 80.9064 111.497 80.3466 111.773C79.7867 112.046 79.1569 112.182 78.4571 112.182C77.7462 112.182 77.1071 112.046 76.5399 111.773C75.9727 111.497 75.5289 111.112 75.2084 110.619C74.888 110.125 74.7296 109.564 74.7333 108.934C74.7296 108.311 74.888 107.753 75.2084 107.26C75.5326 106.766 75.9782 106.383 76.5455 106.11C77.1127 105.838 77.7499 105.702 78.4571 105.702ZM78.4571 107.116C78.0556 107.112 77.6983 107.186 77.3852 107.337C77.0722 107.488 76.8272 107.702 76.6504 107.978C76.4736 108.25 76.3852 108.569 76.3852 108.934C76.3852 109.302 76.4718 109.626 76.6449 109.906C76.8217 110.182 77.0666 110.398 77.3797 110.552C77.6928 110.703 78.0519 110.781 78.4571 110.785C78.8512 110.781 79.2011 110.703 79.5068 110.552C79.8162 110.398 80.0593 110.182 80.2361 109.906C80.4129 109.626 80.5013 109.302 80.5013 108.934C80.5013 108.569 80.4129 108.25 80.2361 107.978C80.0593 107.702 79.8162 107.488 79.5068 107.337C79.2011 107.186 78.8512 107.112 78.4571 107.116ZM86.3631 105.271V112.398H84.6338V105.271H86.3631ZM86.3631 113.044V116.707H78.8106V118.569H77.0703V115.425H84.6338V114.387H77.0537V113.044H86.3631ZM86.8162 117.84V119.215H77.0703V117.84H86.8162ZM99.5117 105.282V113.674H97.7658V105.282H99.5117ZM101.495 108.713V110.166H98.9868V108.713H101.495ZM99.5117 114.293V119.215H90.3681V114.293H99.5117ZM92.0697 115.652V117.812H97.81V115.652H92.0697ZM90.0752 111.652C91.5448 111.656 92.7585 111.632 93.7161 111.58C94.6738 111.525 95.6425 111.414 96.6222 111.249L96.799 112.619C95.8082 112.807 94.8156 112.932 93.8211 112.994C92.8303 113.053 91.5817 113.083 90.0752 113.083H88.9205V111.652H90.0752ZM95.357 106V110.144H90.6498V112.459H88.9205V108.829H93.6553V107.398H88.8929V106H95.357ZM113.257 105.271V119.381H111.539V105.271H113.257ZM115.434 110.895V112.326H112.876V110.895H115.434ZM110.45 107.431V108.834H102.119V107.431H110.45ZM106.334 109.746C107.005 109.746 107.609 109.89 108.146 110.177C108.688 110.46 109.111 110.855 109.417 111.359C109.727 111.86 109.883 112.431 109.887 113.072C109.883 113.713 109.727 114.285 109.417 114.79C109.111 115.291 108.688 115.683 108.146 115.967C107.609 116.25 107.005 116.392 106.334 116.392C105.653 116.392 105.041 116.25 104.5 115.967C103.959 115.683 103.533 115.291 103.224 114.79C102.918 114.285 102.767 113.713 102.771 113.072C102.767 112.435 102.918 111.864 103.224 111.359C103.533 110.851 103.959 110.455 104.5 110.171C105.041 109.888 105.653 109.746 106.334 109.746ZM106.334 111.171C105.966 111.171 105.638 111.25 105.351 111.409C105.064 111.564 104.837 111.786 104.671 112.077C104.509 112.368 104.43 112.7 104.434 113.072C104.43 113.451 104.509 113.785 104.671 114.072C104.833 114.355 105.058 114.575 105.345 114.729C105.636 114.884 105.966 114.959 106.334 114.956C106.695 114.959 107.018 114.884 107.301 114.729C107.585 114.575 107.808 114.355 107.97 114.072C108.135 113.785 108.22 113.451 108.224 113.072C108.22 112.7 108.135 112.368 107.97 112.077C107.808 111.786 107.585 111.564 107.301 111.409C107.018 111.25 106.695 111.171 106.334 111.171ZM107.191 105.47V107.989H105.456V105.47H107.191ZM127.814 105.271V119.381H126.063V105.271H127.814ZM123.604 106.768C123.604 108.241 123.393 109.593 122.969 110.823C122.545 112.05 121.848 113.177 120.875 114.204C119.906 115.232 118.625 116.127 117.03 116.89L116.118 115.497C117.47 114.853 118.569 114.118 119.417 113.293C120.267 112.468 120.89 111.543 121.284 110.519C121.682 109.495 121.882 108.343 121.886 107.061V106.768H123.604ZM122.671 106.768V108.144H116.836V106.768H122.671Z" fill="#1A1A1A"/>
<g clip-path="url(#clip0_983_1728)">
<rect width="172" height="139" fill="#FCFCFC"/>
<path opacity="0.12" d="M2.44919 61.2739C10.4052 59.2603 18.513 63.1163 22.4628 70.1674C24.2073 64.2522 28.8193 59.4332 35.0741 57.8499C44.6441 55.4278 54.4359 61.4972 56.9438 71.4062C57.1037 72.0379 57.2285 72.6703 57.3226 73.3008C57.8541 73.1113 58.399 72.9448 58.9566 72.8037C68.835 70.3035 78.9415 76.5689 81.5303 86.7972C83.6543 95.1893 80.0571 103.641 73.2412 107.786C73.0457 108.437 72.5253 108.974 71.8181 109.153L4.24097 126.256C3.50018 126.558 2.73048 126.814 1.93387 127.015C-7.636 129.437 -17.4269 123.368 -19.9348 113.459C-22.4427 103.55 -16.718 93.5534 -7.14827 91.1312C-6.96972 91.086 -6.79059 91.0449 -6.61193 91.0056C-8.32612 88.9178 -9.62542 86.4145 -10.3374 83.6015C-12.8453 73.6926 -7.12055 63.6962 2.44919 61.2739ZM24.1183 84.9192L24.1779 84.9041C24.1658 84.8827 24.1544 84.861 24.1424 84.8396C24.1346 84.8662 24.1262 84.8926 24.1183 84.9192Z" fill="#1F79FF"/>
<path opacity="0.12" d="M128.101 14.0573C132.407 12.9677 136.792 15.0569 138.929 18.8739C139.873 15.6711 142.369 13.0612 145.755 12.2042C150.934 10.8935 156.233 14.1782 157.59 19.5403C157.677 19.8828 157.744 20.2257 157.795 20.5674C158.082 20.4648 158.377 20.3737 158.679 20.2972C164.025 18.9443 169.494 22.3344 170.895 27.8693C172.112 32.6794 169.855 37.5244 165.735 39.5993C165.48 39.8796 165.144 40.0915 164.749 40.1915L129.054 49.2257C128.658 49.3864 128.248 49.5245 127.822 49.6322C122.644 50.9429 117.345 47.659 115.988 42.297C114.631 36.9348 117.729 31.5249 122.908 30.2142C123.005 30.1897 123.102 30.1698 123.199 30.1484C122.271 29.0184 121.567 27.6632 121.181 26.1401C119.824 20.778 122.922 15.368 128.101 14.0573ZM139.825 26.8533L139.862 26.8439C139.854 26.831 139.847 26.8181 139.84 26.8051C139.835 26.8213 139.829 26.8372 139.825 26.8533Z" fill="#1F79FF"/>
<path d="M72.8943 53.3604C75.7194 52.7954 78.6135 53.9401 80.288 56.2846L83.3696 60.598L127.791 51.7141C131.756 50.9212 135.612 53.4928 136.406 57.4575L145.559 103.225C146.352 107.19 143.78 111.048 139.816 111.841L41.9986 131.403C38.0337 132.196 34.1765 129.624 33.3835 125.659L22.4358 70.9179C21.6429 66.953 24.2142 63.096 28.1791 62.303L72.8943 53.3604Z" fill="#6AA6FF" fill-opacity="0.92"/>
<path d="M113.46 64.499L114.809 69.5325L28.3249 99.7332L23.749 78.2266L113.46 64.499Z" fill="#1F79FF"/>
<path d="M99.2031 14C111.1 26.0501 120.5 52.404 110.643 90.6816L51.6133 98.7148C58.4771 88.4907 60.4996 38.4034 38.8008 14H99.2031Z" fill="#F8F8F8"/>
<rect x="25.4863" y="86.1738" width="114.397" height="63.1469" rx="7.32139" transform="rotate(-11.3095 25.4863 86.1738)" fill="#ACCDFF"/>
<path d="M50.8428 100.176H49.5576V87.8984H50.8428V100.176ZM49.9062 93.374H47.0146V92.3076H49.9062V93.374ZM44.7383 91.3301C44.7383 92.237 44.5902 93.1211 44.2939 93.9824C44.0023 94.8392 43.5944 95.6025 43.0703 96.2725C42.5462 96.9378 41.9492 97.4414 41.2793 97.7832L40.5 96.7578C41.1152 96.4616 41.6644 96.0264 42.1475 95.4521C42.6305 94.8779 43.0065 94.2308 43.2754 93.5107C43.5488 92.7861 43.6855 92.0592 43.6855 91.3301V89.7031H44.7383V91.3301ZM44.9912 91.3301C44.9912 92.0228 45.1257 92.7132 45.3945 93.4014C45.668 94.0895 46.0485 94.7093 46.5361 95.2607C47.0238 95.8122 47.5706 96.2246 48.1768 96.498L47.4043 97.5371C46.7344 97.2044 46.1374 96.7168 45.6133 96.0742C45.0938 95.4316 44.6882 94.7002 44.3965 93.8799C44.1094 93.055 43.9658 92.2051 43.9658 91.3301V89.7031H44.9912V91.3301ZM47.7256 90.209H40.9717V89.1289H47.7256V90.209ZM56.7627 90.1611C56.7627 90.9176 56.6237 91.6286 56.3457 92.2939C56.0723 92.9548 55.6758 93.5312 55.1562 94.0234C54.6367 94.5156 54.0192 94.8848 53.3037 95.1309L52.6406 94.0918C53.2741 93.8776 53.8187 93.57 54.2744 93.1689C54.7347 92.7679 55.0856 92.3076 55.3271 91.7881C55.5732 91.2686 55.6963 90.7262 55.6963 90.1611V89.2451H56.7627V90.1611ZM57.002 90.1611C57.002 90.6761 57.1182 91.1683 57.3506 91.6377C57.583 92.1071 57.9202 92.5241 58.3623 92.8887C58.8089 93.2487 59.3376 93.529 59.9482 93.7295L59.3193 94.7412C58.613 94.5133 58.0068 94.1738 57.501 93.7227C56.9951 93.2715 56.6077 92.7406 56.3389 92.1299C56.07 91.5192 55.9355 90.863 55.9355 90.1611V89.2451H57.002V90.1611ZM59.6406 89.8467H53.0166V88.7803H59.6406V89.8467ZM62.3545 95.2607H61.042V87.9189H62.3545V95.2607ZM64.125 92.0137H61.9922V90.9336H64.125V92.0137ZM58.3896 95.5547C59.2327 95.5547 59.9596 95.6458 60.5703 95.8281C61.1855 96.0059 61.6549 96.2656 61.9785 96.6074C62.3066 96.9492 62.4707 97.3594 62.4707 97.8379C62.4707 98.3164 62.3066 98.7266 61.9785 99.0684C61.6549 99.4147 61.1855 99.679 60.5703 99.8613C59.9596 100.048 59.2327 100.142 58.3896 100.142C57.5511 100.142 56.8242 100.048 56.209 99.8613C55.5938 99.679 55.1198 99.4147 54.7871 99.0684C54.459 98.7266 54.2949 98.3164 54.2949 97.8379C54.2949 97.3594 54.459 96.9492 54.7871 96.6074C55.1198 96.2656 55.5938 96.0059 56.209 95.8281C56.8242 95.6458 57.5511 95.5547 58.3896 95.5547ZM58.3896 96.5938C57.8018 96.5938 57.2959 96.6416 56.8721 96.7373C56.4528 96.8285 56.1315 96.9674 55.9082 97.1543C55.6895 97.3411 55.5801 97.569 55.5801 97.8379C55.5801 98.1022 55.6895 98.3324 55.9082 98.5283C56.1315 98.7197 56.4528 98.8656 56.8721 98.9658C57.2959 99.0615 57.8018 99.1094 58.3896 99.1094C58.9821 99.1094 59.4857 99.0615 59.9004 98.9658C60.3197 98.8656 60.6387 98.7197 60.8574 98.5283C61.0807 98.3324 61.1924 98.1022 61.1924 97.8379C61.1924 97.569 61.0807 97.3411 60.8574 97.1543C60.6387 96.9674 60.3197 96.8285 59.9004 96.7373C59.4857 96.6416 58.9821 96.5938 58.3896 96.5938ZM71.9453 92.8887H65.957V91.8359H71.9453V92.8887ZM69.5801 94.8984H68.2676V92.4854H69.5801V94.8984ZM71.8701 89.7578H67.2695V92.2871H65.957V88.6982H71.8701V89.7578ZM74.9805 97.0859H73.6816V87.9121H74.9805V97.0859ZM75.3701 99.9023H66.9004V98.8359H75.3701V99.9023ZM68.1992 99.2734H66.9004V96.4639H68.1992V99.2734ZM64.8838 94.5293C66.3695 94.5202 67.7686 94.4951 69.0811 94.4541C70.3936 94.4131 71.6172 94.3288 72.752 94.2012L72.8477 95.1514C71.6582 95.3154 70.4072 95.4294 69.0947 95.4932C67.7822 95.557 66.4355 95.5889 65.0547 95.5889L64.8838 94.5293ZM91.585 95.3633H80.3877V94.3105H91.585V95.3633ZM86.7383 97.6055H85.4395V94.8643H86.7383V97.6055ZM90.3408 99.9023H81.7754V98.8359H90.3408V99.9023ZM83.0742 99.2529H81.7754V96.5664H83.0742V99.2529ZM83.1494 89.7646H88.8096V88.2881H90.1221V93.2305H81.8643V88.2881H83.1494V89.7646ZM88.8096 92.1982V90.7627H83.1494V92.1982H88.8096ZM101.661 91.4668H98.8379V90.3936H101.661V91.4668ZM96.5752 89.7783C96.5752 90.5667 96.4385 91.3027 96.165 91.9863C95.8962 92.6699 95.5065 93.2646 94.9961 93.7705C94.4857 94.2764 93.8773 94.6615 93.1709 94.9258L92.4941 93.8867C93.123 93.668 93.6654 93.3512 94.1211 92.9365C94.5768 92.5173 94.9209 92.0365 95.1533 91.4941C95.3903 90.9518 95.5088 90.3799 95.5088 89.7783V88.541H96.5752V89.7783ZM96.8145 89.8398C96.8145 90.3822 96.9329 90.9062 97.1699 91.4121C97.4115 91.918 97.7533 92.3646 98.1953 92.752C98.6419 93.1393 99.166 93.4378 99.7676 93.6475L99.0635 94.6865C98.389 94.4359 97.8011 94.069 97.2998 93.5859C96.8031 93.0983 96.4202 92.5355 96.1514 91.8975C95.887 91.2549 95.7549 90.569 95.7549 89.8398V88.541H96.8145V89.8398ZM102.721 100.155H101.395V96.8535H94.415V95.8008H102.721V100.155ZM102.721 95.1582H101.395V87.9189H102.721V95.1582ZM118.293 94.126H116.967V87.9121H118.293V94.126ZM114.438 88.4727C114.438 89.5026 114.214 90.4118 113.768 91.2002C113.326 91.984 112.678 92.6449 111.826 93.1826C110.979 93.7158 109.939 94.126 108.709 94.4131L108.258 93.3467C109.297 93.1143 110.172 92.7952 110.883 92.3896C111.594 91.984 112.125 91.5055 112.476 90.9541C112.831 90.4027 113.009 89.7988 113.009 89.1426V88.4727H114.438ZM113.583 89.5254H108.921V88.4727H113.583V89.5254ZM117.172 90.6191H113.979V89.6074H117.172V90.6191ZM117.104 92.9775H113.884V91.9658H117.104V92.9775ZM118.293 97.7695H111.601V99.5947H110.302V96.7783H116.98V95.6982H110.274V94.666H118.293V97.7695ZM118.648 100.032H110.302V99H118.648V100.032ZM126.229 90.2705H120.72V89.2109H126.229V90.2705ZM123.844 96.8672H122.552V92.7109H123.844V96.8672ZM126.981 89.9629C126.981 90.7832 126.961 91.5534 126.92 92.2734C126.883 92.9889 126.788 93.8275 126.633 94.7891L125.348 94.666C125.507 93.7409 125.605 92.9274 125.642 92.2256C125.683 91.5238 125.703 90.7695 125.703 89.9629V89.2109H126.981V89.9629ZM129.702 100.155H128.396V87.9121H129.702V100.155ZM131.603 94.0713H129.333V92.9775H131.603V94.0713ZM120.05 96.4502C121.485 96.4502 122.846 96.4274 124.131 96.3818C125.416 96.3363 126.608 96.2451 127.706 96.1084L127.774 97.0723C126.631 97.2546 125.425 97.3799 124.158 97.4482C122.891 97.512 121.572 97.5439 120.2 97.5439L120.05 96.4502ZM54.1476 105.271V119.414H52.4072V105.271H54.1476ZM56.3244 110.624V112.05H53.7664V110.624H56.3244ZM44.8271 114.508C46.142 114.508 47.2931 114.475 48.2802 114.409C49.271 114.343 50.271 114.221 51.2802 114.044L51.4791 115.508C50.4478 115.689 49.433 115.808 48.4349 115.867C47.4367 115.926 46.2341 115.954 44.8271 115.95H43.6669V114.508H44.8271ZM50.2746 106.602V108.011H45.3962V115.204H43.6669V106.602H50.2746ZM61.926 108.663C61.926 109.838 61.7658 110.947 61.4453 111.989C61.1249 113.031 60.6571 113.95 60.042 114.746C59.4269 115.541 58.6884 116.142 57.8265 116.547L56.7658 115.099C57.5282 114.768 58.1912 114.271 58.7547 113.608C59.3182 112.945 59.7473 112.186 60.042 111.331C60.3403 110.473 60.4914 109.584 60.495 108.663V106.403H61.926V108.663ZM62.2519 108.663C62.2483 109.536 62.3901 110.381 62.6774 111.199C62.9683 112.017 63.3919 112.746 63.9481 113.387C64.5042 114.028 65.1543 114.508 65.8984 114.829L64.8652 116.221C64.0291 115.831 63.3053 115.256 62.6939 114.497C62.0862 113.735 61.6221 112.853 61.3017 111.851C60.9812 110.849 60.821 109.786 60.821 108.663V106.403H62.2519V108.663ZM68.6663 105.271V119.414H66.9149V105.271H68.6663ZM84.9709 106.807V108.166H81.1587V106.807H84.9709ZM84.9709 109.685V111.044H81.1587V109.685H84.9709ZM78.4571 105.702C79.1569 105.702 79.7867 105.838 80.3466 106.11C80.9064 106.383 81.3466 106.766 81.667 107.26C81.9911 107.753 82.155 108.311 82.1587 108.934C82.155 109.564 81.9911 110.125 81.667 110.619C81.3466 111.112 80.9064 111.497 80.3466 111.773C79.7867 112.046 79.1569 112.182 78.4571 112.182C77.7462 112.182 77.1071 112.046 76.5399 111.773C75.9727 111.497 75.5289 111.112 75.2084 110.619C74.888 110.125 74.7296 109.564 74.7333 108.934C74.7296 108.311 74.888 107.753 75.2084 107.26C75.5326 106.766 75.9782 106.383 76.5455 106.11C77.1127 105.838 77.7499 105.702 78.4571 105.702ZM78.4571 107.116C78.0556 107.112 77.6983 107.186 77.3852 107.337C77.0722 107.488 76.8272 107.702 76.6504 107.978C76.4736 108.25 76.3852 108.569 76.3852 108.934C76.3852 109.302 76.4718 109.626 76.6449 109.906C76.8217 110.182 77.0666 110.398 77.3797 110.552C77.6928 110.703 78.0519 110.781 78.4571 110.785C78.8512 110.781 79.2011 110.703 79.5068 110.552C79.8162 110.398 80.0593 110.182 80.2361 109.906C80.4129 109.626 80.5013 109.302 80.5013 108.934C80.5013 108.569 80.4129 108.25 80.2361 107.978C80.0593 107.702 79.8162 107.488 79.5068 107.337C79.2011 107.186 78.8512 107.112 78.4571 107.116ZM86.3631 105.271V112.398H84.6338V105.271H86.3631ZM86.3631 113.044V116.707H78.8106V118.569H77.0703V115.425H84.6338V114.387H77.0537V113.044H86.3631ZM86.8162 117.84V119.215H77.0703V117.84H86.8162ZM99.5117 105.282V113.674H97.7658V105.282H99.5117ZM101.495 108.713V110.166H98.9868V108.713H101.495ZM99.5117 114.293V119.215H90.3681V114.293H99.5117ZM92.0697 115.652V117.812H97.81V115.652H92.0697ZM90.0752 111.652C91.5448 111.656 92.7585 111.632 93.7161 111.58C94.6738 111.525 95.6425 111.414 96.6222 111.249L96.799 112.619C95.8082 112.807 94.8156 112.932 93.8211 112.994C92.8303 113.053 91.5817 113.083 90.0752 113.083H88.9205V111.652H90.0752ZM95.357 106V110.144H90.6498V112.459H88.9205V108.829H93.6553V107.398H88.8929V106H95.357ZM113.257 105.271V119.381H111.539V105.271H113.257ZM115.434 110.895V112.326H112.876V110.895H115.434ZM110.45 107.431V108.834H102.119V107.431H110.45ZM106.334 109.746C107.005 109.746 107.609 109.89 108.146 110.177C108.688 110.46 109.111 110.855 109.417 111.359C109.727 111.86 109.883 112.431 109.887 113.072C109.883 113.713 109.727 114.285 109.417 114.79C109.111 115.291 108.688 115.683 108.146 115.967C107.609 116.25 107.005 116.392 106.334 116.392C105.653 116.392 105.041 116.25 104.5 115.967C103.959 115.683 103.533 115.291 103.224 114.79C102.918 114.285 102.767 113.713 102.771 113.072C102.767 112.435 102.918 111.864 103.224 111.359C103.533 110.851 103.959 110.455 104.5 110.171C105.041 109.888 105.653 109.746 106.334 109.746ZM106.334 111.171C105.966 111.171 105.638 111.25 105.351 111.409C105.064 111.564 104.837 111.786 104.671 112.077C104.509 112.368 104.43 112.7 104.434 113.072C104.43 113.451 104.509 113.785 104.671 114.072C104.833 114.355 105.058 114.575 105.345 114.729C105.636 114.884 105.966 114.959 106.334 114.956C106.695 114.959 107.018 114.884 107.301 114.729C107.585 114.575 107.808 114.355 107.97 114.072C108.135 113.785 108.22 113.451 108.224 113.072C108.22 112.7 108.135 112.368 107.97 112.077C107.808 111.786 107.585 111.564 107.301 111.409C107.018 111.25 106.695 111.171 106.334 111.171ZM107.191 105.47V107.989H105.456V105.47H107.191ZM127.814 105.271V119.381H126.063V105.271H127.814ZM123.604 106.768C123.604 108.241 123.393 109.593 122.969 110.823C122.545 112.05 121.848 113.177 120.875 114.204C119.906 115.232 118.625 116.127 117.03 116.89L116.118 115.497C117.47 114.853 118.569 114.118 119.417 113.293C120.267 112.468 120.89 111.543 121.284 110.519C121.682 109.495 121.882 108.343 121.886 107.061V106.768H123.604ZM122.671 106.768V108.144H116.836V106.768H122.671Z" fill="#1A1A1A"/>
</g>
<defs>
<clipPath id="clip0_983_1728">
<rect width="172" height="139" fill="white"/>
</clipPath>
</defs>
</svg>
