<svg width="353" height="89" viewBox="0 0 353 89" fill="none" xmlns="http://www.w3.org/2000/svg">
<g clip-path="url(#clip0_420_1472)">
<g filter="url(#filter0_d_420_1472)">
<path d="M220.239 50.5259L246.835 58.3001C247.969 58.6315 248.156 60.1346 247.116 60.6953C237.125 66.0838 217.694 73.8665 202.217 70.989C185.389 67.8605 206.347 56.2042 219.332 50.5792C219.62 50.4543 219.937 50.4377 220.239 50.5259Z" fill="#C1D8FC"/>
<circle cx="266.989" cy="65.3996" r="54.3996" fill="url(#paint0_radial_420_1472)"/>
<circle cx="245.871" cy="41.9164" r="3.77282" fill="#2B2B2B" stroke="#2B2B2B" stroke-width="0.225724"/>
<circle cx="268.509" cy="41.9164" r="3.77282" fill="#2B2B2B" stroke="#2B2B2B" stroke-width="0.225724"/>
<line x1="243.336" y1="33.2972" x2="248.738" y2="33.2972" stroke="#2B2B2B" stroke-width="2.03152" stroke-linecap="round"/>
<line x1="265.976" y1="33.2972" x2="271.378" y2="33.2972" stroke="#2B2B2B" stroke-width="2.03152" stroke-linecap="round"/>
<circle opacity="0.12" cx="231.847" cy="50.5325" r="10.8123" fill="white"/>
<circle opacity="0.12" cx="282.532" cy="50.5325" r="10.8123" fill="white"/>
<path d="M238.273 50.3865C237.399 50.1375 237.399 48.8989 238.273 48.6498L257.087 43.2886C257.481 43.1764 257.901 43.3431 258.11 43.6947L261.305 49.0559C261.475 49.3407 261.475 49.6955 261.305 49.9803L258.11 55.3416C257.901 55.6932 257.481 55.8599 257.087 55.7477L238.273 50.3865Z" fill="#FF4949"/>
<path d="M317.132 50.7943L290.556 58.6345C289.423 58.9687 289.239 60.4722 290.28 61.0304C300.285 66.3941 319.735 74.1285 335.205 71.2127C352.025 68.0425 331.038 56.4382 318.039 50.8454C317.751 50.7212 317.433 50.7054 317.132 50.7943Z" fill="#C1D8FC"/>
</g>
<g filter="url(#filter1_d_420_1472)">
<path d="M162.103 0C169.06 0.000214404 174.699 5.64049 174.699 12.5977V40.2021C174.699 42.8722 173.866 45.3471 172.449 47.3848L173.137 60.3545C173.166 60.9136 172.55 61.2712 172.079 60.9688L160.464 53.5156C160.208 53.3517 160.109 53.0624 160.162 52.7998H17.8975C10.9402 52.7998 5.2998 47.1594 5.2998 40.2021V12.5977C5.2998 5.64036 10.9402 0 17.8975 0H162.103Z" fill="white"/>
</g>
<path d="M38.748 14.6094V14.9141C38.748 15.3203 38.7324 15.7148 38.7012 16.0977C38.6738 16.4805 38.6152 16.8945 38.5254 17.3398H39.9668V18.2422H30.3691V17.3398H37.4121C37.5098 16.8711 37.5742 16.4434 37.6055 16.0566C37.6367 15.6699 37.6543 15.2617 37.6582 14.832H31.5762V13.9297H38.748V14.6094ZM38.7715 21.9336H32.6191V22.9883H39.041V23.8789H31.5059V21.0898H37.6582V20.0703H31.4707V19.1914H38.7715V21.9336ZM44.3848 16.5898C44.3848 17.1367 44.5 17.6914 44.7305 18.2539C44.9609 18.8164 45.2812 19.3281 45.6914 19.7891C46.1016 20.2461 46.5645 20.5977 47.0801 20.8438L46.4473 21.7344C45.8613 21.4531 45.3418 21.0352 44.8887 20.4805C44.4395 19.9258 44.0938 19.2988 43.8516 18.5996C43.6094 19.3574 43.2539 20.0391 42.7852 20.6445C42.3203 21.25 41.791 21.6992 41.1973 21.9922L40.5527 21.1016C41.0684 20.8516 41.5332 20.4844 41.9473 20C42.3652 19.5117 42.6914 18.9668 42.9258 18.3652C43.1641 17.7637 43.2832 17.1719 43.2832 16.5898V15.4766H40.9277V14.5508H46.6699V15.4766H44.3848V16.5898ZM48.9199 17.668H50.5957V18.6055H48.9199V23.9961H47.7949V13.4961H48.9199V17.668ZM59.291 17.6797H60.9199V18.6055H59.291V23.9844H58.166V13.4961H59.291V17.6797ZM56.5371 14.6094C56.5332 16.2031 56.1465 17.6367 55.377 18.9102C54.6113 20.1797 53.4004 21.2266 51.7441 22.0508L51.123 21.1953C53.7402 19.8789 55.166 17.9883 55.4004 15.5234H51.6387V14.6094H56.5371ZM73.459 17.9844V19.1914H69.5918V14.2812H73.3887V15.5H71.0918V17.9844H73.459ZM74.127 21.6055V22.8477H64.3887V21.6055H68.4668V19.6367H69.9785V21.6055H74.127ZM68.9238 14.293V15.5H66.6504V17.9375C67.4883 17.9199 68.1914 17.8613 68.9941 17.7031L69.0996 18.9453C68.0215 19.1562 67.1191 19.1855 65.8066 19.1914H65.127V14.293H68.9238ZM83.209 13.4141V16.0039H84.6504V17.2461H83.209V19.8125H81.6973V13.4141H83.209ZM83.209 20.2812V24.0781H81.6973V21.4883H76.0488V20.2812H83.209ZM76.5762 14.0703V15.5H78.7324V14.0703H80.2324V19.2617H75.0645V14.0703H76.5762ZM76.5762 18.0664H78.7324V16.6602H76.5762V18.0664ZM94.2012 17.9844V19.1914H90.334V14.2812H94.1309V15.5H91.834V17.9844H94.2012ZM94.8691 21.6055V22.8477H85.1309V21.6055H89.209V19.6367H90.7207V21.6055H94.8691ZM89.666 14.293V15.5H87.3926V17.9375C88.2305 17.9199 88.9336 17.8613 89.7363 17.7031L89.8418 18.9453C88.7637 19.1562 87.8613 19.1855 86.5488 19.1914H85.8691V14.293H89.666ZM103.951 13.4141V16.0039H105.393V17.2461H103.951V19.8125H102.439V13.4141H103.951ZM103.951 20.2812V24.0781H102.439V21.4883H96.791V20.2812H103.951ZM97.3184 14.0703V15.5H99.4746V14.0703H100.975V19.2617H95.8066V14.0703H97.3184ZM97.3184 18.0664H99.4746V16.6602H97.3184V18.0664ZM118.518 22.6953H108.92V21.7695H113.139V19.6133H110.01V14.2109H111.123V16.0039H116.279V14.2109H117.393V19.6133H114.252V21.7695H118.518V22.6953ZM116.279 18.6992V16.918H111.123V18.6992H116.279ZM127.986 24.0078H126.861V13.4961H127.986V24.0078ZM122.361 14.2812C122.885 14.2812 123.352 14.4336 123.762 14.7383C124.176 15.0391 124.498 15.4688 124.729 16.0273C124.963 16.582 125.08 17.2266 125.08 17.9609C125.08 18.6992 124.963 19.3477 124.729 19.9062C124.498 20.4648 124.176 20.8965 123.762 21.2012C123.352 21.502 122.885 21.6523 122.361 21.6523C121.838 21.6523 121.371 21.5 120.961 21.1953C120.551 20.8906 120.23 20.4609 120 19.9062C119.77 19.3477 119.654 18.6992 119.654 17.9609C119.654 17.2266 119.77 16.582 120 16.0273C120.23 15.4688 120.551 15.0391 120.961 14.7383C121.371 14.4336 121.838 14.2812 122.361 14.2812ZM122.361 15.2891C122.041 15.2891 121.756 15.3984 121.506 15.6172C121.26 15.832 121.068 16.1426 120.932 16.5488C120.799 16.9512 120.732 17.4219 120.732 17.9609C120.732 18.5078 120.799 18.9844 120.932 19.3906C121.068 19.793 121.26 20.1035 121.506 20.3223C121.756 20.5371 122.041 20.6445 122.361 20.6445C122.686 20.6445 122.971 20.5371 123.217 20.3223C123.467 20.1035 123.66 19.793 123.797 19.3906C123.934 18.9844 124.002 18.5078 124.002 17.9609C124.002 17.4219 123.934 16.9512 123.797 16.5488C123.66 16.1426 123.467 15.832 123.217 15.6172C122.971 15.3984 122.686 15.2891 122.361 15.2891ZM138.697 23.9844H137.619V13.4961H138.697V23.9844ZM136.459 23.4805H135.404V18.6055H133.371C132.715 19.875 131.678 20.9219 130.26 21.7461L129.615 20.9492C130.713 20.3008 131.545 19.541 132.111 18.6699C132.678 17.7988 133.008 16.8125 133.102 15.7109H130.119V14.7969H134.209C134.209 15.8711 134.059 16.8398 133.758 17.7031H135.404V13.7539H136.459V23.4805ZM145.342 19.3438H140.432V14.4102H145.342V19.3438ZM141.521 18.4297H144.252V15.3242H141.521V18.4297ZM148.271 16.6367H149.795V17.5742H148.271V21.1719H147.158V13.4961H148.271V16.6367ZM148.729 23.7734H141.627V20.4453H142.74V22.8594H148.729V23.7734ZM59.6133 39.9961H58.4883V37.1836H52.3008V36.2812H59.6133V39.9961ZM59.6133 35.7656H58.4883V29.4961H59.6133V35.7656ZM53.3438 31.5352C53.3398 32.0039 53.4141 32.4844 53.5664 32.9766C53.7188 33.4688 53.9707 33.8926 54.3223 34.248C54.6699 33.8965 54.918 33.4785 55.0664 32.9941C55.2188 32.5098 55.2969 32.0234 55.3008 31.5352V31.1602H54.5625V30.2578H57.5625V31.1602H56.3672V31.5352C56.3672 31.918 56.4238 32.3047 56.5371 32.6953C56.6504 33.082 56.8281 33.4414 57.0703 33.7734C57.3164 34.1055 57.6289 34.3711 58.0078 34.5703L57.4219 35.3789C57.0352 35.1758 56.7109 34.9043 56.4492 34.5645C56.1875 34.2246 55.9824 33.8359 55.834 33.3984C55.5449 34.3789 55.0391 35.0742 54.3164 35.4844C53.9414 35.2617 53.6289 34.9707 53.3789 34.6113C53.1328 34.248 52.9434 33.8418 52.8105 33.3926C52.666 33.8262 52.4629 34.2148 52.2012 34.5586C51.9395 34.9023 51.6172 35.1758 51.2344 35.3789L50.6367 34.5703C51.0156 34.3672 51.3281 34.0977 51.5742 33.7617C51.8242 33.4258 52.0059 33.0645 52.1191 32.6777C52.2324 32.291 52.2891 31.9102 52.2891 31.5352V31.1602H51.0117V30.2578H54.082V31.1602H53.3438V31.5352ZM63.9609 30.2812C64.4375 30.2812 64.8652 30.4102 65.2441 30.668C65.627 30.9219 65.9355 31.2871 66.1699 31.7637C66.4082 32.2363 66.5527 32.793 66.6035 33.4336H68.7656V29.4961H69.8789V40.0078H68.7656V34.3359H66.6094C66.5742 35.0039 66.4395 35.5879 66.2051 36.0879C65.9707 36.5879 65.6602 36.9746 65.2734 37.248C64.8867 37.5176 64.4492 37.6523 63.9609 37.6523C63.4492 37.6523 62.9922 37.502 62.5898 37.2012C62.1875 36.8965 61.8711 36.4648 61.6406 35.9062C61.4141 35.3477 61.3008 34.6992 61.3008 33.9609C61.3008 33.2266 61.4141 32.582 61.6406 32.0273C61.8711 31.4688 62.1875 31.0391 62.5898 30.7383C62.9922 30.4336 63.4492 30.2812 63.9609 30.2812ZM63.9609 31.2891C63.6484 31.2891 63.3711 31.3984 63.1289 31.6172C62.8867 31.832 62.6992 32.1426 62.5664 32.5488C62.4336 32.9512 62.3672 33.4219 62.3672 33.9609C62.3672 34.5078 62.4336 34.9844 62.5664 35.3906C62.6992 35.793 62.8867 36.1035 63.1289 36.3223C63.3711 36.5371 63.6484 36.6445 63.9609 36.6445C64.2773 36.6445 64.5566 36.5371 64.7988 36.3223C65.041 36.1074 65.2285 35.7969 65.3613 35.3906C65.498 34.9844 65.5664 34.5078 65.5664 33.9609C65.5664 33.4219 65.498 32.9512 65.3613 32.5488C65.2285 32.1426 65.041 31.832 64.7988 31.6172C64.5566 31.3984 64.2773 31.2891 63.9609 31.2891ZM81.0703 36.3281H76.8047V39.9844H75.7031V36.3281H71.4961V35.4141H81.0703V36.3281ZM80.1562 31.0195H76.9102C76.9219 31.4336 77.0898 31.832 77.4141 32.2148C77.7422 32.5977 78.1816 32.9238 78.7324 33.1934C79.2832 33.4629 79.8828 33.6445 80.5312 33.7383L80.1094 34.6172C79.5391 34.5273 79.002 34.377 78.498 34.166C77.9941 33.9512 77.5508 33.6855 77.168 33.3691C76.7891 33.0488 76.4941 32.6934 76.2832 32.3027C76.0723 32.6934 75.7754 33.0488 75.3926 33.3691C75.0137 33.6855 74.5723 33.9512 74.0684 34.166C73.5645 34.377 73.0273 34.5273 72.457 34.6172L72.0352 33.7383C72.6836 33.6445 73.2812 33.4629 73.8281 33.1934C74.3789 32.9238 74.8164 32.5977 75.1406 32.2148C75.4688 31.832 75.6367 31.4336 75.6445 31.0195H72.3867V30.1172H80.1562V31.0195ZM85.7109 32.1445C85.7109 32.7852 85.8301 33.4121 86.0684 34.0254C86.3066 34.6387 86.6367 35.1836 87.0586 35.6602C87.4805 36.1328 87.957 36.4883 88.4883 36.7266L87.832 37.6406C87.2305 37.3516 86.6992 36.9258 86.2383 36.3633C85.7773 35.7969 85.4219 35.1484 85.1719 34.418C84.9258 35.1992 84.5684 35.8887 84.0996 36.4863C83.6309 37.084 83.0859 37.5352 82.4648 37.8398L81.7852 36.9258C82.3242 36.6758 82.8066 36.3027 83.2324 35.8066C83.6621 35.3066 83.9961 34.7363 84.2344 34.0957C84.4766 33.4551 84.5977 32.8047 84.5977 32.1445V30.375H85.7109V32.1445ZM90.5625 40.0078H89.4375V29.4961H90.5625V40.0078ZM97.582 31.2891H99.8555V29.5078H100.992V37.1602H99.8555V34.4531H97.582V35.3672H92.707V30.3867H97.582V31.2891ZM93.7969 34.4766H96.4922V31.2891H93.7969V34.4766ZM101.227 39.7734H94.125V36.4688H95.2383V38.8594H101.227V39.7734ZM99.8555 33.5273V32.1914H97.582V33.5273H99.8555ZM105.457 36.8672C106.137 36.8672 106.898 36.8555 107.742 36.832V34.8398H105.961V30.5273H110.461V31.4414H107.074V33.9375H110.555V34.8398H108.809V36.791C109.621 36.7441 110.316 36.6836 110.895 36.6094L110.953 37.4414C109.602 37.6758 107.816 37.793 105.598 37.793L105.457 36.8672ZM114.598 39.9844H113.531V34.7109H112.395V39.457H111.352V29.707H112.395V33.8086H113.531V29.4961H114.598V39.9844ZM125.555 38.6836H115.957V37.7578H118.242V35.0156C117.805 34.7734 117.463 34.4668 117.217 34.0957C116.975 33.7246 116.855 33.3086 116.859 32.8477C116.859 32.3047 117.023 31.8262 117.352 31.4121C117.684 30.998 118.143 30.6797 118.729 30.457C119.318 30.2305 119.984 30.1172 120.727 30.1172C121.48 30.1172 122.15 30.2305 122.736 30.457C123.326 30.6797 123.787 30.998 124.119 31.4121C124.451 31.8262 124.617 32.3047 124.617 32.8477C124.617 33.3047 124.496 33.7188 124.254 34.0898C124.016 34.457 123.68 34.7617 123.246 35.0039V37.7578H125.555V38.6836ZM120.727 30.9961C120.188 30.9961 119.707 31.0723 119.285 31.2246C118.863 31.377 118.535 31.5938 118.301 31.875C118.066 32.1523 117.949 32.4766 117.949 32.8477C117.949 33.2188 118.066 33.5449 118.301 33.8262C118.535 34.1035 118.863 34.3184 119.285 34.4707C119.707 34.623 120.188 34.6992 120.727 34.6992C121.273 34.6992 121.758 34.623 122.18 34.4707C122.602 34.3184 122.932 34.1035 123.17 33.8262C123.408 33.5449 123.527 33.2188 123.527 32.8477C123.527 32.4766 123.408 32.1523 123.17 31.875C122.932 31.5938 122.602 31.377 122.18 31.2246C121.758 31.0723 121.273 30.9961 120.727 30.9961ZM122.133 37.7578V35.4258C121.695 35.5273 121.227 35.5781 120.727 35.5781C120.254 35.5781 119.797 35.5293 119.355 35.4316V37.7578H122.133ZM127.148 36.2344V30.5156H128.438V36.2344H127.148ZM127.793 39.1055C127.547 39.1055 127.344 39.0293 127.184 38.877C127.027 38.7207 126.949 38.5234 126.949 38.2852C126.949 38.0469 127.027 37.8516 127.184 37.6992C127.344 37.543 127.547 37.4648 127.793 37.4648C128.035 37.4648 128.234 37.543 128.391 37.6992C128.547 37.8516 128.625 38.0469 128.625 38.2852C128.625 38.5234 128.547 38.7207 128.391 38.877C128.234 39.0293 128.035 39.1055 127.793 39.1055Z" fill="#1F79FF"/>
</g>
<defs>
<filter id="filter0_d_420_1472" x="190.507" y="5.56004" width="156.397" height="119.679" filterUnits="userSpaceOnUse" color-interpolation-filters="sRGB">
<feFlood flood-opacity="0" result="BackgroundImageFix"/>
<feColorMatrix in="SourceAlpha" type="matrix" values="0 0 0 0 0 0 0 0 0 0 0 0 0 0 0 0 0 0 127 0" result="hardAlpha"/>
<feOffset/>
<feGaussianBlur stdDeviation="2.71998"/>
<feComposite in2="hardAlpha" operator="out"/>
<feColorMatrix type="matrix" values="0 0 0 0 0 0 0 0 0 0 0 0 0 0 0 0 0 0 0.1 0"/>
<feBlend mode="normal" in2="BackgroundImageFix" result="effect1_dropShadow_420_1472"/>
<feBlend mode="normal" in="SourceGraphic" in2="effect1_dropShadow_420_1472" result="shape"/>
</filter>
<filter id="filter1_d_420_1472" x="2.95043" y="-2.34938" width="174.098" height="65.7779" filterUnits="userSpaceOnUse" color-interpolation-filters="sRGB">
<feFlood flood-opacity="0" result="BackgroundImageFix"/>
<feColorMatrix in="SourceAlpha" type="matrix" values="0 0 0 0 0 0 0 0 0 0 0 0 0 0 0 0 0 0 127 0" result="hardAlpha"/>
<feOffset/>
<feGaussianBlur stdDeviation="1.17469"/>
<feComposite in2="hardAlpha" operator="out"/>
<feColorMatrix type="matrix" values="0 0 0 0 0 0 0 0 0 0 0 0 0 0 0 0 0 0 0.25 0"/>
<feBlend mode="normal" in2="BackgroundImageFix" result="effect1_dropShadow_420_1472"/>
<feBlend mode="normal" in="SourceGraphic" in2="effect1_dropShadow_420_1472" result="shape"/>
</filter>
<radialGradient id="paint0_radial_420_1472" cx="0" cy="0" r="1" gradientUnits="userSpaceOnUse" gradientTransform="translate(287.431 98.5123) rotate(-122.729) scale(92.1793)">
<stop stop-color="#5197FF"/>
<stop offset="1" stop-color="#F6FAFF"/>
</radialGradient>
<clipPath id="clip0_420_1472">
<rect width="353" height="89" fill="white"/>
</clipPath>
</defs>
</svg>
