<svg width="393" height="344" viewBox="0 0 393 344" fill="none" xmlns="http://www.w3.org/2000/svg">
<g opacity="0.2">
<rect width="394" height="344" transform="translate(-1)" fill="#FF5C5C"/>
<g opacity="0.9">
<path opacity="0.52" d="M95.144 66.0928L111.037 57.3405L100.299 72.0491L115.578 78.0055L97.2917 80.7406L98.1508 92.8964L89.9894 81.5915L79.9258 87.791L84.4053 75.8782L70.9053 72.0491L82.0735 68.6455L84.4053 53.3291L95.144 66.0928Z" fill="#1F79FF"/>
<rect opacity="0.4" x="27.5098" y="110.701" width="112.565" height="132.576" rx="12.7637" transform="rotate(-19.163 27.5098 110.701)" fill="#616161"/>
<path opacity="0.3" d="M168.547 59.0728L220.394 17.5888L201.095 76.3038L255.542 80.7763L194.713 105.132L213.084 146.628L175.264 117.634L165.995 152.886L151.371 104.414L103.404 105.132L133.447 68.6456L129.245 30.6013L168.547 59.0728Z" fill="#1F79FF"/>
<rect x="33.8906" y="95.4922" width="117.844" height="138.888" rx="12.7637" transform="rotate(-15.0881 33.8906 95.4922)" fill="#EFEFEF"/>
<g clip-path="url(#clip0_892_2328)">
<rect x="42.6719" y="101.116" width="103.114" height="96.8008" rx="10.2109" transform="rotate(-15.0881 42.6719 101.116)" fill="url(#paint0_linear_892_2328)"/>
<path opacity="0.12" d="M63.044 145.774C69.3707 144.173 75.818 147.239 78.9591 152.846C80.3465 148.142 84.0145 144.311 88.9885 143.052C96.5989 141.126 104.386 145.952 106.38 153.832C106.527 154.413 106.637 154.995 106.714 155.574C106.747 155.565 106.78 155.556 106.813 155.548C114.423 153.622 122.21 158.448 124.205 166.328C126.199 174.208 121.646 182.157 114.035 184.083C113.017 184.341 111.996 184.477 110.986 184.502L111.505 186.55L67.3748 197.719L66.9684 196.114C65.6777 196.986 64.2224 197.652 62.6333 198.054C55.0231 199.98 47.2371 195.154 45.2428 187.274C43.2485 179.394 47.8009 171.445 55.411 169.518C55.553 169.483 55.6956 169.449 55.8377 169.418C54.4747 167.757 53.441 165.767 52.8749 163.53C50.8807 155.65 55.4337 147.7 63.044 145.774Z" fill="#1F79FF"/>
<path opacity="0.12" d="M125.474 105.511C130.257 104.3 135.129 106.62 137.503 110.859C138.551 107.302 141.324 104.404 145.085 103.452C150.838 101.996 156.723 105.645 158.231 111.601C158.342 112.041 158.423 112.481 158.481 112.92C158.507 112.913 158.533 112.905 158.559 112.898C164.312 111.442 170.197 115.091 171.704 121.047C173.212 127.003 169.771 133.012 164.018 134.468C163.407 134.623 162.795 134.716 162.186 134.758L162.277 135.118L128.141 143.758C127.242 144.321 126.243 144.755 125.164 145.028C119.411 146.484 113.526 142.836 112.018 136.879C110.511 130.923 113.952 124.914 119.705 123.458C119.813 123.431 119.922 123.409 120.03 123.385C118.998 122.13 118.216 120.624 117.787 118.932C116.28 112.976 119.722 106.966 125.474 105.511Z" fill="#1F79FF"/>
</g>
</g>
<g filter="url(#filter0_d_892_2328)">
<path d="M193.746 163.267L212.941 200.703C213.349 201.498 212.629 202.391 211.776 202.129C196.814 197.522 167.688 184.728 154.901 164.968C141.522 144.295 174.68 154.824 193.247 162.797C193.465 162.891 193.637 163.055 193.746 163.267Z" fill="#C1D8FC"/>
<circle cx="255.244" cy="194.155" r="77.8451" fill="url(#paint1_radial_892_2328)"/>
<circle cx="225.023" cy="160.552" r="5.47509" fill="#2B2B2B" stroke="#2B2B2B" stroke-width="0.170551"/>
<circle cx="257.418" cy="160.552" r="5.47509" fill="#2B2B2B" stroke="#2B2B2B" stroke-width="0.170551"/>
<line x1="221.216" y1="148.403" x2="229.315" y2="148.403" stroke="#2B2B2B" stroke-width="2.53843" stroke-linecap="round"/>
<line x1="253.198" y1="148.093" x2="263.348" y2="145.07" stroke="#2B2B2B" stroke-width="2.53843" stroke-linecap="round"/>
<circle opacity="0.12" cx="204.959" cy="172.881" r="15.4723" fill="white"/>
<circle opacity="0.12" cx="277.484" cy="172.881" r="15.4723" fill="white"/>
<path d="M212.093 172.086C211.433 171.897 211.433 170.962 212.093 170.773L241.526 162.387C241.823 162.302 242.14 162.428 242.299 162.693L247.297 171.08C247.425 171.295 247.425 171.563 247.297 171.779L242.299 180.166C242.14 180.431 241.823 180.557 241.526 180.472L212.093 172.086Z" fill="#FF4949"/>
<path d="M318.376 157.909L293.105 191.544C292.569 192.258 293.126 193.261 294.011 193.147C309.538 191.146 340.413 183.481 356.369 166.178C373.062 148.076 338.599 152.824 318.948 157.531C318.717 157.586 318.519 157.719 318.376 157.909Z" fill="#C1D8FC"/>
</g>
</g>
<defs>
<filter id="filter0_d_892_2328" x="147.572" y="112.079" width="217.458" height="164.152" filterUnits="userSpaceOnUse" color-interpolation-filters="sRGB">
<feFlood flood-opacity="0" result="BackgroundImageFix"/>
<feColorMatrix in="SourceAlpha" type="matrix" values="0 0 0 0 0 0 0 0 0 0 0 0 0 0 0 0 0 0 127 0" result="hardAlpha"/>
<feOffset/>
<feGaussianBlur stdDeviation="2.11536"/>
<feComposite in2="hardAlpha" operator="out"/>
<feColorMatrix type="matrix" values="0 0 0 0 0 0 0 0 0 0 0 0 0 0 0 0 0 0 0.1 0"/>
<feBlend mode="normal" in2="BackgroundImageFix" result="effect1_dropShadow_892_2328"/>
<feBlend mode="normal" in="SourceGraphic" in2="effect1_dropShadow_892_2328" result="shape"/>
</filter>
<linearGradient id="paint0_linear_892_2328" x1="94.5151" y1="11.8242" x2="94.2969" y2="153.668" gradientUnits="userSpaceOnUse">
<stop stop-color="#1F79FF" stop-opacity="0.48"/>
<stop offset="1" stop-color="#FCFCFC"/>
</linearGradient>
<radialGradient id="paint1_radial_892_2328" cx="0" cy="0" r="1" gradientUnits="userSpaceOnUse" gradientTransform="translate(284.496 241.539) rotate(-122.729) scale(131.907)">
<stop stop-color="#5197FF"/>
<stop offset="1" stop-color="#F6FAFF"/>
</radialGradient>
<clipPath id="clip0_892_2328">
<rect x="42.6719" y="101.116" width="103.114" height="96.8008" rx="10.2109" transform="rotate(-15.0881 42.6719 101.116)" fill="white"/>
</clipPath>
</defs>
</svg>
