<svg width="393" height="344" viewBox="0 0 393 344" fill="none" xmlns="http://www.w3.org/2000/svg">
<path d="M137.647 25C165.868 25 189.645 44.0186 196.863 69.9375C207.67 52.3159 227.111 40.5605 249.297 40.5605C283.242 40.5608 310.761 68.079 310.761 102.024C310.761 104.201 310.646 106.352 310.425 108.471C310.536 108.47 310.648 108.469 310.76 108.469C344.705 108.469 372.224 135.987 372.224 169.933C372.224 203.878 344.705 231.396 310.76 231.396C306.139 231.396 301.637 230.886 297.308 229.919H107.628C99.4369 233.961 90.2159 236.233 80.4639 236.233C46.5183 236.233 19.0001 208.715 19 174.77C19 140.824 46.5182 113.306 80.4639 113.306C81.0964 113.306 81.7266 113.316 82.3545 113.335C78.4022 105.217 76.1836 96.0997 76.1836 86.4639C76.1837 52.5184 103.702 25.0002 137.647 25Z" fill="url(#paint0_linear_892_2328)"/>
<g filter="url(#filter0_d_892_2328)">
<path d="M165.493 318.85L223.979 263.958C224.345 263.614 224.102 263 223.6 263L94.667 263L36.0205 318.042C35.6545 318.386 35.8976 319 36.3996 319L165.114 319C165.255 319 165.39 318.946 165.493 318.85Z" fill="#EFEFEF"/>
</g>
<g filter="url(#filter1_d_892_2328)">
<path d="M230.493 331.85L288.979 276.958C289.345 276.614 289.102 276 288.6 276L159.667 276L101.021 331.042C100.654 331.386 100.898 332 101.4 332L230.114 332C230.255 332 230.39 331.946 230.493 331.85Z" fill="#EFEFEF"/>
</g>
<g filter="url(#filter2_d_892_2328)">
<path d="M291.493 324.85L349.979 269.958C350.345 269.614 350.102 269 349.6 269L220.667 269L162.021 324.042C161.654 324.386 161.898 325 162.4 325L291.114 325C291.255 325 291.39 324.946 291.493 324.85Z" fill="#EFEFEF"/>
</g>
<g opacity="0.3" filter="url(#filter3_f_892_2328)">
<ellipse cx="193.05" cy="298.172" rx="53.05" ry="10.1718" fill="#9E9E9E"/>
</g>
<g filter="url(#filter4_d_892_2328)">
<path d="M134.179 212.906L153.375 175.47C153.782 174.675 153.063 173.781 152.21 174.044C137.247 178.651 108.122 191.445 95.3342 211.205C81.9556 231.878 115.113 221.349 133.68 213.376C133.898 213.282 134.071 213.118 134.179 212.906Z" fill="#C1D8FC"/>
<circle cx="195.677" cy="219.845" r="77.8451" fill="url(#paint1_radial_892_2328)"/>
<circle cx="165.457" cy="186.242" r="5.47509" fill="#2B2B2B" stroke="#2B2B2B" stroke-width="0.170551"/>
<circle cx="197.851" cy="186.242" r="5.47509" fill="#2B2B2B" stroke="#2B2B2B" stroke-width="0.170551"/>
<line x1="194.522" y1="174.049" x2="205.049" y2="176.478" stroke="#2B2B2B" stroke-width="2.53843" stroke-linecap="round"/>
<line x1="1.26921" y1="-1.26921" x2="12.0725" y2="-1.26921" transform="matrix(-0.974391 0.22486 0.22486 0.974391 171 175)" stroke="#2B2B2B" stroke-width="2.53843" stroke-linecap="round"/>
<circle opacity="0.12" cx="145.392" cy="198.571" r="15.4723" fill="white"/>
<circle opacity="0.12" cx="217.918" cy="198.571" r="15.4723" fill="white"/>
<path d="M152.527 197.776C151.867 197.588 151.867 196.652 152.527 196.464L181.959 188.077C182.257 187.992 182.574 188.118 182.732 188.384L187.73 196.771C187.858 196.986 187.859 197.254 187.73 197.469L182.732 205.856C182.574 206.122 182.257 206.248 181.959 206.163L152.527 197.776Z" fill="#FF4949"/>
<path d="M258.81 218.264L233.538 184.629C233.002 183.915 233.56 182.912 234.445 183.026C249.972 185.026 280.846 192.692 296.802 209.994C313.496 228.097 279.032 223.349 259.381 218.642C259.15 218.587 258.952 218.454 258.81 218.264Z" fill="#C1D8FC"/>
</g>
<ellipse cx="202" cy="191" rx="3" ry="2" fill="#F8F8F8"/>
<ellipse cx="160" cy="191" rx="3" ry="2" fill="#F8F8F8"/>
<defs>
<filter id="filter0_d_892_2328" x="31.6438" y="258.8" width="196.712" height="64.4" filterUnits="userSpaceOnUse" color-interpolation-filters="sRGB">
<feFlood flood-opacity="0" result="BackgroundImageFix"/>
<feColorMatrix in="SourceAlpha" type="matrix" values="0 0 0 0 0 0 0 0 0 0 0 0 0 0 0 0 0 0 127 0" result="hardAlpha"/>
<feOffset/>
<feGaussianBlur stdDeviation="2.1"/>
<feComposite in2="hardAlpha" operator="out"/>
<feColorMatrix type="matrix" values="0 0 0 0 0 0 0 0 0 0 0 0 0 0 0 0 0 0 0.22 0"/>
<feBlend mode="normal" in2="BackgroundImageFix" result="effect1_dropShadow_892_2328"/>
<feBlend mode="normal" in="SourceGraphic" in2="effect1_dropShadow_892_2328" result="shape"/>
</filter>
<filter id="filter1_d_892_2328" x="96.6438" y="271.8" width="196.712" height="64.4" filterUnits="userSpaceOnUse" color-interpolation-filters="sRGB">
<feFlood flood-opacity="0" result="BackgroundImageFix"/>
<feColorMatrix in="SourceAlpha" type="matrix" values="0 0 0 0 0 0 0 0 0 0 0 0 0 0 0 0 0 0 127 0" result="hardAlpha"/>
<feOffset/>
<feGaussianBlur stdDeviation="2.1"/>
<feComposite in2="hardAlpha" operator="out"/>
<feColorMatrix type="matrix" values="0 0 0 0 0 0 0 0 0 0 0 0 0 0 0 0 0 0 0.22 0"/>
<feBlend mode="normal" in2="BackgroundImageFix" result="effect1_dropShadow_892_2328"/>
<feBlend mode="normal" in="SourceGraphic" in2="effect1_dropShadow_892_2328" result="shape"/>
</filter>
<filter id="filter2_d_892_2328" x="157.644" y="264.8" width="196.712" height="64.4" filterUnits="userSpaceOnUse" color-interpolation-filters="sRGB">
<feFlood flood-opacity="0" result="BackgroundImageFix"/>
<feColorMatrix in="SourceAlpha" type="matrix" values="0 0 0 0 0 0 0 0 0 0 0 0 0 0 0 0 0 0 127 0" result="hardAlpha"/>
<feOffset/>
<feGaussianBlur stdDeviation="2.1"/>
<feComposite in2="hardAlpha" operator="out"/>
<feColorMatrix type="matrix" values="0 0 0 0 0 0 0 0 0 0 0 0 0 0 0 0 0 0 0.22 0"/>
<feBlend mode="normal" in2="BackgroundImageFix" result="effect1_dropShadow_892_2328"/>
<feBlend mode="normal" in="SourceGraphic" in2="effect1_dropShadow_892_2328" result="shape"/>
</filter>
<filter id="filter3_f_892_2328" x="139.261" y="287.261" width="107.577" height="21.8209" filterUnits="userSpaceOnUse" color-interpolation-filters="sRGB">
<feFlood flood-opacity="0" result="BackgroundImageFix"/>
<feBlend mode="normal" in="SourceGraphic" in2="BackgroundImageFix" result="shape"/>
<feGaussianBlur stdDeviation="0.369279" result="effect1_foregroundBlur_892_2328"/>
</filter>
<filter id="filter4_d_892_2328" x="88.0056" y="137.769" width="217.458" height="164.152" filterUnits="userSpaceOnUse" color-interpolation-filters="sRGB">
<feFlood flood-opacity="0" result="BackgroundImageFix"/>
<feColorMatrix in="SourceAlpha" type="matrix" values="0 0 0 0 0 0 0 0 0 0 0 0 0 0 0 0 0 0 127 0" result="hardAlpha"/>
<feOffset/>
<feGaussianBlur stdDeviation="2.11536"/>
<feComposite in2="hardAlpha" operator="out"/>
<feColorMatrix type="matrix" values="0 0 0 0 0 0 0 0 0 0 0 0 0 0 0 0 0 0 0.1 0"/>
<feBlend mode="normal" in2="BackgroundImageFix" result="effect1_dropShadow_892_2328"/>
<feBlend mode="normal" in="SourceGraphic" in2="effect1_dropShadow_892_2328" result="shape"/>
</filter>
<linearGradient id="paint0_linear_892_2328" x1="195.612" y1="25" x2="195.612" y2="239.735" gradientUnits="userSpaceOnUse">
<stop stop-color="#CECECE"/>
<stop offset="1" stop-color="#CECECE" stop-opacity="0"/>
</linearGradient>
<radialGradient id="paint1_radial_892_2328" cx="0" cy="0" r="1" gradientUnits="userSpaceOnUse" gradientTransform="translate(224.93 267.229) rotate(-122.729) scale(131.907)">
<stop stop-color="#5197FF"/>
<stop offset="1" stop-color="#F6FAFF"/>
</radialGradient>
</defs>
</svg>
